<svg id="Calque_1" data-name="Calque 1" xmlns="http://www.w3.org/2000/svg" viewBox="0 0 272 74"><defs><style>.cls-1{font-size:36px;font-family:Roboto-Medium, Roboto;}.cls-1,.cls-4{fill:#333;}.cls-2{letter-spacing:-0.02em;}.cls-3{letter-spacing:-0.01em;}.cls-5{fill:#009688;}</style></defs><title>Plan de travail 1 copie 2</title><text class="cls-1" transform="translate(-15 100.67)"><tspan class="cls-2">A</tspan><tspan x="23.12" y="0">nne-Lise G</tspan><tspan class="cls-3" x="194.33" y="0">r</tspan><tspan x="206.46" y="0">angeon</tspan></text><path class="cls-4" d="M126.36,60h21.06v3h-24.7V20.34h3.63Z"/><path class="cls-5" d="M136.36,50h21.06v3h-24.7V10.34h3.63Z"/><path class="cls-4" d="M240.52,57.93a12.07,12.07,0,0,1-5.87,4.16,25.42,25.42,0,0,1-9,1.49,16.62,16.62,0,0,1-8.91-2.4,16,16,0,0,1-6-6.8,23,23,0,0,1-2.17-10.08V38.92q0-8.88,4.48-14t12-5.14q6.59,0,10.61,3.35a13.85,13.85,0,0,1,4.78,9.24h-3.6a11.07,11.07,0,0,0-3.82-7.13,12.31,12.31,0,0,0-7.92-2.42,11.59,11.59,0,0,0-9.46,4.25q-3.49,4.25-3.49,12v5a21.07,21.07,0,0,0,1.66,8.61,13.12,13.12,0,0,0,4.75,5.79,12.55,12.55,0,0,0,7.1,2.05,19.83,19.83,0,0,0,8-1.46,8.62,8.62,0,0,0,3.22-2.26v-11H225.46v-3h15.06Z"/><path class="cls-5" d="M250.52,47.93a12.07,12.07,0,0,1-5.87,4.16,25.42,25.42,0,0,1-9,1.49,16.62,16.62,0,0,1-8.91-2.4,16,16,0,0,1-6-6.8,23,23,0,0,1-2.17-10.08V28.92q0-8.88,4.48-14t12-5.14q6.59,0,10.61,3.35a13.85,13.85,0,0,1,4.78,9.24h-3.6a11.07,11.07,0,0,0-3.82-7.13,12.31,12.31,0,0,0-7.92-2.42,11.59,11.59,0,0,0-9.46,4.25q-3.49,4.25-3.49,12v5a21.07,21.07,0,0,0,1.66,8.61,13.12,13.12,0,0,0,4.75,5.79,12.55,12.55,0,0,0,7.1,2.05,19.83,19.83,0,0,0,8-1.46,8.62,8.62,0,0,0,3.22-2.26v-11H235.46v-3h15.06Z"/><path class="cls-4" d="M48.75,51H29.39L25,63H21.21L37.35,20.34h3.43L56.93,63H53.18ZM30.5,48H47.61L39.05,24.74Z"/><path class="cls-5" d="M58.75,41H39.39L35,53H31.21L47.35,10.34h3.43L66.93,53H63.18ZM40.5,38H57.61L49.05,14.74Z"/></svg>