<svg id="Calque_1" data-name="Calque 1" xmlns="http://www.w3.org/2000/svg" viewBox="0 0 334 383"><defs><style>.cls-1{fill:#fff;}</style></defs><title>Plan de travail 1</title><path class="cls-1" d="M236.83,361.87c-2.91-2.34-4.46-6.57-4.47-12.59q0-28.75,0-57.49c0-15.53-2.62-30.17-14.39-42.39,8.33-1.55,16.27-2.33,23.76-4.6,10.93-3.31,22-6.79,32.18-11.83,18-8.89,30.5-23.52,37.64-42.31a131.54,131.54,0,0,0,6.82-70.7,78.09,78.09,0,0,0-17.57-37c-2.3-2.74-2.67-5-1.69-8.51C304,57,302.12,39.78,295.88,23c-.53-1.42-3.26-3.15-4.69-2.93-7.51,1.14-15.39,1.76-22.29,4.62-10.7,4.44-20.66,10.64-31.06,15.83-2.14,1.07-5.07,1.89-7.25,1.32a205.56,205.56,0,0,0-106.19,0c-2.16.57-5.22-.23-7.22-1.44C103.2,31.93,89,24,72.73,20.67c-12.07-2.43-13.06-1.88-16.31,9.73-4.26,15.23-4.9,30.48-.38,45.82a6.13,6.13,0,0,1-.82,4.91c-16,18.81-21.86,40.75-20.72,65,.83,17.6,3.54,34.8,11.36,50.8,12.21,25,33.2,38.87,59.22,45.93,10.19,2.77,20.68,4.48,31.46,6.77-7.43,8-11.4,17.49-13.43,28-.24,1.25-1.93,2.69-3.27,3.2C95.37,290,71.8,286.42,56.81,261c-7-11.93-17.15-20.36-31.49-22.3-4.44-.6-10.07-1.43-11.92,3.17-.74,1.84,3.77,7,6.92,9a58.52,58.52,0,0,1,24.31,30.22c9,24.88,32,36.77,58.81,35.27,3.16-.18,6.32-.44,9.46-.82,3-.37,5.89-1,9.49-1.55,0,13.58.33,26.57-.12,39.53a10.57,10.57,0,0,1-4.36,8.31,221.29,221.29,0,0,0,118.93,0Z"/></svg>