<svg id="Calque_1" data-name="Calque 1" xmlns="http://www.w3.org/2000/svg" xmlns:xlink="http://www.w3.org/1999/xlink" viewBox="0 0 1000 1000"><defs><style>.cls-1{fill:none;}.cls-2{fill:#1d1d1b;}.cls-3{clip-path:url(#clip-path);}.cls-4{fill:#fff;fill-rule:evenodd;}</style><clipPath id="clip-path"><rect class="cls-1" x="149" y="149" width="703" height="703"/></clipPath></defs><title>usama-vignette</title><rect class="cls-2" x="149.7" y="149.63" width="219.82" height="219.82"/><rect class="cls-2" x="390.58" y="149.63" width="219.84" height="219.82"/><rect class="cls-2" x="631.5" y="149.63" width="219.82" height="219.82"/><rect class="cls-2" x="149.7" y="390.53" width="219.82" height="219.82"/><rect class="cls-2" x="390.58" y="390.53" width="219.84" height="219.82"/><rect class="cls-2" x="631.5" y="390.53" width="219.82" height="219.82"/><rect class="cls-2" x="149.7" y="631.4" width="219.82" height="219.81"/><rect class="cls-2" x="390.58" y="631.4" width="219.84" height="219.81"/><rect class="cls-2" x="631.5" y="631.4" width="219.82" height="219.81"/><g class="cls-3"><path class="cls-4" d="M-161.92,373c6.27,9.54,9.93,18.4,11.66,28.12l.43,2.36c2,11,4.23,23.5,5.81,35.51,1.08,8.06,1.81,16.17,2.53,24.29.39,4.33.75,8.55,1.19,12.76l.09,1.05a27.91,27.91,0,0,0,1.18,6.71c1.77,5.4,3.66,10.86,5.53,16.31,3.18,9.27,6.18,18,8.81,26.79,2.73,9.11,5.31,18.26,7.87,27.4,3.88,13.83,7.78,27.68,12.16,41.16,1.64,4.94,5.93,8.38,9.39,11.13.28.24.54.44.78.63-1.47,3.51-3.35,8.2-2.77,13.09,2.59,21,10.39,37.14,23.82,49.5l1,.88a14.33,14.33,0,0,1,2,1.94c3.66,19.47,14.72,35.09,25.42,50.19,4,5.59,8,11.34,11.61,17.16,1.76,2.83,2.46,7.95,1.93,14-1.24,15.1,5.94,26.42,12.87,37.35,1.76,2.78,3.52,5.55,5.15,8.41l1.16,2,5.06-2-1.33,1.64a8.58,8.58,0,0,1-2.1,2.38c-6.23,4-11.85,5.69-15.41,4.59-3.28-1-5.5-4.71-6.58-11s-1.24-12.84-1.42-19.7c-.07-3.2-.15-6.23-.3-9.27l0-.58-.3-1.09-3.11-6.12c-4-7.94-8.08-15.86-11.89-23.91-2.8-5.82-5.43-11.69-8.06-17.57-5.36-12-10.62-23.78-17-34.93-21.71-37.91-36.76-74.2-46-111-2.89-11.52-6.47-23-9.94-34.11-4-12.82-8-25.52-11-38.14-2.43-10.28-2.27-21.61-2.12-32.57l.06-5.49a115.34,115.34,0,0,0-13.51-55.44C-161.75,399-166.13,387.49-161.92,373ZM1.91,781.31a61.13,61.13,0,0,0,5,7.38c5,6.64,7.74,10.7,4.71,17-2.08,4.31.71,8.35,4.25,13.45.26.37.53.75.79,1.13a52.69,52.69,0,0,1-7,1.44c-2.64-2.9-4.37-7.36-6.19-12.06-.87-2.24-1.72-4.48-2.69-6.6L-.3,800.39-5.07,799l2.16-.84-.51-2.29c-.25-1.11,1-3.47,2-5.35A24.56,24.56,0,0,0,1.91,781.31Z"/><path class="cls-4" d="M668.79,612.84l4.35,2.87c.2.11,3.42,1.6,6.85,3.17l-3.92,18.79q-2.63-4.17-5.21-8.31c-7.58-12.24-7.15-21.63,1.29-27.93a9,9,0,0,1,2.8-1.19C672.52,605.24,668.79,612.84,668.79,612.84Zm34.59,18.31c12,7.68,20.55,16.26,26.84,26.66,3.2,5.26,7.55,9.49,11.79,13.58,1.32,1.28,2.64,2.55,3.9,3.84,3.26,3.33,6.58,6.61,9.89,9.88l.88.85c4.12,4.06,8.25,8.12,12.26,12.26,2.4,2.48,2.77,3.5,2.79,3.55-1.75,13.66,5.86,22.36,14,28.4l-5.37,2.94,1.21,4.21c11.05,37.58,4.49,73.1-20.08,108.63a42.06,42.06,0,0,1-20,15c2.94-4.9,5.75-9.39,9.14-13l.9-.93c10.26-10.6,20.87-21.55,21.75-40,.28-6,2-12.3,3.57-18.44,2.08-8,4.24-16.19,3.87-24.68-1.46-33.29-19.14-61.51-32.31-79.85-11.43-15.93-24.83-30.69-37.8-45Zm-14.71,25.23c7.92,8.39,15.38,16.29,21.57,24.76,6.49,8.86,12.09,18.64,17.52,28.1,3,5.21,6,10.44,9.14,15.55,16.2,26.2,16.54,54.86,12.06,89.81a.63.63,0,0,0-.25.08A13.52,13.52,0,0,1,747,812c3.38-23.41-1-44.52-13.52-64-.89-1.37-.81-4.83-.76-7.61a57.83,57.83,0,0,0-.07-6.16c-.07-.83-.07-1.71-.07-2.58,0-3,0-6.65-2-9.76-8.09-12.68-16.37-25.36-24.64-38-6.42-9.83-12.9-19.75-19.29-29.68Z"/><path class="cls-4" d="M417,332.86c-10.53,8.75-16.65,20.17-22.57,31.21-2.52,4.69-4.88,9.09-7.53,13.28-11.66,18.39-20.81,38-28.22,54.79,0,0,0,.07,0,.11a5.88,5.88,0,0,0-.56-.88c-3.63-4.75-2.84-6.52,2.44-12.71a44.17,44.17,0,0,0,4.88-6.53c3.6-6.27,7.13-12.59,10.63-18.91,6.21-11.15,12.29-22.09,18.71-32.53,6.59-10.74,14.61-20.89,21.66-29.47l.72,0C417.07,331.84,417,332.44,417,332.86ZM375.86,337c-3.12,7-6.22,14.07-9.47,21-5.69,12.18-11.64,24.34-17.65,36.48a27.68,27.68,0,0,1-2.11,3.41,32.31,32.31,0,0,0-3.68,6.54c-5.44,14.32-12.53,33.24-19.05,52.54-1.32,3.9.95,7.29,2.78,10a20.9,20.9,0,0,1,1.29,2l.55,1.07-4.17-2L322.43,474c-.69,2.08-1.68,4.35-2.72,6.73a102.33,102.33,0,0,0-4.58,12c-.06-.71-.14-1.42-.21-2.12-.54-5.37-1-10.44.11-14.33,1.86-6.34,3.45-12.83,5-19.33,4.73-19.41,9.59-39.43,22.75-55.24l1.62-2-.44-2.5c-2.05-11.39,4.15-18.87,11.33-27.53,4.81-5.79,9.72-11.71,12.37-19.12,1.63-4.56,3.63-9.75,6.61-13.6a10.55,10.55,0,0,1,2.51-2.13Zm-24.1,116.75c-1.35,5.23-2.6,10-4.21,14.67-1.53,4.39-3.62,7.57-5.13,8.86a36.71,36.71,0,0,1-4.84-2.44c-1.25-.72-2.57-1.47-3.95-2.21L336,471a22.65,22.65,0,0,1,1.95-1.18c2.29-1.29,5-2.84,6.73-5.65,3-4.88,5.78-10.08,8.3-14.9C352.53,450.8,352.15,452.29,351.76,453.77Zm-37.6,61.16c1.19,21.43,3.18,42.79,5.13,63.55.88,9.37,1.68,18,2.42,26.58a22.54,22.54,0,0,0,.72,3.6,10.36,10.36,0,0,1,.4,1.85,14.57,14.57,0,0,1-.85,2.41l-.19-.13c-2.55-15.86-5.1-32.72-6.29-49.67l-.66-8.58C313.78,541.28,312.69,527.69,314.16,514.93Z"/><path class="cls-4" d="M765,514.29c4,1.24,8.05,2.7,12,4.22-23.12-6.72-48.17-10.56-69.42-10.62-3.7,0-7.26-.32-10.84-.64-7.89-.7-15.87-1.42-25.21.56-19,3.93-31.19,14.94-43,25.59-3.7,3.35-7.39,6.7-11.31,9.81-1.4,1.13-6,5.25-7.32,11.1-.9,4.08-1.91,8.14-2.94,12.2-4.75,19-9.68,38.67-1.95,59.82a11.2,11.2,0,0,1,.42,5c-7.77-12.06-7.93-25.33-7.2-32.68,1.71-17.17,5.31-42,16.6-59.47,12-18.32,30.29-29.82,50.33-31.56l9.3-.83-4.66-6.8c6.29,1,12.51,0,18.12-.85,6.19-1,12-1.88,17.28-.25a472.32,472.32,0,0,0,49.42,12.74A101.49,101.49,0,0,1,765,514.29Zm47.4,16.45c15.66,4.84,28.63,14.1,41.17,23.06,8.33,5.94,16.84,12,26.16,16.93,3,1.6,5.56,4.71,8.2,8.24-1.47-.75-2.86-1.53-4.22-2.38-7.65-4.8-15.22-9.7-22.78-14.61-13.68-8.87-27.72-18-42-26.3a144.88,144.88,0,0,0-13.35-6.8c.84.23,1.69.46,2.53.67Q810.3,530.08,812.41,530.74Z"/><path class="cls-4" d="M731.14,574.26c3.59,1.11,7.17,2.28,10.76,3.46l4.6,1.51c-5.22,1.87-9.33,3-13.9,1.56a20.61,20.61,0,0,1-4.37-2,64.19,64.19,0,0,0-13.69-6.13,60.08,60.08,0,0,0-47.17,5,62.3,62.3,0,0,0-26,27.36l0-.2c2.92-20.59,17.29-26.08,33.93-32.43,4.25-1.62,8.43-3.22,12.36-5.06,5-2.33,14.27-.25,21.7,1.42l4.86,1.06A167.43,167.43,0,0,1,731.14,574.26Zm-102.75,8.91c.09,6.94.16,14.13,2.34,22.33l.58,2.15,9.16-.54a59,59,0,0,0-2.91,8.32l-.54,2,.89,1.83c2,4,3.66,7.68,5.25,11l.48,1c3.46,7.37,6.2,13.18,9.44,19,9.08,16.23,18.81,33.47,29.26,50.07,11.3,18,19.37,35.34,24.51,52.85-.38-.41-.77-.82-1.15-1.22-2.24-2.32-4.69-4.87-5.74-6.87a190.28,190.28,0,0,1-8-18.55c-1.37-3.51-2.75-7-4.22-10.48a55.63,55.63,0,0,0-3.93-7.33c-2.95-4.84-9.73-15.84-9.73-15.84-6.34-10.26-12.44-20.15-18.31-30.17l-4.13-6.95c-6-10.14-12.27-20.57-16.83-31.26l-.65-1.55C628.36,609.39,622.85,596.47,628.39,583.17ZM711.93,771c2.32,6.47,5.22,12.7,8,18.79,2.4,5.13,5.08,10.89,7.17,16.46.46,1.2,0,4.71-1.36,6.82,0,0,0,0-.06-.05-.33-.1-2,.26-2.57.14a25.18,25.18,0,0,1-4.14-4.41c5.15-10.27.67-19.23-3-26.5C714.06,778.25,712.26,774.6,711.93,771Z"/><path class="cls-4" d="M145.79,385.21c-.07.23-.12.45-.2.66a57.1,57.1,0,0,0-1.47,5.81c-.72,4.64-1.52,9.24-2.31,13.84-2,12-4.15,24.23-5.27,36.56l-1,10.42c-2.13,22.54-4.3,45.79-3.89,68.83-4.72-22.65-2.17-45.86.28-68.37.59-5.31,1.15-10.47,1.62-15.63C134,433,135,422,135,422c1-11.16,1.9-22.06,3.23-32.92a11.4,11.4,0,0,1,2.46-5.22h0a35.79,35.79,0,0,1,3.62.82C144.78,384.83,145.28,385,145.79,385.21ZM139,557.05c1.83,5.61,3.72,11.42,5,17.09,2,8.93,3.7,18,5.35,27,.92,4.95,1.81,9.79,2.75,14.57-.19-.35-.4-.7-.59-1.06-2.81-5-5.16-9.12-6-13.08-2.19-10.35-3.67-21.1-5.12-31.5l-.16-1.17c-.67-4.78-1.33-9.56-2.07-14.33C138.49,555.41,138.75,556.23,139,557.05Zm17.82,74.54a35.37,35.37,0,0,1,2.09,5c2.09,6.75,4.08,13.52,6.06,20.28,3.16,10.83,6.43,22,10.17,33.11a175.6,175.6,0,0,0,7.14,17c2.09,4.51,4.13,8.9,5.82,13.41a27.61,27.61,0,0,1,1.52,7.33,53.69,53.69,0,0,1-2.65-5.77c-3.49-8.87-6.84-17.79-10.19-26.71l-6.68-17.64c-1.66-4.34-3.41-8.65-5.14-13-3.74-9.29-7.59-18.8-10.6-28.3-.37-1.2.77-4.4,1.32-5.94l.25-.7C156.23,630.29,156.54,630.94,156.85,631.59Z"/><path class="cls-4" d="M703.84,600c22.43,6.93,43,21.11,61.08,42.13,12.17,14.14,21.58,31.41,30.56,48.35-7.18-10.83-15.59-20.67-23.83-30.31-4.77-5.58-9.5-11.11-14-16.82-15.73-20.05-31.19-31.72-50.14-37.84a35.71,35.71,0,0,1-11.81-6.11c0-.12-.15-.64-.28-1.24a3.71,3.71,0,0,1,1.21-.12C699.08,598.58,701.47,599.24,703.84,600ZM809.59,716.45a8.84,8.84,0,0,1-1.25-1.27c-.38-1-.78-2-1.18-3Q808.36,714.31,809.59,716.45Zm10.84,9c7.74,2.39,11.25,8.12,13.45,21.88l.37,2.25c4.62,28.61,9.4,58.19-2.71,85.52-4.44,10-11,19.5-17.33,28.71-.87,1.26-1.72,2.49-2.55,3.71.21-.43.42-.86.63-1.26,3.69-7,7.66-13.9,11.64-20.81l3-5.29c18.73-32.57,10-64.91,1.51-96.19l-.84-3.07c-1.69-6.14-6-11-10.08-15.66l-.54-.61C818.67,725,819.57,725.24,820.43,725.5Z"/><path class="cls-4" d="M502.54,513.61c0,7.24,0,14-1.66,20.12-7.66,28.94.52,55.34,8.43,80.87l2.68,8.69a417.17,417.17,0,0,0,16.73,45c-5.25-9.82-10.28-19.74-14.92-29.75C506.16,621.93,501,603.76,496,586.18c-2.28-7.94-4.54-15.89-7-23.72a1.87,1.87,0,0,1-.06-.2c7.77-8.44,7.58-18.79,7.43-27.18-.11-5.77-.2-11.21,1.92-15.62a75.21,75.21,0,0,1,4.32-7.63C502.55,512.42,502.54,513,502.54,513.61ZM555.7,716.09c2.49,3.6,4.8,7,7,10.47,2.47,3.91,4.63,8,6.79,12,1.15,2.15,2.21,4.13,3.25,6-2.33-3.41-4.55-6.88-6.58-10.41Q561,725.15,555.7,716.09ZM584,760a21.81,21.81,0,0,0,4.08,2.44,14.26,14.26,0,0,1,2.13,1.23,40.17,40.17,0,0,1,3.37,7.15,24.68,24.68,0,0,1-4.69-4.47S585.15,761.55,584,760Z"/><path class="cls-4" d="M452.5,338.13c-1.26,2-2.56,3.93-3.87,5.8-1.51,2.16-5.31,7.73-5.31,7.73-4.54,6.7-9.22,13.62-14.42,19.84C403.6,401.79,377.05,439.8,372,492.11c-4.17,11.49-6.17,23.69-6.79,36.57l0-.59a120.9,120.9,0,0,1-.18-12.72,90.92,90.92,0,0,1,2-13.43c0,.08,0,.12,0,.12s.22-.18.33-.31c1.05-1.32,3-3.72,2.26-6.94-3.06-13.41,2.2-25.12,7.77-37.52,4.42-9.85,9-20,9.62-31.52.2-3.63,3.86-8.39,7.09-12.6,1-1.3,2-2.58,2.87-3.83,13.4-18.67,26.93-36.67,38.38-51.82a16.14,16.14,0,0,1,3.17-2.79,27.49,27.49,0,0,0,4.83-4.35c2.37-2.93,4.56-5.92,6.75-8.92ZM367,572.76c.46,4.51,1,9.11,1.49,13.75.09.9.28,1.87.45,2.86a13.46,13.46,0,0,1,.39,3.46c-.3,1.14-.63,2.25-1,3.36C367.8,588.42,367.38,580.59,367,572.76Z"/><path class="cls-4" d="M538.34,551.93c-5.38,26.84-.69,48.42,14.35,65.92l-5.24-1.51c-10.37-3.21-17.41-23.67-13.4-39.08a95.68,95.68,0,0,0,2.17-13.42,96.13,96.13,0,0,1,1.57-10.6,11,11,0,0,1,.7-2.12C538.44,551.4,538.4,551.66,538.34,551.93Zm16.51,68.54a5.36,5.36,0,0,1,.87,1.52c-.76,19.17,8.45,33.6,17.94,47.35a19,19,0,0,1-2.84-.62c-5.38-1.66-9-6.05-13.19-11.15a85.3,85.3,0,0,0-6.8-7.59c-5.14-4.86-9.89-9.74-9.91-12.56,0-2.24,2.63-5.81,8.86-12Zm25.07,58a95.12,95.12,0,0,1,9.77,17.75c3.24,8.28,8.19,15.76,13,23,2.94,4.44,6,9,8.49,13.61.32.59.26,2.38.15,3.87h-.15a28.76,28.76,0,0,1-6.38-.51c-3.15-3.36-5.38-7.75-7.75-12.4A98.3,98.3,0,0,0,591,713a56.83,56.83,0,0,0-14.25-13.87c-6.84-4.77-10.09-10.3-10.25-17.62l13.37,2.79Z"/><path class="cls-4" d="M722.76,462.43c-16.46,4.34-33.09,8.72-49.38,13.46-11.08,3.24-21.82,7.5-32.21,11.61l-3,1.16a16.25,16.25,0,0,0-5.55,4.07,15.42,15.42,0,0,1-1.58,1.46C611.36,496.77,601,510.4,591,523.57c-4.27,5.61-8.26,10.87-12.92,15.21a50.79,50.79,0,0,0-4.36,4.5c2.21-4.1,4.62-8.14,7-12,8.25-13.3,20.5-24.64,39.68-36.79,20.83-13.22,39.21-20,59.58-22,10.79-1.09,21.23-4.38,31.32-7.56,6.07-1.92,12.31-3.89,18.49-5.32a6.89,6.89,0,0,1,2.82.2ZM569,553.12a12.73,12.73,0,0,0-.06,1.69c.13,5.34,3.53,9.63,7.25,13.18-6.5,12.16-2.94,24.27.24,35,1.82,6.14,3.68,12.42,3.75,18.7-1.32-4-3.15-8.52-5-13-5-12.27-10.07-24.92-10.39-36.95C564.69,565.87,566.37,559.53,569,553.12Z"/><path class="cls-4" d="M791.44,435.74c-5.43,6.59-6.9,6.13-12.3,4.47-2.32-.72-5-1.72-8.29-2.95l-3.92-1.45-1.66-.55c-9.55-3-20.05-1.89-30.2-.87-2.56.25-4.67.46-6.72.63-38.7,2.89-74.72,12.78-107,29.36-14.06,7.2-26.51,17.49-38.53,27.45-5,4.11-9.9,8.17-14.92,12a14.94,14.94,0,0,0-3.82,5,13.34,13.34,0,0,1-.93,1.54A57.14,57.14,0,0,1,557,513a7.76,7.76,0,0,1,.77-3.42c15.88-22.27,31.64-34.82,51.11-40.66a84.49,84.49,0,0,0,13.22-5.72c1.42-.74,2.8-1.43,4.19-2.09,3.6-1.76,7.12-3.69,10.63-5.63,7.6-4.2,14.61-8.06,22.07-10.05,21.41-5.82,44.33-11.48,67-13.43,11.31-1,23.26.44,34.83,1.84,6.72.81,13.44,1.62,20.12,2A82.75,82.75,0,0,0,791.44,435.74Z"/><path class="cls-4" d="M130.32,141.66a4,4,0,0,1,.94.38,8.65,8.65,0,0,1,.71,5.19c-.63,1.88-2.72,4.25-6.22,7A88.4,88.4,0,0,0,109,172.14c.75-1.32,1.46-2.65,2.18-4,1.75-3.18,3.49-6.38,5.41-9.34l2.81-4.37a137.42,137.42,0,0,1,9.17-13.22A11.29,11.29,0,0,1,130.32,141.66Zm-27.69,40.41c-5.16,9-9.28,18.42-13.33,27.73-.13.29-.24.58-.37.86-1.14-10.3-.8-15.55,6.66-21.37A38.81,38.81,0,0,0,102.63,182.06ZM84.88,219.8c-.91,2-1.84,4-2.78,6a16.14,16.14,0,0,1-4.41,5.72A80.65,80.65,0,0,0,46.3,282.17c-2.48,14-9.32,24.81-16.56,36.28-1.62,2.58-3.17,5-4.66,7.48,2.52-6,5.13-12,7.87-18.4L43,284l-2.22.43a33.2,33.2,0,0,0,3.69-9.6c2-7.61,5.84-14.78,9.94-22.36,3.66-6.81,7.41-13.74,9.85-21.2,3.32-10.07,8.24-13.13,18.77-11.69ZM20.62,338.64a24.23,24.23,0,0,1-.87,4.73,32.78,32.78,0,0,1-2.52,5.33,17.25,17.25,0,0,1,1-5.93c.93-2.34,1.87-4.68,2.81-7C20.84,336.76,20.72,337.72,20.62,338.64Z"/><path class="cls-4" d="M439.39,565.07c.61,10.21,2,20.33,3.32,30.34,1,7.4,2,14.75,2.68,22.11.46,5.08.77,10.19,1.07,15.32s.63,10.36,1.09,15.52a71.7,71.7,0,0,0,1.4,9.75c-1.09-3.91-2.08-7.69-3-11.38a116.77,116.77,0,0,1-2.31-14.93,111.74,111.74,0,0,0-3-17.93C436.14,597.72,436.73,582.11,439.39,565.07Zm10.46,96.25c.26.78.54,1.53.87,2.27l2.49,6c4.23,10.24,8.56,20.71,14.53,30.21,4.16,6.58,9.26,12.43,14.18,18.1,3.81,4.39,7.62,8.76,10.83,13.25,6.08,8.44,11.3,17.88,16.35,27l1.32,2.37h0c-.18-.06-.51,1.59-.61,2.13l-.28,1.46-36.56-42-.38.23a35.48,35.48,0,0,1-3-8.18c-1.13-4.7-3.44-8.77-5.65-12.69a52.44,52.44,0,0,1-4.19-8.49C455.82,681.16,452.56,670.84,449.86,661.32Zm59.39,104.55c-.33,2.18-.73,4.24-1.13,6.3l-1.39,7.19a8.58,8.58,0,0,1-2.08-.92,103.42,103.42,0,0,1-8.65-7l.61-.48,3.25-1.16Z"/><path class="cls-4" d="M-46.45,414.6c1.92,6.61,3.63,12.44,5,18.34.71,3.1,1.12,6.28,1.53,9.45A90.39,90.39,0,0,0-37.67,455C-34.93,465-32,474.89-29,484.8c4.14,13.92,8.61,28.89,12.31,43.47,2.86,11.25,5,23,7.08,34.31,0,0,1.36,7.43,1.95,10.53q-3.46-12.09-7-24.21C-21,527.06-27.51,504.48-33.48,482c-2.11-8-3.52-16.39-4.88-24.51s-2.68-16.17-4.63-24c-1.25-4.91-4.55-8.91-7.72-12.78-.43-.52-.87-1.06-1.3-1.59l5.38-5.11ZM-2.9,590.71c.58,1,1.2,2,1.79,2.91l1,1.58a33.55,33.55,0,0,0,3,3.94,13.3,13.3,0,0,1,2.27,3c1.53,7.51,2.82,15.1,4.14,22.68.34,2,.68,3.94,1,5.9A260.52,260.52,0,0,0-.06,605.24c-1.2-2.56-1.62-5.87-2.08-9.36C-2.35,594.24-2.58,592.47-2.9,590.71Zm22,74.8a55.54,55.54,0,0,1,3.5,10.05c-.07.12-.39.65-.78,1.26A7.31,7.31,0,0,1,20.39,675Q19.88,670.28,19.12,665.5Z"/><path class="cls-4" d="M127.32,293.58c1.53,1.79,2.85,3.46,3.22,4.9,3,11.05,1.4,16.47-6,20.7-6,3.48-8.42,12.27-9.33,17.22q-1.63,8.94-3.37,17.84c-4.91,25.57-10,51.88-9.92,79-.2-2.09-.46-4.2-.69-6.31-.76-6.58-1.52-13.16-1.17-19.35,1.31-22.66,3.15-41.07,5.8-57.92.59-3.88,2.59-7.84,4.71-12a73.69,73.69,0,0,0,4.8-10.92c1.46-4.55,2.49-9.36,3.39-13.62a107,107,0,0,1,3.84-14.63C123.18,297,125.24,295.27,127.32,293.58Zm-24.74,155c1.45,18.21.57,37-.29,55.17-.27,5.55-.52,11.11-.72,16.66a8.92,8.92,0,0,1-1.42,1.87,6.33,6.33,0,0,1-2.08-1.76,131.21,131.21,0,0,1-3.83-15.66l-.31-1.54a10.63,10.63,0,0,0,4.75-3c3.85-4.29,2.91-10.06,1.91-16.16-.43-2.72-1-5.45-1.61-8.2-2.41-11-4.45-20.34,2.49-29.17a8.28,8.28,0,0,0,.88-1.47C102.42,446.4,102.48,447.48,102.58,448.55Z"/><path class="cls-4" d="M735.51,405.8,707,409.89C671.58,415.05,641.9,425,616.2,440.4a191.34,191.34,0,0,1-17.89,9.06c-2.21,1-4.44,2.06-6.64,3.12,1.31-.93,2.54-1.88,3.71-2.78,1.72-1.32,3.43-2.64,5.24-3.82,30-19.74,64.71-29,97.8-36a186.77,186.77,0,0,1,27-4.13l2.54-.21c2.71-.23,5.47-.47,7.44.14ZM579,459.27c-1.75,1.06-3.46,2.16-5.14,3.34l-1.05.77c-8.06,5.72-16.72,11.88-24.17,19a118.38,118.38,0,0,1,19.64-18.12c2.51-1.83,5.77-3.08,9.24-4.4Zm-53.76,67c-1.48,5.74-2.71,11.53-3.93,17.25-1,4.73-1.93,9.06-2.93,13.25-.84-8.89,2.19-17.41,5.55-26.81Q524.63,528.07,525.28,526.23Z"/><path class="cls-4" d="M255,213.41c.67,2,1.12,3.42,1.35,4.33-6.71,6.13-9.09,14.77-11.19,22.44-1.42,5.14-2.75,10-5.32,14-4.1,6.46-6.52,13.66-8.87,20.62-1.15,3.42-2.3,6.81-3.63,10.11l-5.23,12.77c-6.24,15.26-12.59,30.81-19.28,45.88-3,6.71-6.61,13.53-9.8,19.55-2.69,5.09-5.07,9.6-7.29,14.17a8.53,8.53,0,0,0-.73,2.16c0-1.91-.07-3.78-.16-5.55-.25-4.79-.46-8.91,1.55-12.05a49.43,49.43,0,0,0,2.68-5.06,26.5,26.5,0,0,1,4.46-7.26c3.76-4,4.77-9.63,5.68-14.57a47.39,47.39,0,0,1,1.55-6.74c2.29-6.62,4.81-13.15,7.34-19.68l4.22-10.95a14.69,14.69,0,0,0,.62-2.7c10.68-9.49,14.7-22.35,18.58-34.78,3.68-11.73,9.08-23.25,14.31-34.39l3.19-6.8a30.24,30.24,0,0,1,4.63-6.54l.74-.88Zm-70.06,171a11.13,11.13,0,0,1,.09,1.83c-.23,1.53-.4,3.17-.57,4.8-.37,3.75-.7,7.29-2.08,9.36a19.67,19.67,0,0,1-4.14,1.23c-.26-1.12-.77-3.26-1-4.8a19.48,19.48,0,0,0,7.61-14C184.8,383.35,184.86,383.89,184.92,384.38Z"/><path class="cls-4" d="M167.9,156.38c-.81,1.25-10.7,16-10.7,16-2.16,3.25-4.35,6.44-6.53,9.64-4.88,7.13-9.92,14.5-14.4,22.21-6.16,10.73-12,21.65-17.74,32.57q-4.78,9-9.64,18c-1.48,2.74-3.08,5.42-4.7,8.07-1.75,2.9-3.48,5.79-5.07,8.75-2.28,4.16-4.39,8.48-7,13.82l-2.39,4.86A11.15,11.15,0,0,0,84,293.88c-4,4.66-3.53,11.57-2.58,19.44.06.83-1.37,3.73-4.25,6.68a15.57,15.57,0,0,1-2.11-.33c-.8-3.34-.94-6.73-.29-8.77C78.72,299,83.41,286.78,87.55,276l4.53-11.9.57-1.76a11.37,11.37,0,0,1,.53-1.56c9.41-7.53,14-18.24,18.34-28.6,2.38-5.65,4.61-10.94,7.66-15.73a128.43,128.43,0,0,1,10.1-13,150.32,150.32,0,0,0,10-12.66c3.12-4.59,5.84-9.47,8.45-14.17a151.53,151.53,0,0,1,9.18-15.14c1.59-2.22,5.29-4.41,9.81-5.84C167,155.78,167.47,156.08,167.9,156.38Z"/><path class="cls-4" d="M468.64,417.36c-4.24,6.37-8.62,12.67-13,19-6.92,9.94-13.66,19.58-19.89,29.46q3.62-7.4,8-15.42c5.42-10,13.24-19.21,20.8-28.1Zm-48.92,98.78c-2.55,24.06-5.19,48.82-2,74.3,2,16.1,5.15,31.77,8.18,46.93l1.31,6.52a7.31,7.31,0,0,1-.73,2.08A7.4,7.4,0,0,1,425,644.6c-2.39-13.9-4.48-28.82-6.35-42-1-7.39-2.09-14.75-3.21-22.1-.78-5.31-1.86-10.56-2.91-15.82l-.27-1.31h.31l.61-4.75c.76-5.79,1.3-11.64,1.84-17.5,1.15-12.43,2.32-25.2,5.64-36.9l.56-1.92C421.15,502.5,420.21,511.71,419.73,516.14Z"/><path class="cls-4" d="M370.28,762.8a10.93,10.93,0,0,1,3.14,2.79c8.67,13.17,17.06,26.5,25.45,39.85l.62,1c6.72,10.67,13,20.61,19.32,30.48,2.14,3.29,6.1,4.91,8.28,5.58a23,23,0,0,0,2.49.62,30.11,30.11,0,0,1,3.51.86c5.67,1.75,7.48,4.33,7.15,10.22-.21,4.41,2.58,9.07,5.24,11.55,4,3.77,8.17,7.43,12.33,11.09,5.86,5.15,11.65,10.25,17,15.58a144.21,144.21,0,0,1,18.06,22,22.42,22.42,0,0,0-.67,2.79,14,14,0,0,1-2.88-.38,150.36,150.36,0,0,1-12.47-15.06L472.41,896c-1-1.28-1.93-2.59-3-4.2l-5.93-8.41-4.58,4.94c-.85.93-1.53,1.73-2.15,2.45a16.75,16.75,0,0,1-1.79,1.93l-2.69,2.11a11,11,0,0,1-1.13-1.46c2.64-16.05-7.56-27.22-15-35.41-2.64-2.87-5.31-5.69-8-8.49-10.34-10.86-20.08-21.07-26.49-34.72-5-10.63-11.76-20.42-18.28-29.87-4.43-6.43-8.74-12.69-12.46-19A7.06,7.06,0,0,1,370.28,762.8Z"/><path class="cls-4" d="M696.95,239.25a18.61,18.61,0,0,1-5.16,3.21q-8.75,3.28-17.09,6.74c.39-.26.75-.52,1.12-.8,4.44-3.17,8.53-6.11,12.9-7.77A26.59,26.59,0,0,1,696.95,239.25ZM616.2,278.61c-4,2.45-8,5-11.92,7.54a76.49,76.49,0,0,1-12.73,6.54,117.17,117.17,0,0,1,14.18-9Q610.93,281.12,616.2,278.61Zm-67.66,41.25c-9.85,9.38-21.38,18.54-35.23,25.17l.64-.54a28.84,28.84,0,0,0,3.63-4,13,13,0,0,1,2.43-2.67Q534.2,328.73,548.53,319.86ZM489.3,360.68c-3.13,2.68-6.61,5.68-10.13,8.13-.54-.13-1-.25-1.32-.37l-2.63-.84-.13-.42,3.67-1.79c3.89-1.87,7.78-3.74,11.65-5.66Z"/><path class="cls-4" d="M481.53,608c-3.32,39.08,14.24,69,32,93.26,2.93,4.06,5,9,7.21,14.21a109.91,109.91,0,0,0,5.74,12.2,37.06,37.06,0,0,0,7.1,8.25,39.9,39.9,0,0,1,4.33,4.53c9.4,12,16.64,21.85,22.83,31a2.25,2.25,0,0,0-.08.59L557,769.45c-7.29-5.1-13.59-9.51-17.4-15-14.92-21.57-28.46-44.54-41.55-66.75l-6-10.15c-3.41-5.77-5.66-12.75-7.81-19.51l-.32-1c-3.9-12.31-8.33-26.26-11.48-40.22a22.43,22.43,0,0,1,.39-9.27c2-.4,5.23,0,8.36.48Z"/><path class="cls-4" d="M925.08,658c13.81,14,18.36,32.61,23.15,52.18,1.4,5.7,2.79,11.39,4.42,16.94,10.64,36.24,8.65,73.62-6.31,117.22-.45-6-.77-11,.42-15.36,12.62-45.86,9.62-93.38-9.46-149.56-1.4-4.15-4-7.43-6.47-10.59a34.45,34.45,0,0,1-4.38-6.45A19.12,19.12,0,0,1,925.08,658Z"/><path class="cls-4" d="M894.18,286.41c4.7-.37,9.38-.62,14-.62a71.63,71.63,0,0,1,9.14.53Q905.77,286.35,894.18,286.41Zm87.65,29.93a174,174,0,0,1,22.92,17.26,4.35,4.35,0,0,1,.84,1.25,3,3,0,0,1-.53-.11,44.62,44.62,0,0,1-7.84-5.95c-1.95-1.68-3.77-3.28-5.7-4.7l-4.26-3.17c-3.52-2.62-7.1-5.29-10.73-7.93ZM830.08,292.49s.72,5.87.8,6.88l.42,4.58,39.85,3.46c-14.62-.39-29.26-.89-43.89-1.42l-7.18-.25c-.4-5-.79-10-.09-14.48,1.07-.47,3.7-1.37,4.74-1.24,2.93.38,5.86.63,8.78.78Z"/><path class="cls-4" d="M278.43,415.21c-8.53,27.54-12.18,56.12-15.74,84l-.3,2.26-4.95-4.34C256,486.15,266.78,446.89,278.43,415.21ZM261.08,520.78c.3,5.6,1.11,11.15,1.91,16.6.78,5.25,1.56,10.62,1.83,15.78a158.23,158.23,0,0,1-.24,15.9C258,554.71,257.31,535.2,261.08,520.78Z"/><path class="cls-4" d="M206.55,428.88c2.72,15.5,2.08,29.08-2,41.33-6.61,20.06-4.74,39.34-2.94,58,0,0,.66,6.88.9,9.8.44,5.21,1.4,10.28,2.31,15.19,1.16,6.16,2.24,12,2.34,17.82,0,1.66-1.37,4.16-2.87,6.54-1.69-1.89-3.1-3.67-3.28-4.92-3.57-24.85-5.67-45.21-6.63-64.07a25.45,25.45,0,0,1,1.14-6.82c1.51-6,3.73-14.88-4.78-22.29,0-.11.06-.24.09-.37.15-.77.34-1.74.63-2.69Q198.82,452.61,206.55,428.88Z"/><path class="cls-4" d="M62.27,712.55a33.57,33.57,0,0,1-.6,4.71c-.23,1.31-.41,2.39-.54,3.35l-.29.43c-.42.57-.86,1.2-1.3,1.91l-.06.12c-.07-.31-.13-.6-.2-.88a19.56,19.56,0,0,1-.53-3.41,62.37,62.37,0,0,1,.48-6.69A22.83,22.83,0,0,1,62.27,712.55Zm4.65,22.58c-1,7.66-3.3,24.29-4,29.72-1.11-3-2.15-6-3.06-9-.61-2-1.43-4.09-2.25-6.15-3-7.52-4.4-11.68.37-16.79a7.24,7.24,0,0,0,1.86-3.69C61.45,730.61,64.86,733.44,66.92,735.14Zm3.92,37.73c2.34,5.17,4.65,10.33,6.61,15.63s3.72,10.55,5.48,15.85c2.5,7.48,5,14.93,7.91,22.16l.59,1.4c3.53,8.48,3.41,9.45-1.35,11.59-2.46,1.11-4.49,1.46-5.9,1-2.07-.64-3.85-3.58-4.88-8.08-1.4-6.29-2.41-12.71-3.41-19.12-1.22-7.78-2.46-15.66-4.39-23.36A175.19,175.19,0,0,0,65,770.31c-.08-.2-.14-.38-.23-.58l4.64-.17Z"/><path class="cls-4" d="M508.86,821.94a1.51,1.51,0,0,1,.46.19c4.6,3.67,8.69,8.22,13.44,13.48,2.46,2.72,4.47,5,6.64,7.26l3.53,3.74,3.95-3.3c4.16-3.49,7.06-3.21,9.11-2.58,3.32,1,6.9,3.93,10.36,6.74l2.77,2.23a51.25,51.25,0,0,1,7.3,7.5c3.46,4.07,7,8.26,12,11a66.36,66.36,0,0,0,13.26,5.49c3,.94,6.13,1.75,9.24,2.58,2.6.68,5.2,1.37,7.74,2.12,3.37,1,6.73,1.91,10.12,2.79a20.33,20.33,0,0,1-7.4.22C595,878,581.4,874.91,568.06,870.78c-4.07-1.26-8.11-2.6-12.09-4.08-5-1.82-9.54-6.29-14.35-11-2.17-2.13-4.33-4.24-6.53-6.16l-5.26-4.5c-8.06-6.9-16.23-13.9-23.63-21.3a7.88,7.88,0,0,1-.53-2.18A14.21,14.21,0,0,1,508.86,821.94Z"/><path class="cls-4" d="M809.22,750.53a17.74,17.74,0,0,1,2.29,3.14c-.31,13.19-.82,26.36-1.41,39-.08-.38-.16-.77-.24-1.16-2.19-10-1.93-21-1.68-31.59.07-2.68.14-5.36.15-8A14.31,14.31,0,0,1,809.22,750.53Zm-1,78a14.49,14.49,0,0,1-1.4,4.17,25.55,25.55,0,0,0-2.39,7.48,25.31,25.31,0,0,1-9.21,17.51l-2.68-3c-5.47-6.16-3.62-8.91,2.52-16,2.41-2.77,4.92-5.63,6.47-9l1.81-3.84a95.17,95.17,0,0,0,5.84-14.29C808.82,817.41,808.5,823.09,808.18,828.52Zm-43.74,51.77c-3.85,3-7.78,6-11.81,8.69a8.06,8.06,0,0,1-3,1.05,3.43,3.43,0,0,1,.84-1.22C754.94,885.79,759.68,883,764.43,880.29Z"/><path class="cls-4" d="M172,427.56c.51,1.7,1,3.42,1.41,5.13,0-.1-.07-.14-.1-.15s-.27.32-.38.62c-.34.85-.6,1.56-.81,2.24a99.35,99.35,0,0,0-4,11.25c.3-5.72.91-11.32,2.75-16.47A19.46,19.46,0,0,1,172,427.56Zm-5.84,43.09a55.06,55.06,0,0,0,3.32,12.41c1.72,4.45.9,10.5,0,16.9-.7,5.22-1.43,10.62-.92,16,1.22,12.95,3.09,25.87,4.89,38.38,1.41,9.81,2.72,18.91,3.8,28a7.83,7.83,0,0,1-.22,2.33,4,4,0,0,1-.52-.91C163.6,545.3,160.21,508.26,166.17,470.65Z"/><path class="cls-4" d="M303.36,273.46a90,90,0,0,1-3.53,12.76c-15.66,40.65-31.4,80.82-46.76,119.39-2.22,5.57-4.69,10.85-9.53,14.3l2.41-7.06c3.76-11,7.09-20.81,10.63-30.52,1.77-4.93,3.44-9.92,5.11-14.92,4.41-13.22,8.91-26.72,15.5-38.47,8.12-14.44,13-29,17.8-46.48.76-2.72,4.39-5.91,7.59-8.72l.91-.8Z"/><path class="cls-4" d="M341.4,502.68c2.57,2,3.42,4.91,2,11a200.55,200.55,0,0,0-4.82,34.22,54.77,54.77,0,0,0-4.07-9.66C336.54,526.31,338.84,515,341.4,502.68Zm-1.12,94.69c1.74,16,4.34,31.92,6.9,47.62l2.56,15.81c.68,4.37,3.39,7.83,5.79,10.89a28.61,28.61,0,0,1,3.35,4.85,28,28,0,0,1,2.31,8.19l-.15.06c-1.72-1-6.51-3.65-7-5C346.22,652.45,339.33,625.51,340.28,597.38Z"/><path class="cls-4" d="M642.32,350.89a5.28,5.28,0,0,1-1.35,1.19l-13,6.44c-31,15.25-63,31-88.33,56.93,25-29.4,60-46.61,99.16-64A9.94,9.94,0,0,1,642.32,350.89ZM518.39,439.05c-4.27,4.91-8.41,9.6-12.66,14.18l-.93.92C507.75,446.64,510.82,441.21,518.39,439.05Z"/><path class="cls-4" d="M755.85,543.3l6.69,13.29a5.53,5.53,0,0,1-4.52.46,14.9,14.9,0,0,1-5.3-3.36,66.79,66.79,0,0,0-24.48-14.17c-21.67-6.7-43.78.12-64.45,8.49a101.52,101.52,0,0,0-13,6.81c-3.14,1.86-6.27,3.7-9.55,5.23a10.48,10.48,0,0,1-1.13-.13,6.67,6.67,0,0,1,.14-1.3,66.8,66.8,0,0,1,43.32-22.1c9.79-1.08,20.86-2.3,31.28-1.7a85.32,85.32,0,0,1,15.33,2.72c3.9.93,7.72,1.83,11.55,2.42a76.81,76.81,0,0,0,10.55.59c2.79,0,5.32.06,7.82.32l1.32.15Z"/><path class="cls-4" d="M958,657.17c7.5,3.24,9.5,10,11.43,19,.94,4.55,2.32,9,3.66,13.25a125,125,0,0,1,3.63,13.37c4.39,23.76,8,46.84,11,66.27.85,5.65,1.67,12.16.6,17.71a13.35,13.35,0,0,1-2.7,2.73,8.63,8.63,0,0,1-1.61-2.72,79.75,79.75,0,0,1-1.63-18.3c.5-32.12-6.73-64.6-23.48-105.34A18,18,0,0,1,958,657.17Z"/><path class="cls-4" d="M141.33,771.26c2.86,1.62,5.29,4,6.06,5.83C153.7,792.69,160,809.67,166.73,829a33.2,33.2,0,0,1,1.29,7.65,65.86,65.86,0,0,0,.86,6.58s.48,2.4.62,3.06l-3.76-3.07c-1-.81-2.24-1.76-3.53-2.7l-2.15-1.61c3-10.53-2.44-19.08-6.86-26s-7.73-12.18-5.13-18.75c1.76-4.36-1.47-7.66-4.29-10.56-1-1.06-2.92-3-3.24-3.85a17,17,0,0,1-.64-8.17C140.62,771.37,141.07,771.3,141.33,771.26ZM170,848.42a12.12,12.12,0,0,0,4.19,6.58c6.59,4.93,6.35,11.14,6.05,19.74a85.33,85.33,0,0,0,0,8.62c0-.06,0-.1-.07-.11s-.26.14-.44.34a11,11,0,0,1-1.35-.32,6.67,6.67,0,0,1-.77-.28c-3.46-8.35-6.59-17.19-9.62-25.75L166,851.51Z"/><path class="cls-4" d="M749.89,133.49c.78.24,1.61.55,2.43.88-.31.57-.63,1.13-.9,1.58a34.47,34.47,0,0,0-11.25,1.37c2.76-1.52,5.53-3,8.36-4.24C748.52,133.11,749.22,133.28,749.89,133.49Zm-34.12,19.75c-5.7,5.09-11.07,9.9-17.39,12.52a42.3,42.3,0,0,1-9,2.2,50.12,50.12,0,0,0,10.26-4.13,129.43,129.43,0,0,0,11.14-7.63c2.79-2.06,5.49-4.06,8.31-5.87Q717.38,151.79,715.77,153.24Zm-40.27,26-8.91,3.56c.28-.42.57-.85.82-1.24a11.79,11.79,0,0,1,1.66-2.22c.87-.68,1.74-1.32,2.64-2Zm15.07,7.42c-1.7,1.14-3.36,2.15-4,2.14-.92-.36-2.65-2.17-4.2-3.78-1.3-1.37-2.59-2.69-3.88-3.81L677,180Zm-64.13,17.94a14.25,14.25,0,0,1-1.62,3.07,19.56,19.56,0,0,1-6.31,3.38c1.67-3.22,2.9-4.39,3.65-4.78,1.52-.8,3.05-1.58,4.6-2.35C626.66,204.21,626.56,204.44,626.45,204.65Z"/><path class="cls-4" d="M807.31,603.41c5,1.56,8.83,5.82,12.85,10.33,5.28,5.9,10.41,11.1,15.56,16.31,11.43,11.59,23.22,23.54,30.65,37.15,4,7.39,9.24,14.08,14.3,20.55,9.18,11.76,17.87,22.88,19.48,37.4-3-5.14-6-10.33-8.91-15.51C881,691.73,870.86,673.92,859,657.58c-9.27-12.73-21-23.63-32.33-34.15-5.51-5.12-10.81-10-15.86-15.15-1.66-1.66-3.23-3.4-4.74-5.19C806.51,603.19,806.91,603.28,807.31,603.41Z"/><path class="cls-4" d="M380.5,223.14c.32,1.6,1,5.22.76,6.19-5.64,7.63-12.06,15.4-18.26,22.92-6.76,8.17-13.35,16.17-19.38,24.45-5.8,8.06-10.79,16.68-15.62,25-3.2,5.56-6.33,10.95-9.64,16.18a2.16,2.16,0,0,1-.35.33c0-.14-.06-.26-.08-.37,11-18.34,22.21-36.49,33.49-54.65Q359,251,366.59,238.71a34.54,34.54,0,0,0,2.64-5.8,16.55,16.55,0,0,1,2.26-4.71,41.9,41.9,0,0,1,7.55-6.05l1.13-.78C380.28,222,380.4,222.55,380.5,223.14Z"/><path class="cls-4" d="M824.88,587.91c1.61,1.47,3.2,3,4.77,4.62-1.14-.85-2.23-1.72-3.27-2.61A7.16,7.16,0,0,1,824.88,587.91Zm47.59,44.18c1.3,1.13,2.71,2.24,4.14,3.37,3.24,2.53,6.31,4.93,7.93,7.67C895.17,661,905.68,680,916.65,701.21a2.25,2.25,0,0,1,.07.67c-.82-1.51-1.63-3-2.44-4.53-5-9.23-9.8-18.24-15.55-26.59-10.69-15.54-20.36-29.2-30.2-42Z"/><path class="cls-4" d="M697.05,365.41c-9.13,1.75-18.25,3.31-27.39,4.87-6.12,1-12,2.05-17.72,3.08C668.78,368.33,684.82,365.26,697.05,365.41Zm-83.14,22.12c-7.51,4.64-15,9.35-22.48,14.06l-2.53,1.59c-8.21,5.16-16.39,10.31-24.61,15.38a92.1,92.1,0,0,1,14.4-11.87A227.59,227.59,0,0,1,613.91,387.54Z"/><path class="cls-4" d="M617.58,656.71c2.82,5.65,5.54,11.37,8.24,17.1,3.77,8,7.54,16,11.65,23.79,3.72,7.12,7.7,14.1,11.68,21.08,4.31,7.58,8.61,15.14,12.59,22.88a8.26,8.26,0,0,1-.18,1.26,4,4,0,0,1-1-.5c-4.27-6.13-8.47-12.59-12.65-19-4.72-7.26-9.33-14.36-14.25-21.27-2.38-3.29-5.61-5.55-8.47-7.53a35.49,35.49,0,0,1-5-3.9c-4-4-7.64-8.18-11.31-12.42l15.72,4.95Z"/><path class="cls-4" d="M711.61,868.2a15,15,0,0,1,3.39,2,17.71,17.71,0,0,1-2.55,3.31c-18.64,3.64-37.46,6.77-53.83,9.31l13.32-2.17-4.41-7a53.34,53.34,0,0,0-5.88-8c4.2,1.84,8.5,3.62,12.92,5.12h0c5.7,1.77,11.21,1.09,16.07.49L693,871a73.52,73.52,0,0,0,8.25-1.49,41.91,41.91,0,0,1,10.13-1.41Zm-69.71-10.9c1.7.62,3.35,1.26,5,1.92a25.28,25.28,0,0,0-6.5,1.2,19.5,19.5,0,0,1-5.26-2.66c0-.17.07-.38.1-.57A15.27,15.27,0,0,1,641.9,857.29Z"/><path class="cls-4" d="M105.44,543.78a8.07,8.07,0,0,1,1.87,2.48,27.8,27.8,0,0,1,1.31,11.53,141.28,141.28,0,0,0,4.11,47l0-.05c-10.12-12.4-9.63-27.06-9.12-42.56.2-5.55.39-11.23.08-16.86a.09.09,0,0,0,.05.07C103.89,545.4,104.48,544.78,105.44,543.78Zm9.35,68.52a250.34,250.34,0,0,0,11.39,30.31c2.58,5.81,3.55,9.74,1.45,13.42a43.86,43.86,0,0,1-2-4.26c-2.76-7-5.37-13.72-7.22-20.36-1.15-4.21-1.92-8.75-2.66-13.16C115.79,618.25,114.79,612.41,114.79,612.3Z"/><path class="cls-4" d="M661.31,149.26c-18.67,11-37.35,22-55.89,33.33a29.3,29.3,0,0,0-6.21,5.46,25.2,25.2,0,0,1-3.49,3.34c-10.32,7.44-19,13.63-28.2,19.11-.29-.2-.62-.39-1-.61l0-.07c1.58-3.07,3.06-6,4.91-7.35,8.69-6.37,18.09-12.35,27.17-18.13,3.8-2.42,7.36-4.68,10.89-7,4.32-2.78,8.63-5.62,12.95-8.47,9.86-6.5,20.06-13.23,30.45-19.19,2.46-1.43,6.16-1.72,10.07-2l1.13-.08Z"/><path class="cls-4" d="M869.39,804.85c-3.52,27.59-17.82,49.88-31.66,71.44-2.23,3.47-4.42,6.89-6.59,10.33a8.55,8.55,0,0,1-3.22,2.12c-.31-2.42-.56-5.25-.07-6,2.39-3.45,5.07-6.73,7.74-10,7.77-9.56,15.8-19.42,18-33.66,1.78-11.58,4.15-25.16,8.29-38.17.31-1,2.57-2.62,4.53-3.93Z"/><path class="cls-4" d="M301.65,429c-2.59,13.3-5.38,26.49-8.28,40.22l-3.23,15.39.12,19.05c.24,17.42.49,35.4.31,53.57a7.69,7.69,0,0,1-.32,2A3.35,3.35,0,0,1,290,558l-.32-12.24c-.59-21.37-1.21-43.47.51-65,1.14-14.78,5.28-29.74,9.27-44.21l2.36-8.62A8.52,8.52,0,0,1,301.65,429Z"/><path class="cls-4" d="M771,589.77l-6.69,1.08,3.2-2.42ZM766,600.27a229.2,229.2,0,0,1,48.57,40.56c-17.88-15.82-36.55-31.48-57.24-44.74l.95-.71Z"/><path class="cls-4" d="M67.78,423.58c0,14,.09,28,.45,41.94.21,7.63.68,15.26,1.18,22.9.43,6.87.85,13.63,1.06,20.38-6.95-36.93-6.09-74.08-4.27-105.75.29-.23.75-.61,1.51-1.15Z"/><path class="cls-4" d="M39.63,382A7.69,7.69,0,0,1,41,384.16a49.28,49.28,0,0,1-.65,10.28l-.05.38H37.34l-.92,4.32a60.77,60.77,0,0,1,2-16.61s0,0,0,0A3.86,3.86,0,0,0,39.63,382Zm-3.14,22.85c.26,5.2.55,10.07.87,14.94.76,11.91,1.5,23.79,1.95,35.66.44,12.4.51,25.83.19,42.1a9.34,9.34,0,0,1-2.06-1.91c-.07-9.14,0-19.17.14-29.2.08-7.16.15-14.33.11-21.5s-.32-14.44-.6-21.66l0-1C36.82,416.48,36.6,410.66,36.49,404.84Z"/><path class="cls-4" d="M306.45,760.53a7.64,7.64,0,0,1,3,1.68,36.94,36.94,0,0,1,3.69,7.81,57.05,57.05,0,0,0,3.65,8.15,65.83,65.83,0,0,0,5.81,8.27,74.79,74.79,0,0,1,4.46,6,42.58,42.58,0,0,1,2.69,5.33,65,65,0,0,0,3.39,6.82l2.43,4a247.4,247.4,0,0,0,14.34,22.06,78.56,78.56,0,0,0,10.87,10.88l-.22.17a24.41,24.41,0,0,0-2.32,2.39c-.14.15-.27.3-.38.45l-1.65-.47a5.38,5.38,0,0,1-2.08-1c-7.29-10.54-14.42-21.67-21.34-32.45l-5.94-9.25c-4.72-7.32-9.43-14.64-13.86-22.17l-1.69-2.85c-2.57-4.27-5.21-8.69-6.45-13.06a10,10,0,0,1,1.26-3Z"/><path class="cls-4" d="M457.77,383.51a5.14,5.14,0,0,1-.32,1.15c-21.22,19.79-34.48,44.7-45.61,68.65-.79,1.7-4.31,3.64-7.15,5.2l-.1.05-1.79-3.86c2.74-4.27,8.61-13.61,8.61-13.61,6.9-11,13.42-21.34,20.57-31.2s15.68-18.3,24-26.09A7.89,7.89,0,0,1,457.77,383.51Z"/><path class="cls-4" d="M912.3,160.61a20.62,20.62,0,0,1-6,5.44c-21.93,11-49.51,24-80.06,34,10.41-4.4,20.66-8.8,30.84-13.37,15.79-7.11,31.65-14.73,47-22.11Z"/><path class="cls-4" d="M386.28,673.09c2,4.13,4,8,6,11.81l11.92,22.32c6.65,12.39,13.29,24.79,19.76,37.26,3.63,7,7,14.2,10,21.42-4.65-8.67-9.44-17.62-14.23-26.56-7.34-13.71-14.68-27.42-22.2-41a71.67,71.67,0,0,0-6.7-9.6,57.15,57.15,0,0,1-6-8.64c-.31-.59-.54-2.9.5-6.54Z"/><path class="cls-4" d="M489.07,479c-18.67,30-24.45,64.41-17.61,105a7.45,7.45,0,0,1-1.6-1.83c-1.14-11.87-1.26-24.36-1.37-36.44l-.11-10.15c-.26-15.81,6.36-29.55,13.38-44.1,1.52-3.13,3-6.24,4.44-9.36A10,10,0,0,1,489.07,479Z"/><path class="cls-4" d="M78.22,159.2a9.16,9.16,0,0,1,.35,2.58,68.07,68.07,0,0,1-6.52,8.8c.52-1.21,1-2.37,1.39-3.46a49.59,49.59,0,0,1,2.72-6.31A6.36,6.36,0,0,1,78.22,159.2ZM62.28,183c-6.54,9.67-12.87,19.48-19.18,29.29l-9.7,15c-2.91,4.46-9.69,14.75-12.44,18.91,0-.42,0-.86,0-1.29-.07-2.48-.17-6.17.55-7.13l4.2-5.62c10.21-13.55,20.78-27.57,24.48-45.91h0c.11,0,1-.78,1.37-1A19.83,19.83,0,0,0,62.28,183Z"/><path class="cls-4" d="M880,727.13c2.41,8,5.35,16,8.21,23.64q1.24,3.36,2.48,6.75a48.57,48.57,0,0,0-4.25-7.77C882.57,743.87,881.32,735.75,880,727.13Zm12.77,36.17c1.25,3.58,2.45,7.16,3.52,10.73,1.78,5.93,1.22,12,.67,17.92-.62,6.7-1.26,13.6,1.06,20.76-.9.86-2.07,1.85-2.94,2.59a11.15,11.15,0,0,1-2.09-2.36c-.56-3.55-.12-7.6.37-11.88.18-1.62.35-3.26.49-4.88l.22-2.72C894.88,783.65,895.72,773.58,892.77,763.3Z"/><path class="cls-4" d="M230.87,814.64c2.3.74,5.75,1.83,6.4,2.83,4.54,6.68,8.17,14.33,11.68,21.71,0,0,2.71,5.69,3.88,8.05,4.38,8.86,8.7,17.79,13.16,27l1.94,4c-.24.25-1.75,1.78-2.24,2.26-3-1-4.46-2.11-4.69-2.53-11.32-20.58-21.91-41-31.47-60.8.2-.68.67-1.8,1-2.64Z"/><path class="cls-4" d="M425.23,689.43c3.38,5.43,6.63,10.67,9.71,16,4.91,8.51,9.66,17.1,14.42,25.71l5.92,10.66c1.41,2.55,2.87,5.07,4.31,7.59,3.72,6.49,7.59,13.2,10.68,20a9.27,9.27,0,0,1-.34,1.69c-11.34-17.78-22-34.88-32-51.77-5.17-8.74-10.29-18.45-16.09-30.56a6.37,6.37,0,0,1-.18-3.31l.93-.25Z"/><path class="cls-4" d="M925,314.76c14.35,5.67,30.55,12.08,44.82,20.36,10.18,5.93,19.74,13.54,29,21l-78.36-42.71c1,.21,1.89.44,2.78.72A18.42,18.42,0,0,1,925,314.76Z"/><path class="cls-4" d="M605.49,792.59a9.6,9.6,0,0,1,2.83,1.3c9.86,7.22,20.27,15,29.51,23.62,1,.94,1.79,3.74,2.43,6.13-1.54.47-4.4,1.33-5.26,1.22a115.24,115.24,0,0,1-12.68-10.07,136.15,136.15,0,0,0-12-9.7,69.78,69.78,0,0,0-12.88-6.49,84.12,84.12,0,0,1-8.64-4c-3.09-1.71-6.12-3.72-9.08-5.76,1.6.43,3.2.8,4.8,1.11a72.55,72.55,0,0,0,8.58.84,67.7,67.7,0,0,1,6.85.62A40.62,40.62,0,0,1,605.49,792.59Z"/><path class="cls-4" d="M953.09,446.39c1.66,1,3.3,2.23,4.94,3.43a69.46,69.46,0,0,0,8,5.25c6.13,3.28,6.6,5,6.61,5h0s-.09.68-1.51,2.22l-8.58-6.88c-3.49-2.75-6.76-5.33-9.79-8.14-.75-.72-1.47-1.5-2.15-2.3C951.39,445.4,952.22,445.88,953.09,446.39ZM917,448c4.87,1.5,9.47,4.85,14.36,8.39,5.71,4.15,11.53,8.38,18.72,10.6a33.17,33.17,0,0,0,13.31,1.35c-5.52,3.21-11.07,4-16.55,2.27A28.12,28.12,0,0,1,937.1,465c-.86-.74-1.71-1.53-2.58-2.33a61.58,61.58,0,0,0-6.29-5.37l-1.67-1.2c-3.22-2.35-6.55-4.78-10.5-6a16.16,16.16,0,0,0-5.1-.75l.68-2.19A18.27,18.27,0,0,1,917,448Z"/><path class="cls-4" d="M688.28,388.06c-21.61,6.29-42.3,12.31-63,18.48,6.64-3.81,13.39-7.3,20.25-9.15C659.6,393.63,674,390.7,688.28,388.06Z"/><path class="cls-4" d="M390.38,561.13c.61,9,1.18,17.64,1.3,26.08a12.74,12.74,0,0,1-1,4.43,11.25,11.25,0,0,1-1.75-4.95c.12-8.69.7-17.45,1.44-26.14C390.35,560.75,390.37,560.95,390.38,561.13Z"/><path class="cls-4" d="M293.93,667.24a19,19,0,0,1,4.23,4.49c1.57,2.59,2.35,6,3.2,9.7a52.35,52.35,0,0,0,3.3,10.69l1,2.12a220.37,220.37,0,0,1-10.38-19.92A20.86,20.86,0,0,1,293.93,667.24Zm25.36,54.28c3.19,6.28,6.23,12.37,9.09,18.56a51.62,51.62,0,0,1,3.12,9.85,14,14,0,0,1-1.5-2.37c-2.48-5.43-4.71-11-6.94-16.66C321.82,727.74,320.57,724.61,319.29,721.52Z"/><path class="cls-4" d="M799.8,493.46c7.29,2.25,14.47,5.87,21.43,9.38,2.87,1.45,5.73,2.89,8.63,4.27,2.45,1.14,4.9,2.24,7.36,3.33,7.72,3.43,14.9,6.62,21.26,10.56a6.74,6.74,0,0,1,1.5,2.4,6.62,6.62,0,0,1-1.44-.25,325.3,325.3,0,0,0-72.12-32.29q-4.4-1.37-8.86-2.6l-.18-.06a205.28,205.28,0,0,1,22.25,5.22Z"/><path class="cls-4" d="M726.27,836.35a8.38,8.38,0,0,1,1.72.94,34.58,34.58,0,0,1-2,3.46c-15.39-.26-30.51-.85-45.2-1.73,4.72-.82,9.63-3.86,13.73-11.11,1.58.23,3.84.66,6.47,1.31,7,1.73,14,3.6,20.8,5.71Zm-63.9-2.73a36.42,36.42,0,0,0,9.36,4.68l.63.18q-5.62-.39-11.14-.83c-.44-.61-1.08-1.65-1.57-2.46Z"/><path class="cls-4" d="M70.69,601.86c2.75,7,5.36,14.14,8,21.25h0c-1-1.69-2.08-3.41-3.24-5.16C71,611.29,69.06,606.84,70.69,601.86Zm17.26,45.8c2,4.87,4.43,9.56,6.6,13.72s4.31,8.22,6,12.37a49.72,49.72,0,0,0,3,5.75c2,3.42,3.36,5.94,3.45,8.59-10.81-10.29-17.87-19.75-18.19-31a70.23,70.23,0,0,0-.89-9.45Z"/><path class="cls-4" d="M587.85,429.52a59.72,59.72,0,0,0-6,1.15,28.93,28.93,0,0,1,4.72-2.91,5.34,5.34,0,0,1,2.08,0C588.39,428.41,588.1,429.06,587.85,429.52ZM557,442.84c-7.18,5.33-13.64,11.62-20,17.81A134.93,134.93,0,0,0,527,472.12a128.08,128.08,0,0,1-9.06,10.4,7.9,7.9,0,0,1-3.57,1.17l-.33-1.32c.27-.79.5-1.53.71-2.23a14.73,14.73,0,0,1,.72-2.07c5.14-4,10.1-9.07,14.9-14C538.61,455.5,546.51,447.34,557,442.84Z"/><path class="cls-4" d="M941.14,267.47c-3.94-.75-7.92-1.29-11.83-1.81-4.64-.62-9.29-1.23-13.73-2.22l-.21-.05a7.2,7.2,0,0,1,1.21-.51,13.87,13.87,0,0,1,3.53.55,34.71,34.71,0,0,0,3.82.76A126.32,126.32,0,0,1,941.14,267.47ZM962,275.16c15.66,7.54,30,18.71,42.72,33.33a11.42,11.42,0,0,1-1.23-.84c-4.79-3.68-9.4-7.61-14-11.55C980.7,288.62,971.83,281,962,275.16Z"/><path class="cls-4" d="M622.38,751.67a19.84,19.84,0,0,1,4.7,4,28.44,28.44,0,0,1,3.08,5.23c2.1,4.13,4.46,8.8,9.23,10.28,6.28,1.94,9.53,6.12,10.9,14a34.23,34.23,0,0,0,5.44,13.49l-2.34-1.85c-7.58-5.88-14.08-10.95-14.81-20.53-.3-4.22-3.86-6.27-6.71-7.94a16.77,16.77,0,0,1-2.85-1.88c-3.83-4.44-7.15-8.31-8.75-12.24A19.16,19.16,0,0,1,622.38,751.67Z"/><path class="cls-4" d="M234.77,463.63a14.92,14.92,0,0,1,1.06,4.39c.53,14.53.12,29.66-.31,42.68-.2,6-.77,12-1.34,17.91l-.07.91L225.92,521c4.86-4,7-8,6.47-12.23-.37-2.89-2.14-6.73-8.35-9.5l1.15-3.87c1.73-5.72,3.23-10.63,4.52-15.62a35.21,35.21,0,0,0,.84-6.22,15.85,15.85,0,0,1,.86-5.08A28.72,28.72,0,0,1,234.77,463.63Z"/><path class="cls-4" d="M15.33,523.12a9.07,9.07,0,0,1,2.25,3c5.13,20,9.55,38.25,13.35,55.41a140,140,0,0,0-6.4-17c-3.63-8.43-7-16.36-7.6-24.85-.38-5.27-.95-10.53-1.51-15.8Zm19.51,76.66a15.61,15.61,0,0,1-1.13,2,10.74,10.74,0,0,1-.83-1,48.26,48.26,0,0,0-.35-11.91C33.32,592.56,34.09,596.19,34.84,599.78Z"/><path class="cls-4" d="M117.15,801.85c2.54.78,4,1.94,4.38,2.51,2.07,3.29,3.43,7.2,4.87,11.36,1,2.79,2,5.57,3.13,8.24s.66,5.93.09,9.81c-.87,5.78-2,13.44,3.36,20.13a15.1,15.1,0,0,1-2.67,3.33s0,0-.06,0a23.59,23.59,0,0,1-2.58-.49,258.9,258.9,0,0,1-9.13-28.52c.34-.42.92-1.2,1.37-1.85a49.53,49.53,0,0,0,3-4.48l2.6-4.51-4.36-2.83c-1.22-.79-2.38-1.42-3.44-2a16.63,16.63,0,0,1-1.87-1.09c-1.46-2.75-3.47-6.35-3.34-8.56h0c.19.06,1.8-1.42,2.44-1.67a.75.75,0,0,0,.28.12C115.66,801.45,116.41,801.62,117.15,801.85Z"/><path class="cls-4" d="M475.77,830.13a9.3,9.3,0,0,1,2.71,2,12.63,12.63,0,0,1,.77,3.46,19.76,19.76,0,0,0,2.34,8,29,29,0,0,1,2.35,6,53.88,53.88,0,0,0,2.15,6c-2-1.12-4.06-2.18-6.06-3.24-3.78-2-7.44-3.92-11-6.05a21.05,21.05,0,0,1-3.43-2.71l10.13-3.62Zm30.57,36.36c2,.81,5.71,5.38,8.69,9,1.09,1.35,2.16,2.67,3.21,3.89a2.68,2.68,0,0,1-.55-.05c-2.8-2.19-6-4.91-9.12-7.61-2-1.73-4.05-3.47-6.15-5.18A31,31,0,0,0,506.35,866.49Z"/><path class="cls-4" d="M768,914.13a65.61,65.61,0,0,0,7.7,5.18,37.94,37.94,0,0,1-4.59.76c-9,.87-17.57,3.85-25.89,6.72-4.85,1.68-9.68,3.35-14.43,4.55a11.11,11.11,0,0,1-4.05-.08Z"/><path class="cls-4" d="M381.93,833.7a20.72,20.72,0,0,1,2.52,2.7,47.58,47.58,0,0,1,3.81,6.56,57.29,57.29,0,0,0,4.77,8.13c8.61,11.64,17.42,23.15,26.2,34.63l5.13,6.71c-.35,0-.68,0-.94,0-22-18.75-35.16-37.14-41.55-57.79A2.36,2.36,0,0,1,381.93,833.7Z"/><path class="cls-4" d="M915.83,842c.43,2,.81,4.1,1.12,6.17a20.71,20.71,0,0,1-.19,4.69c-.09.88-.18,1.81-.26,2.81l-6,10.35c-7.27,12.69-14.78,25.79-23,38.54,0,0,0-.09-.11-.11a8.32,8.32,0,0,0-2,.12,9.36,9.36,0,0,1,.91-2.87c2.33-4.08,4.84-8.07,7.34-12.08,8.3-13.23,16.84-26.89,19.46-44C913.25,844.77,914.44,843.4,915.83,842Z"/><path class="cls-4" d="M43.26,624.74c1.21,2.55,2.47,5.09,3.73,7.65l.42.86c4.24,8.55,8.62,17.39,11,26.39,1.87,6.9,2,14.6,2.18,22.06.06,2.34.1,4.37.17,6.29-3,.8-4.23.63-4.65.51-.63-.19-1.48-2.14-1.85-6-.65-6.81-2.59-13.32-4.45-19.6C48.68,659,47.51,655,46.68,651a241.06,241.06,0,0,1-3.81-26.82A2.56,2.56,0,0,1,43.26,624.74Z"/><path class="cls-4" d="M644.29,322a14.16,14.16,0,0,1-1.36,3.64c-23.7,12.55-49.4,25-72.07,36a16.77,16.77,0,0,1-3.34,1.19,3.34,3.34,0,0,1,.62-.52c9.55-5.49,19.29-10.67,29-15.86q7-3.71,14-7.47c3.14-1.71,6.23-3.47,9.34-5.23,7.26-4.13,14.19-8.06,21.23-11.43A6.46,6.46,0,0,1,644.29,322Z"/><path class="cls-4" d="M207.29,149.88c-4,10-7.62,19.22-11.58,28.32a196.3,196.3,0,0,1-12.25,23.72,13.27,13.27,0,0,1-4.05,4,10.05,10.05,0,0,1-2.93-4.06s-.17-1.51,2.62-6.36c3.74-6.5,7.62-12.88,11.51-19.24,2.65-4.34,5.29-8.66,7.88-13,1.89-3.22,3.69-6.45,5.48-9.7,2.1-3.8,4.11-7.41,6.2-10.9Z"/><path class="cls-4" d="M168.15,221.41a33.65,33.65,0,0,1-2.54,8.41,1.59,1.59,0,0,0-.1.21,30.32,30.32,0,0,0-1.18-9.64,18.78,18.78,0,0,1,2.7.6A8.38,8.38,0,0,1,168.15,221.41ZM160.8,239.3c-6,11.54-11.92,22.08-18,32-1.2,1.94-4.67,4.08-7.43,4.63A11.77,11.77,0,0,1,132,274a36.2,36.2,0,0,1,3-5.25c.76-1.19,1.48-2.31,2.11-3.43l1-1.85c2.25-4,4.57-8.2,7.17-12,1.11-1.65,3.13-4.7,4.84-5.56C154.84,243.61,158.33,241.53,160.8,239.3Z"/><path class="cls-4" d="M345.9,329.77a10.69,10.69,0,0,1,0,1.66c-1,1-2,1.94-2.86,2.93.12-.89.19-1.81.26-2.76,0,0,0,0,0,0A30.75,30.75,0,0,0,345.9,329.77Zm-19.67,38c-1.14,4.19-2.17,8.45-3.2,12.77a203.62,203.62,0,0,1-6.74,23.92l-5.95.32,1.51-4.38c3.18-9.27,5.68-16.55,8.94-23.45A68.43,68.43,0,0,1,326.24,367.8Z"/><path class="cls-4" d="M924.55,757.57c.71.39,1.55.86,2,1.21A189.7,189.7,0,0,1,929.7,779l.33,2.81-4.44.42s.37,10.54.48,13.26c.31,7,.63,14.18.31,21.06a8.66,8.66,0,0,1-3.24,4,7.79,7.79,0,0,1-2,.18,11.31,11.31,0,0,1-1.38-5.66c.59-20.7,1.43-37.64,2.66-53.24C922.52,760.79,923.48,759.2,924.55,757.57Z"/><path class="cls-4" d="M498.75,423.29c2.73-3.71,5.94-7.63,9.51-11.61a181,181,0,0,1,26.69-24.5Z"/><path class="cls-4" d="M11.33,374.89c.61,5.35,1,10.35-.37,14.37-.14.41-.28.83-.4,1.23C10.78,385.27,11,380.08,11.33,374.89Zm-1.9,51.73a141.82,141.82,0,0,1,1.32,17.66v.46l.13,1s-1,4.32-1.42,5.84a26.56,26.56,0,0,1-1.52-6.73,54.79,54.79,0,0,1,.59-9.77c.34-2.93.61-5.32.71-7.7,0-.61,0-1.22.07-1.82C9.35,425.91,9.39,426.27,9.43,426.62Z"/><path class="cls-4" d="M23.45,749.6c5,3,9.33,5.69,12.31,9a60.49,60.49,0,0,1-1.68,6.22c-.81,2.61-1.67,5.44-2.27,8.3l-.56,2.66s2.81,3.18,3.49,3.91a55.58,55.58,0,0,1,6.51,8,18.54,18.54,0,0,1,1.93,5c-2.26.89-4.35,1.66-6,1.6a6.2,6.2,0,0,1-1.52-.32,9.47,9.47,0,0,1-3.49-1.84c-3.45-12.82-6.49-27-9.42-40.64l-.57-2.64Z"/><path class="cls-4" d="M465.7,218.95c-.94,7.86-3,12.82-8.75,16.45-3.43,2.16-5,5.72-6.35,8.87a26.11,26.11,0,0,1-1.51,3.13l-.74,1.25c-1.76,2.93-3.4,5.68-5.31,8.26l-1.63,2.18a70.18,70.18,0,0,1-8.07,9.55,15.24,15.24,0,0,1-3.5,2.25c-.09-.33-.15-.62-.2-.86a88.85,88.85,0,0,1,6.94-9c4.88-5.81,9.89-11.77,11.72-19.1s6.29-11.79,11.45-16.87c1.95-1.93,3.89-3.87,5.72-6C465.54,219.07,465.62,219,465.7,218.95Z"/><path class="cls-4" d="M888.11,835.5a6.18,6.18,0,0,1,1.22,2.57,25.11,25.11,0,0,1-3.11,11l-1.37,2.57c-6.67,12.5-13.56,25.41-21.45,37.29-1.17,1.76-3.32,3.28-5.8,4.78,1.25-3,2.54-5.91,4-8.78,4.26-8.56,8.65-17.05,13-25.56l7.09-13.76c.6-1.2,1.13-2.41,1.63-3.63a19.51,19.51,0,0,1,2.74-5.06A7.62,7.62,0,0,1,888.11,835.5Z"/><path class="cls-4" d="M82.32,696C89.39,708.65,96,720.63,97.27,735.1a51.81,51.81,0,0,0,2,9.23,46.47,46.47,0,0,1,1.57,6.81,21,21,0,0,1,.07,3.39c-.78-.34-1.53-.69-2.29-1l-4.32-13.4c-4.12-12.71-8.21-25.35-11.72-37.87A17.31,17.31,0,0,1,82.32,696Z"/><path class="cls-4" d="M163.32,306.76c.75.23,2.24,1.53,5.05,6.16-1.43,1.83-3,3.72-4.63,5.61-4.07,4.81-7.81,9.21-9.77,13.34,1-4.39,1.91-9,2.9-14l2-9.72C161.84,306.68,162.93,306.64,163.32,306.76Zm-10.79,30.88a8.85,8.85,0,0,0,.7,3.23c2.37,5.66.58,8.36-2.38,12.84a35.21,35.21,0,0,0-3.87,6.9,12.6,12.6,0,0,1-1.85,1.08,6.58,6.58,0,0,1-.55-1.81,76.23,76.23,0,0,1,3.82-10.78,99.18,99.18,0,0,0,3.95-10.78C152.41,338.1,152.47,337.87,152.53,337.64Z"/><path class="cls-4" d="M520,272.06c-2.34,2.35-4.68,4.64-7.12,6.85L509,282.52c-7.62,7-15.46,14.15-23.66,20.22a101.84,101.84,0,0,1-15.19,9.09,1.38,1.38,0,0,1,0-.28c.11-1.42,3-3.83,5.06-5.6a43,43,0,0,0,4.64-4.35c2.39-2.73,6.18-4.78,10.19-7a81.28,81.28,0,0,0,7.94-4.67,25.54,25.54,0,0,0,4.95-4.71,19,19,0,0,1,2.78-2.86C510.39,278.86,515.21,275.45,520,272.06Z"/><path class="cls-4" d="M203.14,744.93c7.79,14.23,14.64,29.16,20.47,42.06,1.72,3.8,2.23,6.79,1.37,8.21-.73,1.22-3,2.23-6.14,2.82l-18.95-54c1,.21,1.84.4,2.62.63C202.8,744.8,203,744.87,203.14,744.93Z"/><path class="cls-4" d="M295.54,801a19,19,0,0,1,2.68,3.13l3.25,5.57c6.33,10.87,12.67,21.75,18.12,32.76,1.32,2.73,1.45,7.23,1.07,8.21a2.8,2.8,0,0,1-2.23.84c-.93-.28-2.63-1.71-4.32-4.76-7.24-13.05-14.72-26.55-21.48-40.26a7.31,7.31,0,0,1,.44-5s0,0,0,0A10.73,10.73,0,0,0,295.54,801Z"/><path class="cls-4" d="M526.64,783.86c4.06,3.32,8.23,7.09,12.4,10.88s8.13,7.37,12.35,10.85a131.45,131.45,0,0,0,14,9.65l3.49,2.17c3.07,1.94,6.19,3.76,9.46,5.63-2.1,2.68-3,2.4-3.5,2.25a13.52,13.52,0,0,1-4.56-3.05c-6.25-5.6-14.44-10.48-25-14.92l-2.68-1.09c-7.9-3.15-9.91-4.57-9.94-10.24,0-3.82-2.68-6.45-4.64-8.37a13.58,13.58,0,0,1-1.88-2.05,5.1,5.1,0,0,1-.15-1.71A5.4,5.4,0,0,1,526.64,783.86Z"/><path class="cls-4" d="M594.25,318l-59.87,38.88C547.23,340.94,577.1,322.38,594.25,318Z"/><path class="cls-4" d="M603.43,221.19a7.05,7.05,0,0,1-.85,2.49c-16.36,10.21-34.36,20.72-48.82,29.19a10.2,10.2,0,0,1-5,1.59,6.69,6.69,0,0,1-1.68-.26l.13-.22c9.27-6.22,18.9-12.22,28.53-18.23l7.91-4.94,18-11S603,220.82,603.43,221.19Z"/><path class="cls-4" d="M816,442.25a42.25,42.25,0,0,0,9.36,7.46,126.72,126.72,0,0,0-14.66.41h-.11Zm47.86,19.93a61.94,61.94,0,0,1,14.57,6.36,18,18,0,0,1-6.42-.86,51.87,51.87,0,0,1-7.79-3.4c-1.4-.7-2.79-1.39-4.18-2-1.82-.82-3.62-1.7-5.43-2.6C857.74,460.43,860.84,461.24,863.89,462.19Z"/><path class="cls-4" d="M923.16,574.69a139.57,139.57,0,0,1,26.3,28.22c-.43-.61-.87-1.21-1.32-1.79-6.51-8.69-14.11-16-22.91-24.45C924.54,576,923.84,575.36,923.16,574.69Z"/><path class="cls-4" d="M424.93,223.35a15.92,15.92,0,0,1,.64,2.92,23.74,23.74,0,0,1-7.15,9.67,70.5,70.5,0,0,0-17.5,19l.75-1.86c3.22-7.88,9.86-15.12,16.28-22.12,2.58-2.81,4.77-5.21,6.79-7.58ZM386.81,279.8a6.36,6.36,0,0,1-2.65,1.87,4.82,4.82,0,0,1-.62-.37,7.9,7.9,0,0,1,.63-2.34,28.41,28.41,0,0,0,5.39-4.1C388.66,276.51,387.75,278.17,386.81,279.8Z"/><path class="cls-4" d="M796.1,652.08a2.47,2.47,0,0,1,.67.26c11.36,13.12,21.91,26.4,31.17,39.36,1.84,2.59,2.85,6.3,3.92,10.24.34,1.25.65,2.37,1,3.46l-.74,1.08a6.39,6.39,0,0,1-1.42-1.43c-10.82-15.43-23.52-33.71-35.74-52.34a2.83,2.83,0,0,1-.33-1A12.8,12.8,0,0,1,796.1,652.08Z"/><path class="cls-4" d="M852.35,718a11.89,11.89,0,0,1,1.27,1.26c4.16,16.3,9.13,35.76,13,55.07-.38.34-1.08,1.07-2.09,2.07a9.14,9.14,0,0,1-1.83-2.14c-4.3-17.73-8.08-35.58-11.23-53.06A10.86,10.86,0,0,1,852.35,718Z"/><path class="cls-4" d="M234,550.67c1.46,1.7,2.68,3.26,2.87,4.39a130.85,130.85,0,0,1,1.58,17c.21,4.05.42,7.93.81,11.76.36,3.44,1,6.85,1.68,10.25a85.16,85.16,0,0,1,1.7,11.09,9.73,9.73,0,0,1-.45,3.14,9.51,9.51,0,0,1-2.51-1.72c-1.53-4.1-1.84-9.06-2.19-14.32l-.35-4.8c-1-11.34-2-22.7-2.92-34.06Z"/><path class="cls-4" d="M880.6,329.27a20.79,20.79,0,0,0-6.42,2l-2.66-3.5A58.59,58.59,0,0,1,880.6,329.27Zm-4.54,14.64a55.38,55.38,0,0,1-8.56-1.74,26.55,26.55,0,0,1-3.85-1.5l5.37-1.05Z"/><path class="cls-4" d="M702.16,203.43a9.8,9.8,0,0,1-1.39,2.83c-6.8,2.77-14.22,5.42-21.38,8-4.94,1.75-9.88,3.51-14.79,5.39,6.09-3.66,12.41-7.31,18.71-10.57,4.22-2.22,9.05-3.53,14.16-4.94,1.68-.46,3-.81,4.11-1.14Z"/><path class="cls-4" d="M513.58,174.95c-.33,2.78-.71,5.48-1.58,6.48-7.51,8.77-16.46,16.55-25.75,24.43a16,16,0,0,1-2.37,0,13.59,13.59,0,0,1-2-3.93c1.56-1.63,3.29-3.71,5-5.82C494.28,187.24,501.25,178.79,513.58,174.95Z"/><path class="cls-4" d="M815.86,228.13c-11.15,4.09-22.53,8.18-33.93,12.16-.67-.3-1.28-.58-1.84-.87.1-.29.2-.56.29-.79C792,235.11,803.92,231.61,815.86,228.13Z"/><path class="cls-4" d="M908.73,597.28a6.75,6.75,0,0,1,1.44,1.19c10.2,11.85,21,25.08,33,40.45a11.91,11.91,0,0,1,1.36,2.3,6.87,6.87,0,0,1-2.33-1.43c-13.55-15.62-24.15-28.71-33.35-41.18A4.33,4.33,0,0,1,908.73,597.28Z"/><path class="cls-4" d="M192.7,242.58a9.87,9.87,0,0,1,1.62,1.81,49.63,49.63,0,0,0-1,5.38,21.18,21.18,0,0,0-3.15-5.48,18,18,0,0,1,.14-1.89c0,.07,0,.11.14.14.42.13,1.66-.1,2.15,0Zm-.46,17.25c-1,7.52-2.74,13.54-10.11,17.81-3.7,2.12-5.25,6.26-6.25,10.51a7.89,7.89,0,0,1-.87-3.83c1.28-6.69,4.89-13.4,9.2-17.08.83-.72,1.66-1.36,2.46-2A24.72,24.72,0,0,0,192.23,259.83Z"/><path class="cls-4" d="M24.22,694.89c1,.75,2.86,3,4.93,7.33a62,62,0,0,1,4.7,15.7,34.43,34.43,0,0,1,.73,7.41,34.49,34.49,0,0,1-11,2.73,26.12,26.12,0,0,1-1.78-5.93c-.71-5.35-1-10.92-1.28-17.36-.1-2.24-.21-4.57-.34-7l.16-.12A34,34,0,0,1,24.22,694.89Z"/><path class="cls-4" d="M135.17,676C141.56,687.4,147.66,699,154,711l3.69,7-1.12.71a28.46,28.46,0,0,1-3.16,1.84,9.85,9.85,0,0,1-3.35-2.39c-5-11.63-9.86-24.19-15.25-39.49a6.49,6.49,0,0,1-.16-2.7Z"/><path class="cls-4" d="M899.42,521.76c4.82,3.17,9.72,6.6,13.66,10.7,8.09,8.48,15.94,17.19,23.76,25.93C923,545.37,909.91,532.32,899.42,521.76Z"/><path class="cls-4" d="M757,245.61c-16.25,6-34.31,12.57-52.41,18.57,9.28-4.82,19.16-9.74,29.29-13.25,6.27-2.16,13-3.43,20.2-4.77Z"/><path class="cls-4" d="M873.5,360.52a16.4,16.4,0,0,1,3.4,1.72l-.23.08s-5.14-1.17-5.49-1.28q-2.06-1.29-4.23-2.44c1.53.39,3,.8,4.52,1.26Zm-46.56-11.08c-3.85,0-7.9.19-12.17.55a14.69,14.69,0,0,1-1.66-1.11,10,10,0,0,1,2.34-1.44C819.2,347.89,823,348.61,826.93,349.44Z"/><path class="cls-4" d="M592.36,151.86l-6,5.13c3.78-4.73,5.32-5.35,6-5.15ZM549.19,188.7c.26-.47.52-.93.78-1.37,1.93-3.4,3.57-6.29,6-7.72l2.75-1.65c3.27-2,6.43-3.85,9.66-5.55Q558.72,180.63,549.19,188.7Z"/><path class="cls-4" d="M985.16,501.35a140,140,0,0,1,28,29.16A313.39,313.39,0,0,1,985.16,501.35Z"/><path class="cls-4" d="M199.8,824.22a33.82,33.82,0,0,1,5.85,5.39,46.24,46.24,0,0,1,6.89,12.74,45.14,45.14,0,0,1,2.26,9.19,18.55,18.55,0,0,1-8.23,1c-.13-.67-.72-3.71-.72-3.71-.28-1.47-.57-2.78-.84-3.66a84.16,84.16,0,0,0-4.94-8.18c-2.33-3.51-4.34-6.52-4.45-8.63.3-.42,3-3,4-4Z"/><path class="cls-4" d="M119.21,709.2c.75,1.55,1.41,2.91,2,4.3l3.48,8.18c3.59,8.35,7.29,17,10.45,25.77a16.84,16.84,0,0,1,.62,7.62,6.48,6.48,0,0,1-1.65.23,16.28,16.28,0,0,1-5.85-6.32,292.91,292.91,0,0,1-11.36-32.07,12.38,12.38,0,0,1,.61-7C118,709.68,118.63,709.42,119.21,709.2Z"/><path class="cls-4" d="M687.57,132.8c-.43-2.1-.13-2.68-.12-2.71s.75-1.07,5.11-1.78c5.32-.85,10-3.73,14.17-6.27a58.53,58.53,0,0,1,6.82-3.78c4.8-2.14,9.16-4,13.23-5.73Z"/><path class="cls-4" d="M333.87,865.06c2.61,4.43,4.83,8.17,6.81,12,3,5.83,5.52,10.85,6.87,15.84a28.08,28.08,0,0,1,.55,9.78,50.84,50.84,0,0,1-4.92-6.9l-1.67-2.68c-4.44-7.14-9-14.52-12.72-22-.9-1.84-.94-5.22-.32-6.41h0a29.14,29.14,0,0,0,3.43-1.12l.88-.32Z"/><path class="cls-4" d="M938.73,527.12a125.6,125.6,0,0,1,16,15.35Z"/><path class="cls-4" d="M257.55,651c6.78,16.69,12.42,31.49,17.21,45.22-.19.41-.49,1-.74,1.43l-1.85-3.87c-4-8.24-8-16.47-11.57-24.84a62.46,62.46,0,0,1-4.33-16,5.39,5.39,0,0,1,.8-2.07l.46.13Z"/><path class="cls-4" d="M769.81,158.77a3.89,3.89,0,0,1-.52,1l-7.88,5.8c.56-.5,1.11-1,1.68-1.46C765.25,162.36,767.45,160.63,769.81,158.77Zm-45.74,33.08c-.29-.06-1.41-.4-1.57-.45.23-.46.47-.93.7-1.34a33.27,33.27,0,0,0,3.81-.15Z"/><path class="cls-4" d="M49.88,540.7a31.7,31.7,0,0,1,4,7.1c3.42,10,6.59,20.89,10,34.43a6.41,6.41,0,0,1,0,2.13c-.28,0-.57,0-.87-.09a33.56,33.56,0,0,1-7.42-12.92,231.44,231.44,0,0,1-5.73-30.58Z"/><path class="cls-4" d="M396.5,618.51c7.14,18,13.57,36.21,18.93,51.69l0,0c-.06,0-.14.09-.21.24-2.6-3.75-4.75-6.91-6.07-10.17-5.48-13.34-10.33-26.72-14.44-39.76a13.17,13.17,0,0,1,.71-2.33l.4.11Z"/><path class="cls-4" d="M855.42,385.71a313.81,313.81,0,0,1-31.53-2.38l-.16,0c-2.07-.64-4.2-2.24-6.68-4.83,0-.11.07-.21.11-.33,1.44.25,3,.67,4.64,1.09,1.41.38,2.81.74,4.22,1l5.8,1.11C840.22,383,847.82,384.45,855.42,385.71Z"/><path class="cls-4" d="M670.18,106.83c-10.27,10.12-20.44,16.8-34.4,18.81,0-.3.09-.59.14-.85,7.12-2.09,13.23-6,19.15-9.83C660.12,111.72,665,108.59,670.18,106.83Z"/><path class="cls-4" d="M677.26,908.75c-2.16,1.44-4.24,2.62-5.94,2.75-3.53.26-7.07.44-10.56.57.75-.34,1.5-.72,2.26-1.09a23.22,23.22,0,0,1,6.6-2.56A28.39,28.39,0,0,1,677.26,908.75Zm-24.64,3.53c-8.13.13-15.76,0-22.22-.17l-.16,0a8,8,0,0,1-2.3-1.18c.11-.19.22-.36.32-.52,6.14-.29,13.07-.3,19.79-.31h3.79Z"/><path class="cls-4" d="M74.37,339a4.57,4.57,0,0,1,.65.88c.7,7.92,1,16.33,1.24,24.45l.15,4.09-.52,1-.4,2c-.18.87-.28,1.79-.38,2.71a15.2,15.2,0,0,1-.3,2.07,36.84,36.84,0,0,1-3.9,3.61,17.86,17.86,0,0,1-2.37-2.8C69.71,365.35,71.87,352.84,74.37,339Z"/><path class="cls-4" d="M376.72,885.1a5.44,5.44,0,0,1,1.57,1.08c2.23,9.82,9.7,15.72,16.29,20.93a68.76,68.76,0,0,1,7.44,6.43,8.26,8.26,0,0,1,1.33,2.34,9.4,9.4,0,0,1-3.57.43c-7.2-2.53-11.94-5.3-14-8.18-3.15-4.52-5.31-10.27-7.6-16.36-.74-2-1.47-3.93-2.25-5.9C376.29,885.54,376.52,885.29,376.72,885.1Z"/><path class="cls-4" d="M283.57,841.81c1.51,1.26,3.06,2.56,3.45,3.44a236.35,236.35,0,0,1,9.6,25.74,16.82,16.82,0,0,1-1.45,1,25.81,25.81,0,0,1-4.67-3.16c1.32-7.95-3.85-12.67-7.33-15.86a26,26,0,0,1-3-3c-1.7-2.08-2.43-5.82-2-7.08,0,0,0,0,0,0a14.69,14.69,0,0,0,3.4-1.19l1.26-.54Z"/><path class="cls-4" d="M899.44,381.57a25.3,25.3,0,0,1,4.47,1.86l-3.4,3.45c-.6.62-1.18,1.32-1.76,2a15.62,15.62,0,0,1-1.42,1.58c-2.73.83-6,1.48-9.19,2.13a8.39,8.39,0,0,1,0-2.39c1.4-2.16,4.05-4.35,7.12-6.87l2.66-2.22C898.4,381.27,898.93,381.41,899.44,381.57Zm7.19,3.55a25.3,25.3,0,0,1,4.81,4.53c-.65-.66-1.33-1.22-1.9-1.7a13.33,13.33,0,0,1-1.17-1Zm6.6,7a34.17,34.17,0,0,1,3.79,8,9.4,9.4,0,0,1-2.8-.14h0s-.61-.94-.33-4.5A6.52,6.52,0,0,0,913.23,392.1Z"/><path class="cls-4" d="M673.75,759.59l3,6.06c5.12,10.3,10.42,21,14.83,31.74a15.6,15.6,0,0,1-1.31,3.71l-.44-1.15a41.88,41.88,0,0,0-1.77-4.21c-1.71-3.35-3.48-6.64-5.23-9.94-3.19-6-6.37-11.95-9.23-18a20.85,20.85,0,0,1-2.1-7.76l1.84-.81A3.93,3.93,0,0,1,673.75,759.59Z"/><path class="cls-4" d="M795.17,379.3c-1.76.51-4.22.42-7.87-.68C790.22,378.75,792.88,379,795.17,379.3Z"/><path class="cls-4" d="M827.51,926.86a54.33,54.33,0,0,0-7.37,6.84c-5.89,6.18-9.26,9.3-15.91,7.24l-1-.35q5.21-3.18,10.41-6.39c1.75-1.1,3.38-2.31,5-3.52a41.63,41.63,0,0,1,5.86-3.92,11.6,11.6,0,0,1,2.89-.93C827.43,926.18,827.47,926.53,827.51,926.86Z"/><path class="cls-4" d="M621.91,243.26c-1.89,4.45-18.36,14-32.55,17.44a24.78,24.78,0,0,1,5.52-5c6.91-4.2,14.78-7.43,22.38-10.56l4.64-1.93A.27.27,0,0,1,621.91,243.26Z"/><path class="cls-4" d="M922.42,187.2c-12.87,6.63-25.54,13-38.64,18.55a6.71,6.71,0,0,1-1,.31c13.11-6.47,26.28-12.94,39.37-19Z"/><path class="cls-4" d="M998.56,234.39a24.11,24.11,0,0,1,1.06,2.25,24.33,24.33,0,0,0-1.84,4.91,23.2,23.2,0,0,1-.47-6.51h0A3.43,3.43,0,0,0,998.56,234.39Zm11.12,27.47c5.74,3.66,8.29,6.48,8.65,10.13-4.41-2.74-7.42-6.63-10.22-11.14Z"/><path class="cls-4" d="M199.49,664.28c4.82,8.87,9.62,17.7,13.66,26.58a11.08,11.08,0,0,1-.46,3.62,7.86,7.86,0,0,1-1.9-1,282.22,282.22,0,0,1-13.47-33.17C198,661.61,198.76,663,199.49,664.28Z"/><path class="cls-4" d="M600.15,835.4c5.35,2.72,9.93,5.05,13.27,8.14.53.68.84,3.8,1,5.73a14.07,14.07,0,0,1-4.89-.14c-6.7-2.11-11.93-4.73-15.53-7.78-1.41-1.22-2.73-4.42-2.9-6.73l3.69-2C596.64,833.61,598.42,834.52,600.15,835.4Z"/><path class="cls-4" d="M814.2,565.17c-3.88,2.93-8.56,6.15-12.25,6.23a31.92,31.92,0,0,1-10.05-1.71c-3.55-1.09-7.08-2.54-10.52-4l-1.1-.44c0-.18-.1-.39-.14-.58a9.14,9.14,0,0,1,2.14-.42l.5.28a100,100,0,0,0,10.42,4.28c8.75,2.7,13.49-.64,19.18-7Z"/><path class="cls-4" d="M270.38,599.88c3.46,10.81,6.6,21.82,10.22,34.51l.62,2.19c-4.49-11-8.88-23.07-12.8-35.57h0c.14,0,.68-.77,1.12-1.54Z"/><path class="cls-4" d="M441,907.91c3.71,8.55,10.65,13.36,16.81,17.63,1.58,1.1,3.15,2.18,4.68,3.34-.07.58-.16,1.69-.24,2.6-.54,0-1.08-.08-1.52-.15-6.34-8.13-12.62-15.08-23.33-18.4l-.71-.21a15.46,15.46,0,0,1-1.48-4l4.26-1.38Z"/><path class="cls-4" d="M425.84,797.9c.62.2,1.8.56,1.76,4.76-.14,3.77,2.83,6.31,4.79,8l1.39,1.25s1.86.92,1.88.92a9.68,9.68,0,0,0,2.39.41c1.08.56,4.39,5.85,6.83,11.63-2.2-1.76-4.29-3.54-6.24-5.43-5.23-5.06-11.14-11.13-15.36-17.8a15.82,15.82,0,0,1,.26-4.07A9.84,9.84,0,0,1,425.84,797.9Z"/><path class="cls-4" d="M331.1,233.44c-3.14-6.32.37-9.61,6.09-15,2.68-2.54,5.47-5.16,7.39-8.33.51-.2,3.6-.64,5.51-.9Z"/><path class="cls-4" d="M271.41,757.93c3.67,5.44,7.08,10.52,9.23,15.72a14.31,14.31,0,0,1,.58,6,9.25,9.25,0,0,1-2.79-2.25c-2.78-3.75-4.78-8.12-6.89-12.75-1-2.13-1.93-4.24-3-6.32-1.51-2.93-1.64-4.44-1.56-4.81h0a8.78,8.78,0,0,1,1.2-.44C269.27,754.78,270.36,756.37,271.41,757.93Z"/><path class="cls-4" d="M940.19,209.9c-10.27,6.35-20.94,10-28.58,10.87C920.52,214.45,931.82,210.52,940.19,209.9Z"/><path class="cls-4" d="M803.54,323.45c-12.25.84-24.23,1.19-35.57,1a5.17,5.17,0,0,1-1-.61c.07-.12.16-.21.23-.31,2.48-.16,5.24-.49,8-.84C784.47,321.6,793.86,320.46,803.54,323.45Z"/><path class="cls-4" d="M987.13,628.27c7.54,8.37,11,19.39,8.85,25.15a9.51,9.51,0,0,1-1.44,2.53c-3-8.52-5-17.36-7.36-27.53Z"/><path class="cls-4" d="M675.18,72.94a105.83,105.83,0,0,1-14,9.8c-7.09,4.12-14.62,7.92-21.89,11.62l-.35.17c11.83-7.69,24.06-15,35.57-21.71a2.21,2.21,0,0,1,.63-.17Z"/><path class="cls-4" d="M-1.88,286.35a7.56,7.56,0,0,1,2,1.37,43.41,43.41,0,0,1-.81,9.13c-.25,1.51-.46,2.9-.61,4.21a33.2,33.2,0,0,0-1.59,4.61c-1.14,3.77-2.13,7-3.75,9.4a13.84,13.84,0,0,1-2.47.87,10.08,10.08,0,0,1-1-3.62,115.59,115.59,0,0,1,5.14-23.53A7,7,0,0,1-1.88,286.35Z"/><path class="cls-4" d="M988.14,265.85a39.85,39.85,0,0,1,3.2,2.86,14.18,14.18,0,0,1-1.59-.36c-.76-1.07-1.53-2.08-2.32-3.07Z"/><path class="cls-4" d="M307.15,220.33c-7.77,7.13-14.89,13.26-21.89,18.9a11.1,11.1,0,0,1-1.2-.3,5.18,5.18,0,0,1-1.51-.66h0c.3.09.39-1.37.56-2.22C290.92,230.67,299.31,225.29,307.15,220.33Z"/><path class="cls-4" d="M725.39,897.83a6,6,0,0,1,1.89,2.43c-.1.2-1.12,1.48-4.31,2.94a79.87,79.87,0,0,1-20,6.2,17.67,17.67,0,0,1-2.15-1.06,11.46,11.46,0,0,1,1.6-2.6,158.51,158.51,0,0,1,18.09-6.4Z"/><path class="cls-4" d="M881.74,536.89c5.76,1.85,14.33,9.8,20,19.84a6.46,6.46,0,0,1-1.25-.75,203.68,203.68,0,0,1-20.09-18.33c.05,0,.07-.19.07-.47A7.67,7.67,0,0,1,881.74,536.89Z"/><path class="cls-4" d="M990.82,813.81a11.76,11.76,0,0,1,4.49,2.31c1.49,1.45,2.73,3.47.15,9Zm-12.53,8.42a11,11,0,0,1,0-5.54,5.57,5.57,0,0,1,3.1-3.37c1.17-.57,3.86-.72,6.86-.14Z"/><path class="cls-4" d="M532.53,119.71a5.7,5.7,0,0,1-1.07,1.72c-2.89,2.6-6.06,5-9.21,7.39l-4.62,3.55a24,24,0,0,0-2.34,2.16c-.3.28-.66.67-1,.94-2.25.17-4.59.2-6.93.16a16.59,16.59,0,0,1,3.78-4.57c4.58-3.41,10.19-6,15.63-8.6C528.73,121.55,530.65,120.64,532.53,119.71Z"/><path class="cls-4" d="M940,870.72a10.79,10.79,0,0,1,.62,3.43,93.39,93.39,0,0,1-8.81,19.61,13.27,13.27,0,0,1-2.87,2.84,25.89,25.89,0,0,1-2.29-2.78c1-2.14,1.88-4.17,2.75-6.14a150.52,150.52,0,0,1,8.16-16.6C938.18,871,939.2,870.81,940,870.72Z"/><path class="cls-4" d="M374,162.74a192.06,192.06,0,0,1-13.86,22.39,13.79,13.79,0,0,1-4,3.12c-.64-1.13-1-1.91-1.28-2.41,5.63-7.36,12.2-15.16,18.57-22.69l.79-.94A5.13,5.13,0,0,1,374,162.74Z"/><path class="cls-4" d="M394.78,176.8c-5.08,7.45-10.18,14.88-15.51,22.12-.25-.05-.54-.11-.81-.17C384.32,190.47,389.62,183.35,394.78,176.8Z"/><path class="cls-4" d="M867.32,593.22c2.44,1.85,4.81,3.75,7,5.75a1.84,1.84,0,0,1,.29.53C872.19,597.44,869.76,595.35,867.32,593.22Z"/><path class="cls-4" d="M370.33,626.81c6.68,3.83,7.26,15.08,6.49,24.21C373.06,645.63,370.71,637,370.33,626.81Z"/><path class="cls-4" d="M219.83,205.08c2.32,4.57.86,6-2.3,8.35-3,2.23-4.25,5.69-5.26,8.47a13.81,13.81,0,0,1-1.67,3.65,10.79,10.79,0,0,1-4.24,1.81,13.88,13.88,0,0,1-.52-3.17,195.35,195.35,0,0,1,12.24-16.88Z"/><path class="cls-4" d="M943.41,411.64c11.35,3.5,24.78,13.43,29.61,22.59-12.65-8.39-24-15.95-35.93-23.85A28.12,28.12,0,0,1,943.41,411.64Z"/><path class="cls-4" d="M49.16,343.28a113.48,113.48,0,0,1-4,17.74,9.13,9.13,0,0,1-1.72,2.59,22.24,22.24,0,0,1-2.28-1.19c2.59-7.27,5.48-14.59,8.37-21.77C49.42,341.53,49.31,342.42,49.16,343.28Z"/><path class="cls-4" d="M663.91,324.83l-.13-.14c.06-.17.14-.35.21-.53,3-.59,6.09-1.16,9.2-1.72C670.11,323.25,667,324.06,663.91,324.83Z"/><path class="cls-4" d="M41.9,810.48c1.87.58,5.23,3.27,7.54,14.6-3.4,1-6.54,1.75-8.41,1.16-.5-.15-2-.62-3.27-5-.27-1-.68-2.13-1.11-3.33-.61-1.69-1.8-5-1.37-5.85,0,0,.38-.7,2.66-1.35A6.91,6.91,0,0,1,41.9,810.48Z"/><path class="cls-4" d="M515.44,212.59a110.31,110.31,0,0,1-10.14,12.6c-2.09,2.11-5,3.76-8.17,5.47.74-2.64,1.43-4.67,2.46-5.73A80.11,80.11,0,0,1,515.44,212.59Z"/><path class="cls-4" d="M341.72,134.41c-1.11,2.21-2.17,4.31-3.27,6.4a98.63,98.63,0,0,1-7.07,11.74,14.74,14.74,0,0,1-1.84,2.1,5.27,5.27,0,0,1-1-1.27c-.29-1.51.89-5.43,4.31-10.06A43.39,43.39,0,0,1,341.72,134.41Z"/><path class="cls-4" d="M822.64,274.27l-6.94,1.47c11-7.83,27.93-11.07,37.95-8Q838.16,271,822.64,274.27Z"/><path class="cls-4" d="M282.35,716.67a4.8,4.8,0,0,1,1.3.8c3.47,5.67,6.58,11.94,9.6,18l2.54,5.06s-1,1-1.42,1.47l-.8-1.46c-4.19-7.35-8.43-14.8-11.47-22.37A6.23,6.23,0,0,1,282.35,716.67Z"/><path class="cls-4" d="M229.46,741.45c3.79,5.22,7.42,10.66,11,16.54l-.31.2c-4.09-4.7-8.15-9.8-12.75-15.59Z"/><path class="cls-4" d="M887.15,415.27q22.41,7.89,44.79,15.87l-1.48,3.66-44.14-17.35Z"/><path class="cls-4" d="M299.53,612.3c-3.23-2.69-4-6.86-4.89-13.18a48.83,48.83,0,0,0-2.22-10.26c.25-.32.7-1,1.34-1.89Z"/><path class="cls-4" d="M843.94,243.42c-7,3.39-13.34,5.68-20.11,6.42C830.26,244,837.46,241.67,843.94,243.42Z"/><path class="cls-4" d="M798.36,291.47a179.58,179.58,0,0,1-17.27,5.63,9,9,0,0,1-3.07-2.75c.14,0,.49-1,.81-1.78l1.49-.24c6.3-1.42,12.07-2.73,17.55-1Z"/><path class="cls-4" d="M550.83,146.3A167.52,167.52,0,0,1,534,158.57a9.86,9.86,0,0,1-2.9,1.08,17.09,17.09,0,0,1,.31-2.25A175.48,175.48,0,0,1,550.83,146.3Z"/><path class="cls-4" d="M746.17,330.19a5.07,5.07,0,0,1-.76,1.26c-1.1.78-6.69,1.88-13.82,2.42Z"/><path class="cls-4" d="M957.8,389.41a180.17,180.17,0,0,1,21,13.74c0,.19.16,1.21.3,2.22l-2.21-1.62C970.5,399,964.07,394.29,957.8,389.41Z"/><path class="cls-4" d="M860.06,158.72a66.31,66.31,0,0,1-15.46,7.93A64.36,64.36,0,0,1,860.06,158.72Z"/><path class="cls-4" d="M799.25,470a8.84,8.84,0,0,1,2.57,1.73,26.81,26.81,0,0,1-6.08-.22,97.28,97.28,0,0,1-11.17-2.71,79.94,79.94,0,0,1-8.72-3.24,4.91,4.91,0,0,1-1.25-.89,4,4,0,0,1,.68,0,131.77,131.77,0,0,1,21.66,4.58Z"/><path class="cls-4" d="M672.79,278.87a34.51,34.51,0,0,1-18,8.35A37.42,37.42,0,0,1,672.79,278.87Z"/><path class="cls-4" d="M291.27,136.58c2.42,1.25,4,2.74,4.43,3.69-.06.21-.68,2.64-3.74,6.6a33,33,0,0,1-9.69,8.64l.88-2.26c1.9-4.79,3.47-8.8,5.4-12.57A26.12,26.12,0,0,1,291.27,136.58Z"/><path class="cls-4" d="M951,501.86a7.8,7.8,0,0,1,1.48.6c3.57,2,6.78,6,10.05,10.33a10,10,0,0,1,1,1.74,8.46,8.46,0,0,1-2.33-.23c-4.78-3.36-9-7.79-13.14-12.08l-1.06-1.1A22,22,0,0,1,951,501.86Z"/><path class="cls-4" d="M210.48,600.91c.56,2.11,1,4.31,1.52,6.54.37,1.73.75,3.46,1.13,5.21-.07-.11-.11-.22-.17-.32a21.43,21.43,0,0,1-1.73-4.31A40,40,0,0,1,210.48,600.91Zm4.9,22.58c.34,1.66.69,3.35,1,5.1C215,627.92,214.72,626.9,215.39,623.49Z"/><path class="cls-4" d="M442.15,300.63A133.19,133.19,0,0,1,434.57,316c-.49.11-1.53.28-2.53.38a20.4,20.4,0,0,1-1.58-5.44C433.59,307.23,437.75,304,442.15,300.63Z"/><path class="cls-4" d="M77.27,547.15c-1-4-2-7.94-2.67-11.85l.07-.08C75.53,539.1,76.4,543.1,77.27,547.15Z"/><path class="cls-4" d="M746.06,214.11c-5.8,5.22-11.42,8.15-16,8.3Z"/><path class="cls-4" d="M563.11,277.1c-5.08,3-9.88,5.72-14.78,8.34a2.27,2.27,0,0,1-.57.06,6.16,6.16,0,0,1,.24-1.3C548.73,282.16,555.32,278.57,563.11,277.1Z"/><path class="cls-4" d="M222,388.25a4.27,4.27,0,0,1,1,.41c.13.38.27,4-.65,5.72a58.9,58.9,0,0,1-6.72,9.39,33.54,33.54,0,0,1-.22-8.67c.52-3.32,2.39-6.53,3.81-7.47,0,0,0,.07.06.09A23,23,0,0,1,222,388.25Z"/><path class="cls-4" d="M182.73,613.25a7.18,7.18,0,0,1,1.48,1.2,136.15,136.15,0,0,1,4.16,16.42l1,4.56c-2.62-1.33-3.91-2.53-4.09-2.93a43.54,43.54,0,0,1-3.91-16.31A9.22,9.22,0,0,1,182.73,613.25Z"/><path class="cls-4" d="M206.9,882.95c.7.22,1.08,1.73,1.52,6a39,39,0,0,0,1.19,7.18c-3.19,1.57-4.75,1.51-5.43,1.31-1.06-.33-2.15-1.86-3.07-4.32l-.52-1.4c-.71-1.84-2.33-6.08-1.75-7.17.11-.2.81-.79,2.8-1.25C205,882.54,206.44,882.8,206.9,882.95Z"/><path class="cls-4" d="M374.83,715.31c4.88,4.79,11.23,11.59,11,14.81a4.93,4.93,0,0,1-1.6,2.7C377.94,723.11,375.42,718.51,374.83,715.31Z"/><path class="cls-4" d="M577.83,133l-1.39-1.42.72-1.62c1-2.25,1.92-4.37,3.27-5.49A178.37,178.37,0,0,1,600.22,110Q589,121.5,577.83,133Z"/><path class="cls-4" d="M935.17,346.53a55.11,55.11,0,0,1,19.74,10.94l-2.13-.34c-6.72-2.07-13.13-4.52-17.71-10.63Z"/><path class="cls-4" d="M275.23,187c-3.52,3.68-7.14,7.36-10.87,10.84a16.92,16.92,0,0,1-3.37-2,12.84,12.84,0,0,1,1-2.41C265.94,191.27,270.52,189.12,275.23,187Z"/><path class="cls-4" d="M312.08,634.69c1.37,1.26,3,2.8,3.21,3.44a196.26,196.26,0,0,1,5.84,23.62l-.12,0a191.88,191.88,0,0,1-10.09-25.35C311.15,636,311.64,635.33,312.08,634.69Z"/><path class="cls-4" d="M539.8,890.36a226.91,226.91,0,0,1,22.41,10,2.77,2.77,0,0,1,.38.58,5,5,0,0,1-1,.13l-1.2-.33a18.33,18.33,0,0,1-1.79-.68c-1.27-.54-2.2-.95-3.13-1.26l-3.66-1.28-1,1.21-1.19-.87C546.35,895.46,542.93,893,539.8,890.36Z"/><path class="cls-4" d="M447.95,787.19a8.76,8.76,0,0,1,2.77,1.26l.18,1c.39,1.09.77,2.2,1.21,3.31q-2.21-2.63-4.47-5.33Z"/><path class="cls-4" d="M694.33,342.66l-4.72.74c-9.45,1.49-18.91,3-28.41,4.16a6.3,6.3,0,0,1-1.51-2.38,5.14,5.14,0,0,1,1.51-2.38c9.48-1.52,19.37-2.76,29.21-4l3.34-.42Z"/><path class="cls-4" d="M389.46,320l-.77-.62c2.08-10.55,14-23.86,26.7-28.46C405.88,301.62,397.61,310.89,389.46,320Z"/><path class="cls-4" d="M528.79,235.65a30.52,30.52,0,0,1-2.86,3.5c-.28.22-1.58.73-4.26.86.83-.62,1.73-1.24,2.67-1.89,0,0,4.15-2.92,5.49-3.85C529.46,234.75,529.11,235.21,528.79,235.65Z"/><path class="cls-4" d="M744.2,305.1c-3,2-6.74,2.67-11.18,3.5-2.17.4-4.51.84-6.89,1.48a11,11,0,0,1,3.06-3.55C732.7,304,738,303.45,744.2,305.1Z"/><path class="cls-4" d="M653.09,940.21c-7.12,2.36-18.15,2.46-23.89.69a5.49,5.49,0,0,1-2.45-1.18,37.66,37.66,0,0,1,1-3.83c.08-.32.18-.61.28-.93Z"/><path class="cls-4" d="M630.25,299.53a28.85,28.85,0,0,1-6.07,7.53c-2.53,2.15-4.32,2.59-4.91,2.52a5.8,5.8,0,0,1-2.36-2.08,8.47,8.47,0,0,1,.31-1.9C621.17,303.51,625.46,301.6,630.25,299.53Z"/><path class="cls-4" d="M362.92,796.09c2,5.05,3.61,9.29,5,13.34-2.54-3.9-5.07-7.85-7.3-11.81.6-.51,2.2-1.82,2.2-1.82Z"/><path class="cls-4" d="M757,352.74a9,9,0,0,1-3.08,1.13l-2,.18c1.32-.59,2.48-1.11,3.66-1.58h0A8.84,8.84,0,0,1,757,352.74Z"/><path class="cls-4" d="M254.67,126.3a114.75,114.75,0,0,1-3.38,14.26,8.47,8.47,0,0,1-4.08,2.68h0a7.26,7.26,0,0,1-1.46-.28l-.23-.08a20.08,20.08,0,0,1,1.33-3.28A101,101,0,0,1,254.67,126.3Z"/><path class="cls-4" d="M418,108.19c.23,2.85-.63,5.44-2.77,8.31-1.48-1.6-3.19-3.48-4.64-5.08Z"/><path class="cls-4" d="M371.71,294.72c-5.21,6.94-10.63,13.62-16.06,20.3l-.36.44-.65-.65c-.81-.83-1.91-2-2.6-2.75a225.55,225.55,0,0,1,14.46-19.13c.15-.07,2.45-.63,2.77-.71C369.57,292.54,371.28,294.26,371.71,294.72Z"/><path class="cls-4" d="M425,180.59c-3.17,7.84-4.94,11.14-9.51,11.77-.15-.3-.32-.6-.46-.9,3.37-4.49,7.15-8.81,10.83-13l0,0C425.64,179.1,425.33,179.85,425,180.59Z"/><path class="cls-4" d="M256.26,300c-.17,1.62-.47,3.27-.78,5l-.39,2.25-3.95,4.82-2.86-6.59,1.18-1c2.32-2.06,4.3-3.84,6.07-4.59,0,0,0,0,.06,0A5.42,5.42,0,0,0,256.26,300Z"/><path class="cls-4" d="M229.13,870.73a11.63,11.63,0,0,1,2.51,4.26c1,3.06,1.85,6.32,2.59,9.56l-.15-.15c-2.74-2.74-5.78-5.92-7.39-9.18a11.22,11.22,0,0,1-1-4.25,7.13,7.13,0,0,1,3.38-.27Z"/><path class="cls-4" d="M306.63,340.59a19.34,19.34,0,0,1,2,4.2c-.61,1.66-2.54,3.73-4.79,6l-2.95-5.87Z"/><path class="cls-4" d="M916.15,479.26c7.5,2.32,12.54,6.77,15,13.27,0,0-19.79-10.46-28.5-15A44.68,44.68,0,0,1,916.15,479.26Z"/><path class="cls-4" d="M909.95,240c-.19.4-.37.79-.56,1.2a12.41,12.41,0,0,1-1.35,2.54c-10,2.61-20.89,5-31.91,7.08a8.52,8.52,0,0,1-2.68-1.91A6.37,6.37,0,0,1,874.6,247c9.89-2.22,20.39-4.38,30.89-6.53l4.29-.88Z"/><path class="cls-4" d="M262,809.76c2.86,1.79,7,4.64,7.72,7,.49,1.49-.37,4.36-1.3,7.06-1.71-3.55-3.32-7.15-4.93-10.76C263.4,812.87,262.71,811.32,262,809.76Z"/><path class="cls-4" d="M962.68,583.14c4.94,6.51,9.88,13.64,14.65,20.56l.33,1,0,.05-.21-.05a4,4,0,0,1-1.22-.56A221.57,221.57,0,0,1,962.68,583.14Z"/><path class="cls-4" d="M250.75,780.34a113.49,113.49,0,0,1,5.48,11c-2.52-2.93-5.06-6.14-8-9.92l0,0Z"/><path class="cls-4" d="M705.36,287.76a5.52,5.52,0,0,1-1,.86,161.64,161.64,0,0,1-20.9,9.9,4.78,4.78,0,0,1-1.55.26c6.09-3.09,12.35-6,18.89-9.07l4.45-2.08Z"/><path class="cls-4" d="M452,147.14c-6.65,13.22-9.13,12.45-10.93,11.89-.3-.1-.59-.2-.92-.34l.33-.35a162.33,162.33,0,0,1,11.64-11.75A2.89,2.89,0,0,1,452,147.14Z"/><path class="cls-4" d="M848.16,414.47l-.3,0a12.27,12.27,0,0,1-2,.11c-1.2-.47-2.42-1-3.65-1.52a18.48,18.48,0,0,1,4.07.7S847.7,414.28,848.16,414.47Z"/><path class="cls-4" d="M108.33,773.79a73.72,73.72,0,0,1,3.64,8.42c-1,.48-2.17,1-3.11,1.38-1.48-3-2.85-5.87-3.92-8.72l3-1.87Z"/><path class="cls-4" d="M355,729.08c1,.46,1.86,1.92,2.37,3.87a17.23,17.23,0,0,1,.17,7.33,92,92,0,0,1-6.82-10c0-.13.06-.85.16-1.49a9.67,9.67,0,0,1,3.77.16Z"/><path class="cls-4" d="M507.27,899.1c4.51,2.67,8.56,5.06,12.28,7.53a22.34,22.34,0,0,1-4.14-.75,9,9,0,0,1-1.44-.59C511.56,904,509.37,901.69,507.27,899.1Z"/><path class="cls-4" d="M479.26,268a72.73,72.73,0,0,0-7.23,6.47c-5.39,5.24-10.14,9.9-18.19,10.45C461.42,274.89,471,268.55,479.26,268Z"/><path class="cls-4" d="M858.61,489.5c2,1.85,4.05,3.8,6,5.78-2.72-1.63-5.42-3.32-8.06-5.06,0-.16,0-.34,0-.51A11.82,11.82,0,0,1,858.61,489.5Z"/><path class="cls-4" d="M509.29,101.23l-4.08,2.61c-7.17,4.61-14.34,9.22-21.66,13.55a5.78,5.78,0,0,1-2.17-1.32,7.41,7.41,0,0,1,.5-3.85c7-3.69,14.7-7.36,22.18-10.91l4.09-2Z"/><path class="cls-4" d="M752.5,479.28a27.64,27.64,0,0,1-23.06,3.44,21,21,0,0,1-6.19-3l.06-1Z"/><path class="cls-4" d="M177,771.16a26.43,26.43,0,0,1,4.74,7.9c-.58.46-1.25,1-1.84,1.4l-6.27-7.75.11-.05C174.81,772.14,176,771.57,177,771.16Z"/><path class="cls-4" d="M480.06,785.83c4.77,5.34,9.85,11.3,15.45,18.17.07.16.28,1,.45,1.71,0,.12.06.28.1.42l-1,.06a18.69,18.69,0,0,1-4.23-.05c-4.14-5.72-7.83-12.65-11.41-19.38l-.17-.32Z"/><path class="cls-4" d="M484.25,158.79a44.44,44.44,0,0,1-5.78,7.3,26.68,26.68,0,0,1-3.18-.27c0-.76-.14-2.43-.12-3.52A59.54,59.54,0,0,1,484.25,158.79Z"/><path class="cls-4" d="M492.58,391c-1.34,1.27-2.76,2.52-4.2,3.73,1.22-1.4,2.52-2.88,3.93-4.48C492.4,390.55,492.49,390.81,492.58,391Z"/><path class="cls-4" d="M321.68,249.76a62,62,0,0,1-6.06,5.39c-.51-.67-1.07-1.46-1.39-2,.69-1.71,2.48-3.89,4.66-6.56l.38-.46S321.13,248.9,321.68,249.76Z"/><path class="cls-4" d="M460.92,476.9c-.38-6.8,1-12.34,4.22-16.19a16.31,16.31,0,0,1,10-5.6Z"/><path class="cls-4" d="M142.58,869.1l-3.45,13.4c-1.76-3.72-3.43-7.23-3.3-10,.06-1.1,2.66-3.94,4.26-5.69Z"/><path class="cls-4" d="M235.73,679.38a14.74,14.74,0,0,1,4.5,9.31c-2.52-2.84-5-5.75-7.16-8.74,0-.2,0-.42.05-.67a7.42,7.42,0,0,1,2.57.08Z"/><path class="cls-4" d="M790.25,111.41a3.58,3.58,0,0,1,1,1.6c.09,1.23-1.43,4-3.06,5a94.07,94.07,0,0,1-16.1,7.36,5.13,5.13,0,0,1-2.67-.12,5,5,0,0,1-1.57-2.48c6.17-3.37,12.45-6.48,19.26-9.87Z"/><path class="cls-4" d="M431.13,942.55c1.8,1.56,3.47,3.13,5.07,4.78a6.35,6.35,0,0,1,1,1.61,1.82,1.82,0,0,1-.22.1C435,946.92,433.05,944.75,431.13,942.55Z"/><path class="cls-4" d="M893.08,495.12c3.69,1.71,7.36,3.51,10.92,5.39a14.53,14.53,0,0,1-.24,1.79l-.42.11C899.92,500.14,896.45,497.65,893.08,495.12Z"/><path class="cls-4" d="M165.47,741c1.43,3.34,2.55,6,3.35,8.39-.38.22-.77.43-1.13.61a27.47,27.47,0,0,1-5-6.48C163.45,742.81,165.47,741,165.47,741Z"/><path class="cls-4" d="M94.63,860.78c1.44,3,2.22,6.3-.19,10.28l-1.8-10.18C93.32,860.82,94,860.79,94.63,860.78Z"/><path class="cls-4" d="M502.41,322.55c-3,4-5.55,6.92-8.67,8.27C496.62,328,499.47,325.24,502.41,322.55Z"/><path class="cls-4" d="M395,749.41c1.81,4,3.43,7.65,4.86,11.15-.44-.84-.89-1.75-1.34-2.68-.53-1.12-1.08-2.25-1.67-3.33a38.21,38.21,0,0,0-2.42-3.73c-.27-.36-.75-1-1.15-1.67.35-.3.76-.62,1.2-1Z"/><path class="cls-4" d="M730,76.81c-.67.77-1.33,1.56-2,2.34-2.49,3-4.85,5.77-7.58,6.9-3.48,1.5-7.67,1.64-12.11,1.8-.7,0-1.41,0-2.12.08,5.86-3.23,22.66-12.54,22.66-12.54Z"/><path class="cls-4" d="M49.93,846.7a13.05,13.05,0,0,1,4.9,3.28c-3.17.19-6.36.36-9.5.32a28.78,28.78,0,0,1-.24-3A6,6,0,0,1,49.93,846.7Z"/><path class="cls-4" d="M447,197c.47,1,1,2.22,1.32,3a134,134,0,0,1-10.58,9.2l-1.6,1.32-.26-.41c-.57-.89-1.43-2.27-1.85-3.11a97.8,97.8,0,0,1,9.61-9.92l2.38-2.26C446.37,195.55,446.71,196.28,447,197Z"/><path class="cls-4" d="M862.21,435.75c8.59,4.32,16.87,9,26,14.25,0,.32.09,1.42.1,1.57l-4.52-1.85c-8.67-3.53-16.52-6.74-24.26-10.27.39,0,.21-1.93.45-2.53A6.49,6.49,0,0,1,862.21,435.75Z"/><path class="cls-4" d="M219.71,712.9a46.67,46.67,0,0,1,3.27,8.46c-.24.14-.5.29-.77.47a54.78,54.78,0,0,1-2.8-8.44C219.5,713.25,219.6,713.09,219.71,712.9Z"/><path class="cls-4" d="M365.21,860.39c1.88,2,3.78,4.39,6,7.22-.73.29-1.39.53-2,.74a44,44,0,0,1-4.55-7.64Z"/><path class="cls-4" d="M788.16,404a22,22,0,0,1,2.32.87,14.29,14.29,0,0,1-5.17,1h0a10,10,0,0,1-2.21-1.09,6.43,6.43,0,0,1,2.57-1.2A8.48,8.48,0,0,1,788.16,404Z"/><path class="cls-4" d="M29.92,160.67c.46.88,1.43,2.73,1.29,3.23,0,0-.51.84-4,1.44-3,.48-3.85,3.73-5.17,8.69-.21.72-.42,1.5-.64,2.28l-8.75-6.91,17.09-9.05C29.8,160.46,29.86,160.56,29.92,160.67Z"/><path class="cls-4" d="M589,642.67a44.88,44.88,0,0,1,3.49,6,42.11,42.11,0,0,1-5.21-4.9c0-.11,0-.54-.06-1C587.82,642.68,588.49,642.66,589,642.67Z"/><path class="cls-4" d="M677.56,937.85a51.26,51.26,0,0,1-6.44,3c-.37-.4-.77-.84-1.14-1.27a35,35,0,0,1,6.6-3.06C676.88,936.87,677.23,937.37,677.56,937.85Z"/><path class="cls-4" d="M782.79,349.58c-1.22.23-2.41.42-3.6.55-.14-.17-.3-.39-.5-.63C780,349.51,781.4,349.53,782.79,349.58Z"/><path class="cls-4" d="M6.05,179.88c1.41,9.57,1.1,14.68-1,16.93-1.21,1.32-3.43,2-6.88,2.07l7.07-19.41Z"/><path class="cls-4" d="M310.18,179.39c.58,1.14,1.21,2.37,1.53,3.15a127.26,127.26,0,0,1-9.63,9.63l-2,1.88c-.33-.46-.7-1-.93-1.39,2.17-3.95,4.77-7.82,8-12.65l1.9-2.86Z"/><path class="cls-4" d="M269.23,277.25c-2.65,1.49-4.8,2.66-6.76,3.54-.23-.4-.49-.82-.7-1.24a23,23,0,0,1,5.79-4C268.08,276.07,268.67,276.68,269.23,277.25Z"/><path class="cls-4" d="M853.8,325.78l-4.57.52c-6.74.8-13.7,1.62-20.49,1.89a9.49,9.49,0,0,1-1.86-2.84,6.91,6.91,0,0,1,2.33-2.29c6.56.37,13.6,1.2,20.38,2l4.19.48Z"/><path class="cls-4" d="M631,71.07l-2.43,2.58c-3.95,4.24-8,8.62-12.32,12.52l-.74-.2c-.68-.21-1.42-.49-2.15-.78-.2-.07-.4-.14-.59-.22,0-.21.07-.41.11-.61.21-1.23.6-3.52,1.1-3.92a115.54,115.54,0,0,1,12.32-7.49c1.4-.76,2.77-1.53,4.14-2.31Z"/><path class="cls-4" d="M434.65,122.79c2.12,2.82,2.91,5.24,2.39,7.23s-2.83,4.9-10.09,7.81Z"/><path class="cls-4" d="M16.57,266.8c-3.81.87-7.6,1.76-11.4,2.64l1-8.34,10.3,1.32C16.52,263.89,16.56,265.33,16.57,266.8Z"/><path class="cls-4" d="M531.59,300.91A92.46,92.46,0,0,1,520,309c-.47-.69-1.23-1.72-1.85-2.58,2.67-2.67,5.59-5.23,9.16-8.35l1.83-1.6C529.53,297.07,531.2,300.13,531.59,300.91Z"/><path class="cls-4" d="M306.29,889.29a39.8,39.8,0,0,1,2.12,3.84,16.48,16.48,0,0,1-2.67,1.8,16,16,0,0,1-2.63-3.88c.79-.53,3.06-2,3.06-2Z"/><path class="cls-4" d="M192.13,803.56c-2.49.93-4.41,1.62-6.11,2.07-.08-.19-.15-.37-.23-.55a32.06,32.06,0,0,1,5.72-2.18C191.7,803.09,191.92,803.33,192.13,803.56Z"/><path class="cls-4" d="M230,188.11c-.82-1.67-1.74-3.68-1.69-4.43a39.86,39.86,0,0,0,4.33-1.66Z"/><path class="cls-4" d="M247.86,707.28c2.31.89,4,2.54,3.83,8.45C248.6,714.76,247.13,714.05,247.86,707.28Z"/><path class="cls-4" d="M707.6,936.2l-1.55.92a44,44,0,0,1-8.15,4.13c-.46-.61-2.5-3.46-2.71-3.76l9.32-6.92Z"/><path class="cls-4" d="M794.69,169.16a16.54,16.54,0,0,1,1.89.75c-5.29,3.08-10.27,6-15.19,8.9,1.67-4.46,3.86-7.55,6.44-9.07A8.21,8.21,0,0,1,794.69,169.16Z"/><path class="cls-4" d="M473.42,349.67c-1.17,1-2.39,1.87-3.65,2.76l-.32-.38C470.85,351.19,472.17,350.41,473.42,349.67Z"/><path class="cls-4" d="M7.1,489.67a39.93,39.93,0,0,1,5.7,8c.94,2,1.11,4.62,1.28,7.4,0,.5.08,1,.12,1.49-.3,0-.59.1-.88.16,0,0-6.87-12.62-9.31-17l1.81-1.53Z"/><path class="cls-4" d="M345.22,769.32c2.15,1.61,4.24,3.4,6.29,5.18l-.75.74-2,.77C347.56,773.93,346.36,771.69,345.22,769.32Z"/><path class="cls-4" d="M784,898.95c-.33-4,.07-6.49,1.24-7.68,1.57-1.59,5.44-1.79,9.91-1.46Z"/><path class="cls-4" d="M959.06,161.45a16.12,16.12,0,0,1,.84,3.27c-.37.56-1.73,2.07-5.27,4-.39-.46-.76-.95-1.05-1.35a50.9,50.9,0,0,1,3.53-3.94c.61-.64,1.23-1.29,1.82-1.94Z"/><path class="cls-4" d="M987.7,571.7c2.4,2.26,4.73,5,7.6,8.23l1.52,1.72c-.68.31-3.85,1.79-4.6,2.11a99.27,99.27,0,0,1-6.37-8.92l-.8-1.2.28-.2C986,572.93,986.94,572.22,987.7,571.7Z"/><path class="cls-4" d="M588,906a8.42,8.42,0,0,1-3.3,1.24c0-.14-1.3-1.55-1.86-2.44a15.88,15.88,0,0,1,2-3.27Z"/><path class="cls-4" d="M506.58,247.45c.38,1,.84,2.14,1.1,2.94a52.07,52.07,0,0,1-10.31,6.38c-.44-.67-1.22-1.79-1.86-2.73,2.8-2.42,6-4.91,9.92-7.92l.49-.37C506.15,246.34,506.38,246.91,506.58,247.45Z"/><path class="cls-4" d="M928.9,733.52,924.75,737l-.32-.79c-1.44-3.55-2.79-6.88-3.19-10.21a32.76,32.76,0,0,0,2.75-2.1Z"/><path class="cls-4" d="M737.15,160.77a26.07,26.07,0,0,1,3,1.75l.8.51-2.8,1.64c-4.34,2.58-7.48,4.43-10.73,5.34-.11-.22-1.66-1.7-2.65-2.65l.86-.51A93.44,93.44,0,0,1,737.15,160.77Z"/><path class="cls-4" d="M257.8,726.82c1.19.67,3.18,1.78,3.39,2.44,1,2.81,1.1,6,1.25,9.39,0,.46,0,.94.06,1.41,0,0-1.61.12-2.31.14a77.57,77.57,0,0,1-3.53-13.73.18.18,0,0,0,.1.15c.08,0,.23-.05.38-.17Z"/><path class="cls-4" d="M633.72,962.06a11.75,11.75,0,0,1,5,3.21c-4.29,1.51-8,1.76-11.19.76a15,15,0,0,1-5.55-3.24C626.19,961.76,630.16,961,633.72,962.06Z"/><path class="cls-4" d="M457,112.28l-12-1.37s.31-2.95.43-3.85c4.05.15,8.05.65,12,1.13l.08,0Z"/><path class="cls-4" d="M826.39,476.54c4.73,1.91,9.45,4.38,14,6.77l2,1c-.06.1-.12.2-.19.3-1.18-.22-2.35-.46-3.54-.67a104.1,104.1,0,0,1-11.51-2.61l-1.45-.48a12.2,12.2,0,0,1-1.67-3c-.06-.1-.1-.2-.15-.3A12.62,12.62,0,0,1,826.39,476.54Z"/><path class="cls-4" d="M392.91,938.47c2.93,3.14,5.66,6.42,8.75,10.11l1.44,1.71L400,951.88c-2.7-3.87-5.18-7.88-7.67-11.91l-.5-.79Z"/><path class="cls-4" d="M512.22,928.17a30.34,30.34,0,0,1,2.6,2.93,16.58,16.58,0,0,1-3.16,1.24c0-.2-1-1.63-1.43-2.63A13.55,13.55,0,0,1,512.22,928.17Z"/><path class="cls-4" d="M538.41,952.88,536.66,954l-1.38-1.93c-2.47-3.45-4.8-6.72-6.86-10.19.54-.55,1.28-1.21,1.82-1.71Z"/><path class="cls-4" d="M359.62,921.82a12.61,12.61,0,0,1,1.46,2.54,13.63,13.63,0,0,1-1.81,1.52c-.7-.78-1.65-2-2.51-3.06A24.44,24.44,0,0,1,359.62,921.82Z"/><path class="cls-4" d="M388.56,81.63c1.07.33,2.72,1.28,5,3.81l-11.14,5.33c-.21-2-.41-4.15.17-5.1C385.6,80.72,387.68,81.36,388.56,81.63Z"/><path class="cls-4" d="M328.25,679.13a79.58,79.58,0,0,1,4.12,8.67c-.64.51-3.46,2.57-4,3-.3-.71-.57-1.4-.84-2.07a82.92,82.92,0,0,1-3.37-9.14c.84-.41,3.26-1.49,3.52-1.61Z"/><path class="cls-4" d="M398.57,138.46a50.45,50.45,0,0,1-7.09,7.88c-.94.76-3,1-4.91,1.21l-.11,0c0-.18,0-.36,0-.53a17,17,0,0,1,.15-4.27,75.06,75.06,0,0,1,11.88-5.11l1-.38Z"/><path class="cls-4" d="M345.16,706c.66.87,1.43,2.12,2.16,3.32l-1.09.48a28.1,28.1,0,0,1-2-3.15C344.56,706.39,344.88,706.17,345.16,706Z"/><path class="cls-4" d="M367.71,105.15a23,23,0,0,1,2,3.37,32.15,32.15,0,0,1-8.33,5.38c-.53-.61-3.57-4.34-4.15-5.06l2.51-1A41.34,41.34,0,0,1,367.71,105.15Z"/><path class="cls-4" d="M768.55,223.74l-15.23,8.09L752,229.29c2-6.44,6.34-6.62,13.7-6.4l2.42.06Z"/><path class="cls-4" d="M277,900.7a29,29,0,0,1-3.1,1.51c-.27-.41-.54-.84-.8-1.24,1.2-.65,2.39-1.29,3.29-1.68C276.56,899.66,276.75,900.13,277,900.7Z"/><path class="cls-4" d="M856.7,135.1c-.26,1.9-.59,3.73-1.41,4.7-3.59,4.12-5.64,3.48-6.31,3.28-1-.32-2.6-1.29-4.52-3.93C848.79,137.71,852.79,136.38,856.7,135.1Z"/><path class="cls-4" d="M414.37,785.84c-2.85-1.87-5.69-3.77-8.52-5.65l.29-1.18,7-1.42Z"/><path class="cls-4" d="M804.43,258.18c-3.88,1.18-7.81,2-11.95,2.88l-2,.42L790,259s10-1.87,14.4-2.68C804.42,256.93,804.44,257.62,804.43,258.18Z"/><path class="cls-4" d="M41.17,146.59a7.14,7.14,0,0,1,.79.89,18.23,18.23,0,0,1-3.81,2.25,5.11,5.11,0,0,1-1.27.37,8.79,8.79,0,0,1,.67-3.51.1.1,0,0,0,.09.07C38,146.79,39.8,146.48,41.17,146.59Z"/><path class="cls-4" d="M845.5,431.3,830.08,429a2.05,2.05,0,0,0,.13-.18q7.68.8,15.4,1.7C845.58,430.75,845.54,431,845.5,431.3Z"/><path class="cls-4" d="M834.09,148.58c-4.31,2.48-8.64,4.95-13,7.25-.3-.52-.61-1.1-.94-1.66L833.16,147Z"/><path class="cls-4" d="M678,968.18A21.27,21.27,0,0,1,670.2,972a30.29,30.29,0,0,1-2.3-3.47,46.41,46.41,0,0,1,6-4.82l1.34-1C675.69,963.64,677.58,967.36,678,968.18Z"/><path class="cls-4" d="M332.83,186.21l-6.55,10.86-2.55-1.62.66-.94c2.23-3.26,4.36-6.36,6.71-9.26Z"/><path class="cls-4" d="M981.69,528.65a43.2,43.2,0,0,1,5.16,7.61c.25.43.5.87.75,1.3-.15.11-1.92,1.27-2.59,1.68-2.21-2.32-4.36-5-7.19-8.62l-.85-1.06,1.36-.28A30.07,30.07,0,0,1,981.69,528.65Z"/><path class="cls-4" d="M775.39,268a8.87,8.87,0,0,1-3.42,2c.25-.09-.44-.92-1.22-1.75a30.6,30.6,0,0,1,3.81-1.59C774.84,267.07,775.14,267.57,775.39,268Z"/><path class="cls-4" d="M784.2,199.48q-6.34.17-12.67.38l-.06-2s8.86-.35,12.68-.49Z"/><path class="cls-4" d="M821,412.31l-11-3c.05-.17.63-2,.84-2.6,3.29.67,6.54,1.6,10,2.57l1,.28Z"/><path class="cls-4" d="M583.25,927.27c2,.6,3.6,2.11,5,4.56l-.79,2.16-13.14-3.85.52-1.85C578.4,926.93,581.09,926.6,583.25,927.27Z"/><path class="cls-4" d="M582.59,84.8A16.43,16.43,0,0,1,585,89a13.22,13.22,0,0,1-6.39,4.41c-.61-.59-1.63-1.88-2.42-2.86-.46-.59-1-1.2-1.46-1.83l1.81-1C579.05,86.26,580.94,85.15,582.59,84.8Z"/><path class="cls-4" d="M994.52,382.68c2.9,1.94,5.66,4.07,8.43,6.19l.4.3-1.83,2.43c-2.91-2.19-5.86-4.35-8.8-6.49Z"/><path class="cls-4" d="M511.87,370.73a19.1,19.1,0,0,1,5.17,3.22l-8.88,4.82c.88-5.71,1.87-7.59,2.62-8.08C510.86,370.62,511.08,370.48,511.87,370.73Z"/></g></svg>