<svg id="Calque_1" data-name="Calque 1" xmlns="http://www.w3.org/2000/svg" viewBox="0 0 1000 1000"><defs><style>.cls-1{fill:#fbe206;stroke:#fff;stroke-width:0.46px;}.cls-2{fill:#fff;}</style></defs><title>au-citron-presse-vignette</title><path class="cls-1" d="M343.36,116.61s137.17-20,279.44,84.79c154.31,113.76,274.48,335.52,207,608.76,0,0-271.92,169.6-573.73,0,0,0-22.44-17.51-67.4-10.05,0,0-72.31,7.56-14.95-82.28C173.71,717.84,63.92,368.62,343.36,116.61Z"/><path class="cls-2" d="M374.78,153.69s96.5,19.54,205.28,80.35c0,0,253.5,164.25,214.23,528.43,0,0-141,44.63-262.43-144.62C395.63,405.54,331.91,257.26,374.78,153.69Z"/></svg>