<svg id="Calque_1" data-name="Calque 1" xmlns="http://www.w3.org/2000/svg" viewBox="0 0 1000 1300"><defs><style>.cls-1{fill:#e0e0e0;}</style></defs><title>co-voiturage-thumbnail-plain</title><path class="cls-1" d="M742.75,900.75A348,348,0,0,0,849,650c0-192.75-156.25-349-349-349q-4.48,0-8.94.11c-10.76-25.18-17.65-41-19.06-43.5-9.93-17.87-29.79-11.92-29.79-11.92L263.48,317.2c-29.79,11.92-13.9,39.72-13.9,39.72l.61,1.46a37.51,37.51,0,0,0,1.89,4.53l12.33,29.63A348.08,348.08,0,0,0,151,650c0,192.75,156.25,349,349,349q8.63,0,17.15-.42c8.36,19.91,14.29,34,17,40.28l.64,1.49.11.24.33.76.32.71c9.93,21.85,33.76,9.93,33.76,9.93s147.18-53.73,171-65.65c1-.5,1.93-1,2.81-1.57,2-.88,3.63-1.65,4.91-2.29,23.83-11.92,13.9-35.75,13.9-35.75Z"/></svg>