<svg id="Calque_1" data-name="Calque 1" xmlns="http://www.w3.org/2000/svg" viewBox="0 0 1000 1000"><defs><style>.cls-1{fill:#ffd2a9;}.cls-2{fill:#141414;}.cls-3{fill:#232323;}.cls-4{fill:#544a4d;}.cls-5{fill:#50af32;}.cls-6{fill:#ee7152;}</style></defs><title>co-voiturage-vignette</title><circle class="cls-1" cx="500" cy="500" r="349"/><path class="cls-2" d="M263.48,167.19,442.21,95.7s19.86-6,29.79,11.92S761.95,796.74,761.95,796.74s9.93,23.83-13.9,35.75S569.31,902,569.31,902s-23.83,11.92-33.76-9.93-286-685.15-286-685.15S233.69,179.11,263.48,167.19Z"/><path class="cls-3" d="M266.37,173.95l171-67.63s19.86-6,29.79,11.92S754.23,800.6,754.23,800.6s9.93,23.83-13.9,35.75-171,65.65-171,65.65-23.83,11.92-33.76-9.93-283.08-678.4-283.08-678.4S236.58,185.86,266.37,173.95Z"/><path class="cls-4" d="M353.07,225.45l-32.95,13.87A12,12,0,0,1,304.52,233l-9.9-25A12,12,0,0,1,301,192.35l32.95-13.87a12,12,0,0,1,15.61,6.36l9.9,25A12,12,0,0,1,353.07,225.45Z"/><path class="cls-4" d="M555.64,467.73,522.69,481.6a12,12,0,0,1-15.61-6.36l-9.9-25a12,12,0,0,1,6.36-15.61l32.95-13.87a12,12,0,0,1,15.61,6.36l9.9,25A12,12,0,0,1,555.64,467.73Z"/><path class="cls-4" d="M585.43,537.24l-32.95,13.87a12,12,0,0,1-15.61-6.36l-9.9-25a12,12,0,0,1,6.36-15.61l32.95-13.87a12,12,0,0,1,15.61,6.36l9.9,25A12,12,0,0,1,585.43,537.24Z"/><path class="cls-5" d="M468.26,505.46l-32.95,13.87A12,12,0,0,1,419.71,513l-9.9-25a12,12,0,0,1,6.36-15.61l32.95-13.87a12,12,0,0,1,15.61,6.36l9.9,25A12,12,0,0,1,468.26,505.46Z"/><path class="cls-4" d="M498,575,465.1,588.84a12,12,0,0,1-15.61-6.36l-9.9-25A12,12,0,0,1,446,541.88L478.9,528a12,12,0,0,1,15.61,6.36l9.9,25A12,12,0,0,1,498,575Z"/><path class="cls-4" d="M500.43,644.34l-23.78,10c-4.36,1.84-9.24.21-10.85-3.6l-6.21-15.82c-1.61-3.82.64-8.44,5-10.28l23.78-10c4.36-1.84,9.24-.21,10.85,3.6l6.21,15.82C507,637.88,504.79,642.51,500.43,644.34Z"/><path class="cls-4" d="M564,620.51l-23.78,10c-4.36,1.84-9.24.21-10.85-3.6l-6.21-15.82c-1.61-3.82.64-8.44,5-10.28l23.78-10c4.36-1.84,9.24-.21,10.85,3.6L569,610.23C570.59,614,568.34,618.67,564,620.51Z"/><path class="cls-4" d="M625.54,596.68l-23.78,10c-4.36,1.84-9.24.21-10.85-3.6l-6.21-15.82c-1.61-3.82.64-8.44,5-10.28l23.78-10c4.36-1.84,9.24-.21,10.85,3.6l6.21,15.82C632.16,590.22,629.9,594.84,625.54,596.68Z"/><path class="cls-4" d="M518.3,692l-23.78,10c-4.36,1.84-9.24.21-10.85-3.6l-6.21-15.82c-1.61-3.82.64-8.44,5-10.28l23.78-10c4.36-1.84,9.24-.21,10.85,3.6l6.21,15.82C524.91,685.54,522.66,690.17,518.3,692Z"/><path class="cls-4" d="M581.85,668.17l-23.78,10c-4.36,1.84-9.24.21-10.85-3.6L541,658.76c-1.61-3.82.64-8.44,5-10.28l23.78-10c4.36-1.84,9.24-.21,10.85,3.6l6.21,15.82C588.46,661.71,586.21,666.34,581.85,668.17Z"/><path class="cls-4" d="M643.42,644.34l-23.78,10c-4.36,1.84-9.24.21-10.85-3.6l-6.21-15.82c-1.61-3.82.64-8.44,5-10.28l23.78-10c4.36-1.84,9.24-.21,10.85,3.6l6.21,15.82C650,637.88,647.78,642.51,643.42,644.34Z"/><path class="cls-4" d="M540.15,739.67l-23.78,10c-4.36,1.84-9.24.21-10.85-3.6l-6.21-15.82c-1.61-3.82.64-8.44,5-10.28l23.78-10c4.36-1.84,9.24-.21,10.85,3.6l6.21,15.82C546.76,733.21,544.51,737.83,540.15,739.67Z"/><path class="cls-4" d="M603.7,715.84l-23.78,10c-4.36,1.84-9.24.21-10.85-3.6l-6.21-15.82c-1.61-3.82.64-8.44,5-10.28l23.78-10c4.36-1.84,9.24-.21,10.85,3.6l6.21,15.82C610.31,709.37,608.06,714,603.7,715.84Z"/><path class="cls-4" d="M665.26,692l-23.78,10c-4.36,1.84-9.24.21-10.85-3.6l-6.21-15.82c-1.61-3.82.64-8.44,5-10.28l23.78-10c4.36-1.84,9.24-.21,10.85,3.6l6.21,15.82C671.87,685.54,669.62,690.17,665.26,692Z"/><path class="cls-4" d="M558,787.33l-23.78,10c-4.36,1.84-9.24.21-10.85-3.6l-6.21-15.82c-1.61-3.82.64-8.44,5-10.28l23.78-10c4.36-1.84,9.24-.21,10.85,3.6L563,777.05C564.63,780.87,562.38,785.49,558,787.33Z"/><path class="cls-4" d="M621.57,763.5l-23.78,10c-4.36,1.84-9.24.21-10.85-3.6l-6.21-15.82c-1.61-3.82.64-8.44,5-10.28l23.78-10c4.36-1.84,9.24-.21,10.85,3.6l6.21,15.82C628.18,757,625.93,761.66,621.57,763.5Z"/><path class="cls-4" d="M683.14,739.67l-23.78,10c-4.36,1.84-9.24.21-10.85-3.6l-6.21-15.82c-1.61-3.82.64-8.44,5-10.28l23.78-10c4.36-1.84,9.24-.21,10.85,3.6l6.21,15.82C689.75,733.21,687.5,737.83,683.14,739.67Z"/><path class="cls-6" d="M442.44,187.71,409.5,201.58a12,12,0,0,1-15.61-6.36l-9.9-25a12,12,0,0,1,6.36-15.61l32.95-13.87a12,12,0,0,1,15.61,6.36l9.9,25A12,12,0,0,1,442.44,187.71Z"/><circle class="cls-4" cx="431.29" cy="329.05" r="33.76"/><path class="cls-4" d="M308.16,269.47,330,259.54s12.75-5.77,15.89,9.93a131.31,131.31,0,0,1,2,21.85,14.11,14.11,0,0,1-7.94,11.92l-11.92,6s-9.93,4-13.9-6l-7.94-19.86S302.2,273.44,308.16,269.47Z"/><path class="cls-4" d="M474.16,203.21l-21.83,10s-12.72,5.83-2.94,18.5a131.31,131.31,0,0,0,15.18,15.84,14.11,14.11,0,0,0,14.2,1.83l12.32-5.08s9.51-4.88,4.63-14.4l-9.77-19S481.06,201.32,474.16,203.21Z"/><path class="cls-4" d="M384.08,457.62l22.71-7.75s13.24-4.54,4.76-18.12A131.31,131.31,0,0,0,398,414.48a14.11,14.11,0,0,0-14-3.23l-12.76,3.83s-10,3.92-6,13.87l7.84,19.9S377,458.81,384.08,457.62Z"/><path class="cls-4" d="M550.34,392l-22.72,7.72s-13.26,4.48-14.83-11.45a131.31,131.31,0,0,1,.18-21.93,14.11,14.11,0,0,1,9.08-11.07l12.45-4.75s10.27-3,13.24,7.3l5.94,20.55S556.67,388.66,550.34,392Z"/><path class="cls-4" d="M445.19,259.54c-2-7.94-2-13.9-17.87-15.89s-24.43.79-31.08,3.38-15.44,7.54-24.8,18.14c-10.6,12-6.65,16.47-2.88,23.74s11,3.5,11,3.5c10.59-12,21.91-19,25.88-21s16-3.56,33.76-2C439.23,269.47,447.18,267.48,445.19,259.54Z"/><path class="cls-4" d="M500.22,345.79c7.88-2.21,13.84-2.38,15.38-18.31s-1.48-24.39-4.25-31-8-15.22-18.83-24.28C480.22,262,475.87,266,468.71,270s-3.19,11.13-3.19,11.13c12.3,10.25,19.58,21.37,21.67,25.28s4,15.89,2.93,33.69C490.12,340.11,492.33,348,500.22,345.79Z"/><path class="cls-4" d="M415.57,401.11c2,7.94,2,13.9,17.87,15.89s24.43-.79,31.08-3.38,15.44-7.54,24.8-18.14c10.6-12,6.65-16.47,2.88-23.74s-11-3.5-11-3.5c-10.59,12-21.91,19-25.88,21s-16,3.56-33.76,2C421.52,391.18,413.58,393.17,415.57,401.11Z"/><path class="cls-4" d="M360.54,314.86c-7.88,2.21-13.84,2.38-15.38,18.31s1.48,24.39,4.25,31,8,15.22,18.83,24.28c12.3,10.25,16.65,6.19,23.81,2.22s3.19-11.13,3.19-11.13c-12.3-10.25-19.58-21.37-21.67-25.28s-4-15.89-2.93-33.69C370.63,320.54,368.42,312.65,360.54,314.86Z"/></svg>