<svg id="Calque_1" data-name="Calque 1" xmlns="http://www.w3.org/2000/svg" xmlns:xlink="http://www.w3.org/1999/xlink" viewBox="0 0 1000 1300"><defs><style>.cls-1{fill:#e0e0e0;}.cls-2{clip-path:url(#clip-path);}.cls-3{fill:#f2f2f2;}</style><clipPath id="clip-path"><path class="cls-1" d="M566.08,3697.47s0-.48.08-1.38h0c-.06.9-.08,1.38-.08,1.38h0"/></clipPath></defs><title>coca-cola-life-thumbnail-plain</title><path class="cls-1" d="M566.08,3697.47s0-.48.08-1.38h0c-.06.9-.08,1.38-.08,1.38h0"/><g class="cls-2"><rect class="cls-3" x="566.08" y="3696.09" width="0.08" height="1.38"/></g><path class="cls-1" d="M418.85,1017.81a19.91,19.91,0,0,0-9.25-5.13,23,23,0,0,0-18.08,2.64q-7.75,4.58-9.76,12.41a24.69,24.69,0,0,0-.15,11.33,23.76,23.76,0,0,0,2.79,7.46,38.58,38.58,0,0,0,4.53,5.52,41.74,41.74,0,0,1,4.37,4.94,2.37,2.37,0,0,1,.3,1.76q-.66,2.23-3.87,2.2l-.08,0-.06-.1a7.69,7.69,0,0,1-1.47-.2q-1.42-.37-4.6-3.27t-3.93-3.1a4,4,0,0,0-3.44.89,6.26,6.26,0,0,0-2.34,3.57c.06-.22.05,0,0,.57s-.17,1.66-.32,3.16q-1.19,9.82,14.18,16.52l.15.13a14.33,14.33,0,0,0,1.79.64,23.26,23.26,0,0,0,9.93.15q14.65-2.63,17.24-13.42.52-2.71.84-4.31,1.25-6.61-3.48-14.12-1.32-2.11-9.36-11.64a5.86,5.86,0,0,1-1.45-5.43,7.08,7.08,0,0,1,1.77-3.1,3.93,3.93,0,0,1,2.23,0q2.25.58,2,2.2-.61,4.11,1.89,5.46a13,13,0,0,0,2.64,1.12q2.92.75,6.54-2.32l-.06-.1q2.85-2.46,3.3-4.57a7.77,7.77,0,0,0-.45-4.11A22.52,22.52,0,0,0,418.85,1017.81Z"/><path class="cls-1" d="M479.74,1036.32q-.36-4.37-4.85-7.41-5.48-2.8-8.18-4.16a66.32,66.32,0,0,0-11.16-2.34q-10.25-1.19-17.94,1.64-6,2.16-6.56,7.29a13.22,13.22,0,0,0,1.29,6.82q1.16,2.65,4.95,4.39a18.87,18.87,0,0,0,5.7,1.62,5.18,5.18,0,0,0,1.56,0,67.59,67.59,0,0,0-2.14,8.76l-1.7,10.89q-1.37,9-1.39,9-.81,7.75,1.16,11.61,2.6,5.15,10.61,6.34,4.93.75,8.23-5.28a34.54,34.54,0,0,0,3.54-12.58,55.53,55.53,0,0,0,.37-6.88q-.17-17.17.11-18.08.21-.32,6.45-.76t7.11-1.21q2.22-2,2.81-6.25a17.67,17.67,0,0,0,.13-3.36Z"/><path class="cls-1" d="M439.3,1072.8v0A.31.31,0,0,0,439.3,1072.8Z"/><path class="cls-1" d="M513,1064a9.15,9.15,0,0,0,7.18-2.61,9.61,9.61,0,0,0,3.57-7.71,8.33,8.33,0,0,0-.3-2.66,8.74,8.74,0,0,0-7.38-3.92,9.79,9.79,0,0,0-6.25,2.08,2.06,2.06,0,0,1-1.83-1.51q.08-.51.19-4.1a11,11,0,0,1,.62-4.1l1.89,0q4.9-.08,7.62-2.45A7.51,7.51,0,0,0,521,1031a8.77,8.77,0,0,0-.57-3.09q-1.26-3.33-8-3.23a34.43,34.43,0,0,0-7,.89l-14.34,1.69q-3.49,2.47-4.47,10.57a175.81,175.81,0,0,0-1.4,24.8q.39,18.83,4,24.62,3.33,4,5,4.74a20.3,20.3,0,0,0,8.72,1.67,18.85,18.85,0,0,0,9.51-2.48,20.71,20.71,0,0,0,7-6.52,11,11,0,0,0,2-7.56,5.45,5.45,0,0,0-3.95-4.58,8.91,8.91,0,0,0-5.76.09,3.35,3.35,0,0,1-1.86-3.07,24.46,24.46,0,0,0,.51-5.51A6.79,6.79,0,0,1,513,1064Z"/><path class="cls-1" d="M578.18,1021a14.05,14.05,0,0,0-10.42-2.28,15.32,15.32,0,0,0-6.34,2.42q-4.35,2.91-4.1,15.17t.48,18.49l-2.68-10.47q-3-11.72-5.59-15.43-3-4.17-8.8-3.65a11.4,11.4,0,0,0-5.81,2.43,10,10,0,0,0-4.08,6.52q-.55,3.3.48,10.28a88.53,88.53,0,0,0,5.69,20.2,71.78,71.78,0,0,0,11.94,20.14,12.47,12.47,0,0,0,6.28,3.68,19.87,19.87,0,0,0,8.33.5,12.82,12.82,0,0,0,1.85-.45,14.52,14.52,0,0,0,10.15-10.72q9.29-34.07,7.17-48.37Q581.75,1022.86,578.18,1021Z"/><path class="cls-1" d="M615.83,1034.63q-.38-1.41-1.88-6.26t-2.42-8.26l-2.12-4.86a5.81,5.81,0,0,0-4.13-3.07,14.8,14.8,0,0,0-3.33.55,14.57,14.57,0,0,0-10.6,9.56l-.73,6.17a116,116,0,0,0,3.69,20.48,167,167,0,0,0,8.34,23.49q3.17,7.43,11.56,5.15.66-.18,2.45-.84,5.69-3.33,4.91-12.12A168.79,168.79,0,0,0,615.83,1034.63Z"/><path class="cls-1" d="M682.35,1045.88a80.47,80.47,0,0,0-4.39-14.64q-5.12-12.77-16.26-27.86a22.57,22.57,0,0,0-7.37-6.59q-7.27-4-16.85-.19-8.94,3.58-11.19,11.62a51.42,51.42,0,0,0-1.23,21.44,124.4,124.4,0,0,0,5.56,20.57q1.15,3.34,1.5,4.22,5.35,13.33,13.48,14l.22.1a24.63,24.63,0,0,0,5.67-1.35,8.39,8.39,0,0,0,5.47-6,15.77,15.77,0,0,0-.88-7.52q-.74-1.37-1.18-2a47.44,47.44,0,0,1,7.14-3.23,12.88,12.88,0,0,0,3.18,4.93,23.35,23.35,0,0,0,3.29,2.2,11.24,11.24,0,0,0,7.12-.72,19.11,19.11,0,0,0,4-2.14,6.17,6.17,0,0,0,2.79-6.68Zm-30-11.92a12.32,12.32,0,0,1-1.52.94,1.49,1.49,0,0,1-1.71-.33q-.65-.94-2.83-8.69-1.22-4.42-2.9-11.63.73-1.41,1.52-1.07,6.86,13.19,8.9,19.88A14.12,14.12,0,0,0,652.32,1034Z"/><path class="cls-1" d="M739.66,999.22a55.5,55.5,0,0,0-4.14-5.51q-11.16-13-11.53-13.93,0-.38,4.45-4.73t4.67-5.49q.42-3-1.87-6.6a17.66,17.66,0,0,0-2.06-2.66l-.07,0q-3.08-3.12-8.48-2.56-6,1.37-8.93,2.07a66.33,66.33,0,0,0-10.05,5.38Q693,970.9,689,978q-3.18,5.49-.35,9.8a13.22,13.22,0,0,0,5.36,4.4q2.59,1.28,6.61.18A18.86,18.86,0,0,0,706,990a5.18,5.18,0,0,0,1.2-1,67.59,67.59,0,0,0,4,8.09l5.69,9.43q4.74,7.79,4.7,7.77,4.36,6.46,8.34,8.15,5.31,2.28,12.2-2,4.26-2.6,2.92-9.33A34.53,34.53,0,0,0,739.66,999.22Z"/><path class="cls-1" d="M721.56,1014.27l0,0Z"/><path class="cls-1" d="M787.22,964.88a5.45,5.45,0,0,0-6-1,8.91,8.91,0,0,0-4.37,3.75,3.35,3.35,0,0,1-3.39-1.17,24.45,24.45,0,0,0-3.13-4.57,6.8,6.8,0,0,1,2-1.62,9.15,9.15,0,0,0,3.86-6.6,9.61,9.61,0,0,0-2.18-8.22,8.34,8.34,0,0,0-1.93-1.85,8.74,8.74,0,0,0-8.18,1.7,9.79,9.79,0,0,0-3.48,5.59,2.06,2.06,0,0,1-2.37,0q-.27-.44-2.47-3.27a11,11,0,0,1-2.14-3.55l1.44-1.23q3.72-3.19,4.3-6.75a7.51,7.51,0,0,0-1.83-6.36,8.76,8.76,0,0,0-2.41-2q-3.1-1.76-8.19,2.61a34.46,34.46,0,0,0-4.85,5.18L732,946q-1.11,4.13,3.31,11a175.81,175.81,0,0,0,14.77,20q12.33,14.24,18.82,16.38,5.11.94,6.86.46a20.3,20.3,0,0,0,7.77-4.29,18.85,18.85,0,0,0,5.73-8,20.71,20.71,0,0,0,1.24-9.51A11,11,0,0,0,787.22,964.88Z"/><path class="cls-1" d="M837.61,923a80.44,80.44,0,0,0-10.47-11.14q-10.29-9.14-27-17.65a22.58,22.58,0,0,0-9.54-2.6q-8.31-.36-15.16,7.36-6.4,7.2-4.82,15.4a51.43,51.43,0,0,0,8.48,19.73A124.42,124.42,0,0,0,793.27,950q2.52,2.47,3.23,3.1,10.74,9.54,18.3,6.47H815a24.61,24.61,0,0,0,4.47-3.74,8.39,8.39,0,0,0,2.22-7.81,15.77,15.77,0,0,0-4.15-6.33q-1.27-.9-2-1.29a47.51,47.51,0,0,1,4.94-6.08,12.88,12.88,0,0,0,5.05,3,23.35,23.35,0,0,0,3.93.5,11.24,11.24,0,0,0,6-3.83,19.11,19.11,0,0,0,2.58-3.69,6.18,6.18,0,0,0-.49-7.22Zm-32.19,2.76a12.4,12.4,0,0,1-.95,1.52,1.49,1.49,0,0,1-1.68.46q-1-.55-6.42-6.5-3.07-3.41-7.79-9.1,0-1.59.88-1.64,12,8.73,16.84,13.81A14,14,0,0,0,805.42,925.78Z"/><path class="cls-1" d="M884,857.91a11.7,11.7,0,0,0-5-5.2l-.07,0q-7.91-4.88-20.09-12L848,834.14a50,50,0,0,0-9.23-4.38,16,16,0,0,0-9-.19q-3.8.59-6.28,4.61a24.82,24.82,0,0,0-2.59,6.49q-.48,4.55,5.41,12a45.67,45.67,0,0,0,6.95,7.42q-20.17-5.47-25.89,4.45a17,17,0,0,0,.35,11,19.33,19.33,0,0,0,7.1,8.88q14.81,10.55,20.89,14.3,6.59,4.06,10.56,5a50.16,50.16,0,0,0,9,.69,9.48,9.48,0,0,0,6.51-4.17,11.64,11.64,0,0,0,1.56-5.81,12.28,12.28,0,0,0-3.77-6.67,29.33,29.33,0,0,0-6.66-4.11q-6.22-3-7.32-3.7a22.26,22.26,0,0,1-3.51-2.67q13.14,5.08,19.68,3.65A5.22,5.22,0,0,0,864,879a4.8,4.8,0,0,0,.75-3.18q-.32-2.93-5.81-9.75l-5.26-6.38a24.43,24.43,0,0,1,7.13,4.5,87.8,87.8,0,0,0,7,5.41,13,13,0,0,0,8.35,2.12,7.72,7.72,0,0,0,6.12-3.6,13.57,13.57,0,0,0,.85-2.2q.78-2.25,1.12-3.45A6.67,6.67,0,0,0,884,857.91Z"/><path class="cls-1" d="M842,652.27c0-190.75-154.64-345.39-345.39-345.39a346.05,346.05,0,0,0-84.24,10.37,53.7,53.7,0,0,1-.61-5.54c-1.39-27.73,0-76.26,0-76.26s9.94-10.64-29.36-11.09v0h-2.53v0c-39.12.45-25.2,11.09-25.2,11.09s1.39,48.53,0,76.26c-.33,6.56-2.67,16.45-6.08,28.43C231.9,395.58,151.22,514.5,151.22,652.27c0,190.74,154.63,345.37,345.38,345.37S842,843,842,652.27Z"/></svg>