<svg id="Calque_1" data-name="Calque 1" xmlns="http://www.w3.org/2000/svg" xmlns:xlink="http://www.w3.org/1999/xlink" viewBox="0 0 1000 1000"><defs><style>.cls-1{fill:#e0e0e0;}.cls-2{clip-path:url(#clip-path);}.cls-3{fill:#f2f2f2;}.cls-4{fill:#d6c590;}.cls-5{font-size:87.73px;font-family:BubbleGum, BubbleGum;}.cls-5,.cls-6{fill:#35322e;}.cls-7{fill:#5a6c34;}.cls-8{fill:#fff;}</style><clipPath id="clip-path"><path class="cls-1" d="M566.08,4840.47s0-.48.08-1.38h0c-.06.9-.08,1.38-.08,1.38h0"/></clipPath></defs><title>coca-cola-life-thumbnail</title><path class="cls-1" d="M566.08,4840.47s0-.48.08-1.38h0c-.06.9-.08,1.38-.08,1.38h0"/><g class="cls-2"><rect class="cls-3" x="566.08" y="4839.09" width="0.08" height="1.38"/></g><path class="cls-4" d="M842,496.27C842,687,687.35,841.64,496.6,841.64S151.22,687,151.22,496.27,305.85,150.88,496.6,150.88,842,305.52,842,496.27Z"/><text class="cls-5" transform="translate(367.53 917.46) rotate(14.4)">S</text><text class="cls-5" transform="matrix(0.99, 0.12, -0.12, 0.99, 423.42, 931.27)">T</text><text class="cls-5" transform="translate(483.02 937.52) rotate(-0.93)">E</text><text class="cls-5" transform="translate(536.19 936.66) rotate(-8.44)">V</text><text class="cls-5" transform="translate(599.82 926.02) rotate(-15.19)">I</text><text class="cls-5" transform="translate(636.55 916.4) rotate(-21.84)">A</text><text class="cls-5" transform="matrix(0.88, -0.47, 0.47, 0.88, 693.38, 892.41)"> </text><text class="cls-5" transform="matrix(0.84, -0.55, 0.55, 0.84, 718.68, 879.57)">T</text><text class="cls-5" transform="translate(768.16 846.1) rotate(-40.65)">E</text><text class="cls-5" transform="matrix(0.66, -0.75, 0.75, 0.66, 808.48, 811.21)">A</text><text class="cls-5" transform="translate(854.76 758.03) rotate(-58.33)">M</text><path class="cls-6" d="M374.26,691.53a20.43,20.43,0,0,0-12.44.27c3.06-25.56,8-46.71-10.11-73.45-5.89-8.68-14.47-4.41-9.19,9.53,9.73,25.66,9.54,54.05,3,77.27-.58,2.07-1.88,8.2-1.62,9.75a20,20,0,0,0,2.11.56C396.23,728.73,394.2,697.59,374.26,691.53Z"/><path class="cls-6" d="M429.4,691.53a20.44,20.44,0,0,0-12.44.27c3.06-25.56,8-46.71-10.11-73.45-5.9-8.68-14.47-4.41-9.19,9.53,9.73,25.66,9.54,54.05,3,77.27-.58,2.07-1.88,8.2-1.63,9.75a20,20,0,0,0,2.11.56C451.37,728.73,449.35,697.59,429.4,691.53Z"/><path class="cls-7" d="M442.25,509.31S453.34,376.19,452,323.5s-38.82-140.05-40.21-167.79,0-76.26,0-76.26,9.94-10.64-29.36-11.09v0h-2.54v0c-39.12.45-25.19,11.09-25.19,11.09s1.39,48.53,0,76.26S315.83,270.81,314.44,323.5s9.71,185.81,9.71,185.81-16.88,91.52-9.82,110.93c6.47,17.8,58.28,12.28,66.83,11.25,9.14,1,64.45,6.55,70.91-11.25C459.13,600.83,442.25,509.31,442.25,509.31Z"/><path class="cls-8" d="M421.39,320.67c8.3,6.3,33.17,5.94,32.39-35.15s-33.2-28.75-41.12-18.67C408,272.79,398.52,303.31,421.39,320.67Z"/><path class="cls-8" d="M363.46,323.67c8.29,6.29,33.17,5.94,32.39-35.15s-33.2-28.75-41.12-18.68C350.06,275.78,340.59,306.3,363.46,323.67Z"/><ellipse class="cls-6" cx="441.2" cy="302.51" rx="8.34" ry="12.06"/><ellipse class="cls-6" cx="383.09" cy="302.51" rx="8.34" ry="12.06"/><path class="cls-8" d="M395.87,334.09s2.23,11.54,12.68,14.33,13.17-9.76,13.17-9.76-4.73,5.26-14,3.6S395.87,334.09,395.87,334.09Z"/><path class="cls-6" d="M602,690.8a27.09,27.09,0,0,0-12.44.2c3.06-19.11,8-34.92-10.11-54.91-5.89-6.49-14.47-3.29-9.19,7.12a72.12,72.12,0,0,1,3,57.76c-.58,1.55-1.88,6.13-1.63,7.29,0,0,.85.22,2.11.41C624,718.6,621.94,695.33,602,690.8Z"/><path class="cls-6" d="M657.15,690.8a27.09,27.09,0,0,0-12.43.2c3.06-19.11,8-34.92-10.11-54.91-5.9-6.49-14.47-3.29-9.19,7.12a72.11,72.11,0,0,1,3,57.76c-.58,1.55-1.88,6.13-1.62,7.29,0,0,.84.22,2.11.41C679.11,718.6,677.09,695.33,657.15,690.8Z"/><path class="cls-7" d="M681.59,389.13c-6.24-5.2-14.56-21.84-12.48-30.16a9.62,9.62,0,0,0-5.2-11.44s-31.1-.56-62.22-.81v0h-2.25v0c-31.13.25-62.22.81-62.22.81A9.62,9.62,0,0,0,532,359c2.08,8.32-6.24,25-12.48,30.16s0,226.72,0,226.72,8.32,11.09,14.56,17,13.52,2.77,12.48,10.05c0,0,27.47.72,52.85,1.12v0l1.13,0,1.14,0v0c25.39-.4,52.86-1.12,52.86-1.12-1-7.28,6.24-4.16,12.48-10.05s14.56-17,14.56-17S687.83,394.33,681.59,389.13Z"/><path class="cls-8" d="M650.84,463.61c9.51,6,38,5.65,37.11-33.45s-38-27.36-47.11-17.77C635.49,418,624.64,447.09,650.84,463.61Z"/><path class="cls-8" d="M584.47,466.46c9.5,6,38,5.65,37.11-33.45s-38-27.36-47.11-17.78C569.12,420.88,558.27,449.93,584.47,466.46Z"/><ellipse class="cls-6" cx="673.54" cy="441.65" rx="9.55" ry="13.81"/><ellipse class="cls-6" cx="606.96" cy="441.65" rx="9.55" ry="13.81"/><path class="cls-8" d="M622.6,479.95s2.06,10.66,11.71,13.23,12.15-9,12.15-9-4.37,4.86-12.89,3.33S622.6,479.95,622.6,479.95Z"/></svg>