<svg id="Calque_1" data-name="Calque 1" xmlns="http://www.w3.org/2000/svg" viewBox="0 0 1000 1000"><defs><style>.cls-1{fill:#31a13f;}.cls-2{fill:#138c39;}</style></defs><title>francebureau-thumbnail</title><polygon class="cls-1" points="344.76 439.8 341.42 454.13 307.24 454.13 304.07 467.93 335.79 467.95 332.48 482.27 300.77 482.3 293.47 514.05 274.31 514.04 291.37 439.8 344.76 439.8"/><path class="cls-1" d="M385.21,475.2l-1.58,0a15.76,15.76,0,0,0-3.37-.62,36.89,36.89,0,0,0-4.31-.21,41.84,41.84,0,0,0-6.77.52,44.84,44.84,0,0,0-6.74,1.66L353.72,514H335.64l13-56.12h18.1l-1.92,8.23a58.4,58.4,0,0,1,10.07-6.07A23.56,23.56,0,0,1,385,457.75c.64,0,1.34,0,2.1.06s1.47.09,2.06.16Z"/><path class="cls-1" d="M422,487.63c-3.19.26-6.15.58-8.92.95a35.84,35.84,0,0,0-7.09,1.59,10.2,10.2,0,0,0-4.6,3.07,8.21,8.21,0,0,0-1.59,5.24,4.3,4.3,0,0,0,2.11,4.07,13.14,13.14,0,0,0,6.12,1.15,14.43,14.43,0,0,0,5.61-1.22,26.11,26.11,0,0,0,5.63-3.16Zm-4.76,20.42c-1.11.72-2.47,1.63-4.06,2.68a29.22,29.22,0,0,1-4.39,2.49,32.11,32.11,0,0,1-5.2,1.76,28.59,28.59,0,0,1-6.73.62,16.34,16.34,0,0,1-11.32-3.92,13.11,13.11,0,0,1-4.38-10.2,19.76,19.76,0,0,1,3.1-11.24,21.44,21.44,0,0,1,9.25-7.36,51.92,51.92,0,0,1,13.67-3.74c5.28-.75,11-1.31,17.16-1.69l.23-1a6.32,6.32,0,0,0,.18-1.54,4.9,4.9,0,0,0-3.28-4.85c-2.17-.94-5.41-1.4-9.74-1.42a36.68,36.68,0,0,0-9.74,1.5c-3.55,1-6.21,1.84-8,2.48h-1.63L395,459.2c2.09-.54,5.31-1.15,9.69-1.81a85.09,85.09,0,0,1,13.06-1c8.74,0,15.15,1.15,19.25,3.46a11.42,11.42,0,0,1,6.13,10.68c0,.66-.07,1.53-.17,2.58a17.83,17.83,0,0,1-.48,2.8l-8.87,38.19-17.77,0Z"/><path class="cls-2" d="M511,476c0,1.37-.06,2.88-.2,4.46s-.34,3.28-.66,5l-8.3,50.3-18.07,0L490,497.39c.46-2.85.82-5.26,1.08-7.27a48,48,0,0,0,.37-5.67c0-3-.54-5.15-1.63-6.52s-3.13-2.09-6.06-2.09a12.39,12.39,0,0,0-5,1.3,38.15,38.15,0,0,0-6.28,3.8l-9.07,54.79-18.07,0,12.86-77.24h18.07L474.82,467A73.19,73.19,0,0,1,485,459.19,18.88,18.88,0,0,1,495,456.37q7.55,0,11.75,5c2.79,3.34,4.2,8.21,4.19,14.61"/><path class="cls-1" d="M543.52,515.61a41.3,41.3,0,0,1-10.77-1.44,24.09,24.09,0,0,1-8.76-4.44,20,20,0,0,1-5.7-7.38A24.56,24.56,0,0,1,516.22,492a34.29,34.29,0,0,1,11-25.37,37,37,0,0,1,12.43-7.51,44,44,0,0,1,15.88-2.79,46.42,46.42,0,0,1,10.23,1.15,39.77,39.77,0,0,1,9.4,3.35l-3.81,15.37h-2.53a19.22,19.22,0,0,0-6.68-5.33,19.51,19.51,0,0,0-8.41-1.76,17,17,0,0,0-13.64,6.07,22.25,22.25,0,0,0-5.16,15.1c0,4.2,1.05,7.31,3.16,9.38s5.44,3.13,9.91,3.13a20.67,20.67,0,0,0,9.49-2.14,35.86,35.86,0,0,0,7.34-4.76h2.55l-3.78,15.35a63.18,63.18,0,0,1-9.5,3.34,45.53,45.53,0,0,1-10.55,1"/><path class="cls-1" d="M616,478.84a15.26,15.26,0,0,0,.22-1.68c0-.49.08-1,.08-1.55a7.57,7.57,0,0,0-2.46-6.08c-1.66-1.41-4-2.13-7.14-2.12a14.88,14.88,0,0,0-9.43,3,18.53,18.53,0,0,0-5.79,8.4Zm-14,36.77q-14.36,0-22.13-6.34c-5.2-4.23-7.79-10.09-7.79-17.57a37,37,0,0,1,2.56-14A32.89,32.89,0,0,1,582,466.4a32.45,32.45,0,0,1,11.5-7.44,40.18,40.18,0,0,1,15.14-2.77q12.55,0,18.92,5.07c4.23,3.38,6.39,8.38,6.38,15a32.45,32.45,0,0,1-.69,6.64,50,50,0,0,1-1.78,6.46H589.7c0,.2,0,.39,0,.57a5.34,5.34,0,0,0,0,.56,10.9,10.9,0,0,0,4.1,9.08q4.08,3.26,12.56,3.24a31.61,31.61,0,0,0,11.17-1.91,49.71,49.71,0,0,0,9.18-4.29h2L625.38,511a54.27,54.27,0,0,1-11,3.44A62.28,62.28,0,0,1,602,515.61"/><path class="cls-1" d="M411.43,566.06a5,5,0,0,0-2.6-4.72,14.78,14.78,0,0,0-7.25-1.45H392.9l-3.56,15.53h8.73c4.21,0,7.47-.79,9.83-2.4a7.91,7.91,0,0,0,3.52-7m-2.25,29.8A6.24,6.24,0,0,0,406.1,590q-3.08-1.79-9.71-1.81h-10l-4.21,18.3h9.63q8.33,0,12.86-2.72a8.71,8.71,0,0,0,4.51-7.94m22.44-33a16.74,16.74,0,0,1-3.71,11.19q-3.74,4.42-11.39,6.66l-.1.4a20.22,20.22,0,0,1,9.15,5c2.07,2.19,3.11,5.29,3.12,9.28a20.92,20.92,0,0,1-9.61,18.28c-6.4,4.39-15.44,6.61-27.13,6.59H359.79l17.08-74.25,27.13,0q13.45,0,20.54,4.39c4.74,3,7.09,7.09,7.09,12.41"/><path class="cls-2" d="M501.45,539l-13,80.62H470.33l1.42-8.9c-1.79,1.67-3.56,3.24-5.26,4.7a32.06,32.06,0,0,1-4.89,3.48,20,20,0,0,1-5.29,2.33,19.19,19.19,0,0,1-4.73.62q-7.39,0-11.69-5.1t-4.27-15.08c0-1.82.06-3.5.19-5.06s.34-3.27.65-5.13L444.94,539l18.29,0-6.59,40c-.51,3.07-.89,5.7-1.14,7.91a49.1,49.1,0,0,0-.38,5.61c0,3.17.54,5.44,1.6,6.87s3.11,2.13,6.08,2.15a12.7,12.7,0,0,0,5.1-1.39,35.67,35.67,0,0,0,6.23-3.95L483.37,539Z"/><path class="cls-1" d="M550.61,581.49H549a14.37,14.37,0,0,0-3.35-.66c-1.46-.13-2.89-.21-4.31-.21a40.61,40.61,0,0,0-6.77.53,45.68,45.68,0,0,0-6.74,1.64l-8.72,37.54H501L514.1,564.2h18.08l-1.9,8.24a55.77,55.77,0,0,1,10.06-6.06,23.83,23.83,0,0,1,10.1-2.35c.63,0,1.32,0,2.1.06s1.45.09,2,.15Z"/><path class="cls-1" d="M593,585.1a11.29,11.29,0,0,0,.22-1.66,10.66,10.66,0,0,0,.09-1.57,7.44,7.44,0,0,0-2.49-6.06c-1.63-1.4-4-2.09-7.14-2.08a14.74,14.74,0,0,0-9.42,3,18.64,18.64,0,0,0-5.78,8.4Zm-14,36.79c-9.55,0-17-2.12-22.13-6.37s-7.8-10.07-7.79-17.54a37.32,37.32,0,0,1,2.54-14A33.16,33.16,0,0,1,559,572.69a32.62,32.62,0,0,1,11.49-7.45,40.47,40.47,0,0,1,15.16-2.74c8.36,0,14.68,1.66,18.91,5.06s6.36,8.37,6.37,15a31,31,0,0,1-.69,6.64,55,55,0,0,1-1.76,6.45H566.72a5.52,5.52,0,0,1,0,.56c0,.19,0,.38,0,.56a11.07,11.07,0,0,0,4.1,9.09c2.73,2.17,6.91,3.25,12.56,3.26a32.09,32.09,0,0,0,11.18-1.94,54.29,54.29,0,0,0,9.2-4.26l2,0-3.35,14.38a57.15,57.15,0,0,1-11,3.47A63.45,63.45,0,0,1,579,621.89"/><path class="cls-1" d="M650.92,593.91c-3.16.26-6.1.57-8.89.92a38.56,38.56,0,0,0-7.09,1.57,10.38,10.38,0,0,0-4.6,3.11,8.18,8.18,0,0,0-1.59,5.23,4.26,4.26,0,0,0,2.1,4,12.73,12.73,0,0,0,6.11,1.15,14.91,14.91,0,0,0,5.64-1.22,26.9,26.9,0,0,0,5.61-3.12Zm-4.73,20.42c-1.11.75-2.47,1.65-4.07,2.68a29.82,29.82,0,0,1-4.39,2.48,35.3,35.3,0,0,1-5.2,1.77,29.92,29.92,0,0,1-6.73.61A16.3,16.3,0,0,1,614.49,618a13,13,0,0,1-4.37-10.18,19.61,19.61,0,0,1,3.12-11.27,21.49,21.49,0,0,1,9.24-7.34,50,50,0,0,1,13.64-3.74c5.31-.76,11-1.31,17.2-1.7,0-.21.11-.54.24-1a9,9,0,0,0,.17-1.53,4.93,4.93,0,0,0-3.28-4.88q-3.24-1.38-9.75-1.39a36.61,36.61,0,0,0-9.71,1.48c-3.56,1-6.24,1.84-8,2.51h-1.63L624,565.48c2.07-.55,5.31-1.15,9.67-1.82a87.18,87.18,0,0,1,13.07-1c8.77,0,15.16,1.15,19.23,3.46a11.44,11.44,0,0,1,6.15,10.7c0,.64-.08,1.52-.17,2.57a16.2,16.2,0,0,1-.5,2.79l-8.85,38.15H644.81Z"/><path class="cls-1" d="M744.07,564.21l-13,56.12h-18.1l1.44-6.2c-1.79,1.19-3.55,2.27-5.29,3.27a31,31,0,0,1-4.85,2.42,26.07,26.07,0,0,1-5.31,1.63,26.36,26.36,0,0,1-4.74.44c-4.94,0-8.82-1.19-11.67-3.57s-4.24-5.87-4.27-10.49a29.35,29.35,0,0,1,.21-3.53,29,29,0,0,1,.66-3.55l8.45-36.55h18.28l-6.57,27.86c-.52,2.14-.87,4-1.15,5.5a25.94,25.94,0,0,0-.38,3.9c0,2.22.54,3.79,1.6,4.79s3.1,1.49,6.07,1.47a16.37,16.37,0,0,0,5.11-.92,43.8,43.8,0,0,0,6.23-2.75L726,564.2Z"/><path class="cls-2" d="M215.78,606.09s45.71-103.37-20.24-270.55c119,148.36,43.51,238.77,20.24,270.55"/><path class="cls-1" d="M193.07,585.41s12.86-77.27-107.33-136c103.82,75.94,86.44,139.34,99.46,178.78Z"/><path class="cls-1" d="M275.83,628.57s-23.3-76.92,54.47-112.68c-17.18,28.47-40.58,64.3-54.47,112.68"/><path class="cls-1" d="M299.08,630.47s-1.5-52.38,47.46-64.62c9.79-5.43-14.29,30.85-47.46,64.62"/><path class="cls-1" d="M189,528.06s37-52.56-68.12-143.83c26.34,40.27,57.67,92.35,68.12,143.83"/><polygon class="cls-1" points="753.13 611.23 751 621.36 761.38 621.44 763.51 611.3 753.13 611.23"/><path class="cls-1" d="M796.62,606.91l10.21,1.69a21.47,21.47,0,0,1-7.55,10.34,19.16,19.16,0,0,1-11.5,3.48q-7.44-.08-11.74-4.53c-2.89-3-4.3-7.05-4.3-12.24a28.4,28.4,0,0,1,2.73-12,20,20,0,0,1,8-8.85,21.67,21.67,0,0,1,11.67-3.16q6.89,0,11,3.68a13.75,13.75,0,0,1,4.58,9.52l-10,1a7.9,7.9,0,0,0-2-4.87,6.07,6.07,0,0,0-4.27-1.62,8.57,8.57,0,0,0-5.68,2.24,14.3,14.3,0,0,0-4.08,6.79,28.78,28.78,0,0,0-1.48,8.48,7.83,7.83,0,0,0,1.64,5.35,5.48,5.48,0,0,0,4.17,1.89,7.83,7.83,0,0,0,4.9-1.79,11.92,11.92,0,0,0,3.7-5.45"/><path class="cls-1" d="M840.48,598.14a8.15,8.15,0,0,0-2.14-6,7.43,7.43,0,0,0-5.62-2.29,9.44,9.44,0,0,0-6.06,2.05,13.93,13.93,0,0,0-4.15,6.11,22.08,22.08,0,0,0-1.49,7.4,9.44,9.44,0,0,0,2.21,6.67,7.44,7.44,0,0,0,5.71,2.51,9,9,0,0,0,7.31-3.65,19.89,19.89,0,0,0,4.24-12.79m-30,7.34q.05-10.85,6.19-17.21c4.12-4.27,9.47-6.4,16.1-6.34,5.75,0,10.21,1.63,13.41,4.83s4.8,7.49,4.76,12.84a24.07,24.07,0,0,1-6.15,16.31c-4.08,4.57-9.48,6.83-16.27,6.8a20.78,20.78,0,0,1-9.72-2.29,14.18,14.18,0,0,1-6.29-6.26,18.5,18.5,0,0,1-2-8.68"/><path class="cls-1" d="M859.77,583l9.87.09-1.05,4.78c3.88-3.75,8-5.64,12.25-5.59q4.44,0,6.8,1.87a8.09,8.09,0,0,1,3,5.1,15.57,15.57,0,0,1,5.85-4.87,17.05,17.05,0,0,1,7.91-1.94c3.14,0,5.56.88,7.27,2.55a8.81,8.81,0,0,1,2.58,6.68,39.62,39.62,0,0,1-1.15,6.94l-5.27,23.69-10.46-.05,5.23-23.72c.65-3,1-4.64,1-5a3.53,3.53,0,0,0-1-2.61,4.37,4.37,0,0,0-3-.95c-2.65,0-5,1.35-7.11,4.1-1.51,2-2.83,5.46-3.94,10.5l-3.83,17.61-10.45-.06,5.1-23.51a33.75,33.75,0,0,0,.86-5.26,3.35,3.35,0,0,0-1-2.53,4,4,0,0,0-2.89-1,6.93,6.93,0,0,0-3.57,1,9.55,9.55,0,0,0-3.27,2.79,16.79,16.79,0,0,0-2.42,4.59c-.28.87-.79,2.86-1.48,6L861.79,622l-10.45-.08Z"/></svg>