<svg id="Calque_1" data-name="Calque 1" xmlns="http://www.w3.org/2000/svg" viewBox="0 0 1000 1000"><defs><style>.cls-1{fill:#4cbaaa;}</style></defs><title>freeman-vignette</title><path class="cls-1" d="M579.65,402.83S270.08,437.74,63.85,302l-.45,74.65s227.38,95.94,369.26,83.55"/><path class="cls-1" d="M380.68,481.85S255.95,489.62,98.1,424.61l15.61,66.33s145.78,52.55,274,49.92"/><path class="cls-1" d="M353.64,563s-137.12,3.73-204.14-27.28l22.24,62.09s134.37,36.36,208.32,26"/><path class="cls-1" d="M405.68,660.67S257.07,655.85,205,637.62l27.58,54.9s144.2,27.91,179.89,15"/><path class="cls-1" d="M420.45,402.83S730,437.74,936.25,302l.46,74.65s-227.38,95.94-369.27,83.55"/><path class="cls-1" d="M619.42,481.85S744.16,489.62,902,424.61L886.4,490.95s-145.77,52.55-274,49.92"/><path class="cls-1" d="M646.46,563s137.13,3.73,204.14-27.28l-22.24,62.09S694,634.18,620,623.82"/><path class="cls-1" d="M594.43,660.67S743,655.85,795.06,637.62l-27.58,54.9s-144.2,27.91-179.89,15"/><rect x="295.84" y="289.2" width="421.5" height="421.5" transform="translate(-205.14 504.66) rotate(-45)"/></svg>