<svg id="Calque_1" data-name="Calque 1" xmlns="http://www.w3.org/2000/svg" xmlns:xlink="http://www.w3.org/1999/xlink" viewBox="0 0 1000 1000"><defs><style>.cls-1{fill:none;}.cls-2{fill:#2c2926;}.cls-3{fill:#801813;}.cls-4{fill:#f9ebbe;}.cls-5{clip-path:url(#clip-path);}.cls-6{fill:#b6a380;}</style><clipPath id="clip-path"><path class="cls-1" d="M661.47,316.07s109.47,38.72,110.87,152.75S523.29,593,493.44,526.12s-34.16-180.21,1.78-199.71"/></clipPath></defs><title>musee-magie-vignette</title><circle class="cls-2" cx="500" cy="500" r="349"/><polygon class="cls-3" points="283.28 341.9 217 367.29 200.33 436.28 155.7 381.09 84.93 386.56 123.64 327.06 96.57 261.44 165.12 279.87 219.15 233.85 222.81 304.73 283.28 341.9"/><polygon class="cls-2" points="935.16 328.71 914.64 313.19 890.22 321.29 898.64 296.98 883.39 276.26 909.12 276.76 924.11 255.85 931.59 280.47 956.11 288.27 935 302.98 935.16 328.71"/><polygon class="cls-2" points="231.82 148.34 224.68 117.85 195.51 106.45 222.29 90.23 224.12 58.97 247.82 79.44 278.12 71.51 265.98 100.38 282.88 126.75 251.68 124.12 231.82 148.34"/><path class="cls-4" d="M661.47,316.07s109.47,38.72,110.87,152.75S523.29,593,493.44,526.12s-34.16-180.21,1.78-199.71"/><path class="cls-4" d="M498.05,372S476.46,70.92,596.37,72s1.53,253.82,1.53,253.82S711.81,93.33,817.84,146.65s-153.53,215-153.53,215Z"/><path class="cls-3" d="M531.53,312.76S540.09,129.64,580.05,130s36,74.79-18.7,180.91Z"/><path class="cls-3" d="M642.06,315.25S724.43,166.61,774,199.38,673.49,321.3,673.49,321.3Z"/><path class="cls-2" d="M625.68,433.33s8-57.44-53.9-44.28c0,0-11.07,27.42,11.72,38.78s33.43-4.41,33.43-4.41Z"/><g class="cls-5"><path class="cls-2" d="M719.94,465.83s39.32,24.08,61.79,3.23C781.73,469.07,747.45,526,719.94,465.83Z"/></g><path class="cls-4" d="M643.83,571.66,508.61,341.36S447,366.76,386.21,423C319,485,279.08,567.69,255.66,703.85c0,0-19.36,159.11-1.67,309.15H712.41C705.38,793.17,643.83,571.66,643.83,571.66Z"/><path class="cls-6" d="M445.93,689s-27.06,174.6,47.37,239,92.84-19.7,35.9-154.4"/><path class="cls-4" d="M434.5,669.09s8,233.09,76.1,259.7c0,0,60.17,27.11,47.49-51.08L515.71,664"/></svg>