<svg id="Calque_1" data-name="Calque 1" xmlns="http://www.w3.org/2000/svg" viewBox="0 0 1000 1000"><defs><style>.cls-1{fill:#1c5484;}.cls-2{fill:#fbfdfd;}</style></defs><title>regie-des-eaux-thumbnail</title><circle class="cls-1" cx="500" cy="500" r="349"/><g id="_Groupe_" data-name="&lt;Groupe&gt;"><path id="_Tracé_" data-name="&lt;Tracé&gt;" class="cls-2" d="M293,354.41V502.62h32.94V486.15H540.19s21.33-2.43,21,14.88c-.16,9.12,0,14.91,0,14.91s.11,3.14-6.71,11.37h-6.26v32.94H680V527.32H669.53s-7.88-2.39-7.2-10.74c.5-6.14,0-67.58,0-67.58s-4.57-69.89-79.11-69.89H325.94v-24.7Z"/><path id="_Tracé_2" data-name="&lt;Tracé&gt;" class="cls-2" d="M613.25,596.11c11.94,18.38,23.13,35.63,29.86,55.24,4.9,14.27.35,27.28-11.77,36a31.67,31.67,0,0,1-37-.13A30.82,30.82,0,0,1,583,651C590.12,631.59,600.83,614.08,613.25,596.11Z"/></g></svg>