<svg id="Calque_1" data-name="Calque 1" xmlns="http://www.w3.org/2000/svg" viewBox="0 0 112 112"><defs><style>.cls-1{fill:#dd0031;}.cls-2{fill:#c3002f;}.cls-3{fill:#fff;}</style></defs><title>skills-angular</title><polygon class="cls-1" points="56 21 56 21 56 21 23.41 32.62 28.39 75.7 56 91 56 91 56 91 83.61 75.7 88.58 32.62 56 21"/><polygon class="cls-2" points="56 21 56 28.77 56 28.73 56 64.19 56 64.19 56 91 56 91 83.61 75.7 88.58 32.62 56 21"/><path class="cls-3" d="M56,28.73,35.63,74.41h7.59l4.09-10.22H64.61l4.09,10.22H76.3L56,28.73Zm5.95,29.15H50l6-14.32Z"/></svg>