<svg id="Calque_1" data-name="Calque 1" xmlns="http://www.w3.org/2000/svg" viewBox="0 0 112 112"><defs><style>.cls-1{fill:#e44e26;}.cls-2{fill:#f06529;}.cls-3{fill:#eaeaea;}.cls-4{fill:#fefefe;}.cls-5{fill:#e34d26;}</style></defs><title>skills-html</title><path class="cls-1" d="M56.92,87.35l-17.7-4.91a.28.28,0,0,1-.25-.29c-.08-1-3.91-43.91-4-44.56,0-.13,0-.17.15-.15h43.6c.27,0,.26,0,.23.26-.09,1-3.91,43.73-4,44.5,0,.15-.07.2-.21.24L57.06,87.32s0,0,0,0Z"/><path d="M66.87,25.22c0,.07,0,.15,0,.22q0,4,0,8c0,.17,0,.21-.21.21H64.25c-.16,0-.19,0-.18-.19,0-1.24,0-2.48,0-3.72v-.19h0l-.73,1.13c-.36.56-.73,1.11-1.08,1.68-.09.14-.12.15-.22,0-.56-.88-1.12-1.75-1.69-2.62l-.13-.19c-.06.06,0,.12,0,.18,0,1.25,0,2.49,0,3.74,0,.16,0,.2-.2.2H57.59c-.12,0-.16,0-.16-.15q0-4.07,0-8.15a.81.81,0,0,1,0-.12h2.91a1.15,1.15,0,0,1,.28.39L62,27.88c.11.18.12.19.23,0,.51-.82,1-1.66,1.51-2.48a.74.74,0,0,1,.15-.19Z"/><path d="M47.25,25.22q0,4.1,0,8.19c0,.18,0,.23-.23.23-.79,0-1.58,0-2.37,0-.19,0-.21-.05-.21-.22,0-.81,0-1.62,0-2.43,0-.15,0-.19-.18-.19h-2.2c-.16,0-.19,0-.19.19,0,.81,0,1.62,0,2.43,0,.17,0,.23-.21.22-.8,0-1.59,0-2.39,0-.17,0-.21,0-.21-.21q0-4,0-8c0-.07,0-.15,0-.22h2.79a.43.43,0,0,1,.06.31c0,.71,0,1.43,0,2.14,0,.26,0,.28.27.28h1.92c.26,0,.27,0,.27-.28,0-.71,0-1.43,0-2.14a.43.43,0,0,1,.06-.31Z"/><path d="M56.19,25.22c0,.88,0,1.77,0,2.65,0,.14-.06.14-.17.14H53.91c-.16,0-.18,0-.18.19,0,1.74,0,3.48,0,5.22,0,.19-.06.22-.23.22H51.12c-.15,0-.19,0-.19-.19,0-1.75,0-3.49,0-5.24,0-.17,0-.21-.21-.21h-2.1c-.13,0-.17,0-.17-.17,0-.88,0-1.75,0-2.63Z"/><path d="M71,25.22c0,.07,0,.15,0,.22,0,1.73,0,3.46,0,5.2,0,.17,0,.21.21.21h3.54c.17,0,.21,0,.2.21q0,1.19,0,2.39c0,.15,0,.2-.19.2H68.45c-.17,0-.21,0-.21-.21q0-4,0-8.07s0-.09,0-.14Z"/><path class="cls-2" d="M57,46.61c0-1.76,0-3.52,0-5.28,0-.19.06-.22.23-.22H74.7c.26,0,.28,0,.26.26,0,.56-3.35,37.67-3.39,38a.18.18,0,0,1-.15.18l-5.89,1.63-6.84,1.9c-.5.14-1,.27-1.49.42-.16.05-.19,0-.19-.15q0-2.75,0-5.5l0,0a.82.82,0,0,1,.37-.15l10.48-2.93c.34-.1.35-.1.38-.44.07-.82.14-1.64.22-2.45S69.66,58.49,69.71,58c0-.14,0-.2-.18-.2H57.4a.92.92,0,0,1-.38,0,.13.13,0,0,1-.05-.06.83.83,0,0,1,0-.3c0-1.65,0-5.16,0-5.26a.13.13,0,0,1,.05-.06,1,1,0,0,1,.4,0H69.83c.39,0,.4,0,.43-.38.08-1,.18-2,.26-3,0-.56.1-1.11.15-1.67,0-.38,0-.38-.35-.38H57.43a.82.82,0,0,1-.4,0Z"/><path class="cls-3" d="M57,63.29H44.92c-.18,0-.25,0-.27-.22-.09-1.18-1.41-15.89-1.45-16.29,0-.11,0-.16.14-.15H57a.34.34,0,0,1,.07.27q0,2.5,0,5a.34.34,0,0,1-.07.27h0a.55.55,0,0,1-.35.06h-7c-.36,0-.37,0-.33.36.14,1.42.25,2.84.39,4.26,0,.21,0,.41.05.62s0,.24.26.25h6.65a.55.55,0,0,1,.35.06h0a.31.31,0,0,1,.07.25q0,2.51,0,5a.55.55,0,0,1,0,.16A.17.17,0,0,1,57,63.29Z"/><path class="cls-3" d="M57,77.85,45.87,74.74c-.15,0-.18-.1-.19-.24-.1-1.14-.69-7.81-.74-8.31,0-.13,0-.16.14-.16h5.24c.12,0,.14,0,.15.15.09,1,.34,3.77.36,4.12a.18.18,0,0,0,.15.18l6,1.6H57a.18.18,0,0,1,0,.07.92.92,0,0,1,0,.26q0,2.55,0,5.09a.43.43,0,0,1-.07.33Z"/><path class="cls-2" d="M57,72.08q0-4.4,0-8.8h0a.41.41,0,0,1,.27-.05h6.21c.31,0,.36.07.33.38-.1,1-.49,5.31-.58,6.44,0,.52-.09.46-.5.57L57.4,72.05a.67.67,0,0,1-.39.05Z"/><path class="cls-4" d="M57,72.1l2.84-.77L63,70.48a.18.18,0,0,0,.16-.19c.16-1.88.56-6.42.61-6.82,0-.16,0-.2-.19-.2H57q0-2.74,0-5.49H69.55c.2,0,.24.05.22.25-.13,1.33-1.47,16.18-1.48,16.51a.18.18,0,0,1-.15.19l-5.07,1.41-5.82,1.62a.7.7,0,0,1-.25.07Z"/><path class="cls-4" d="M57,52.15V46.62H70.57c.18,0,.22,0,.2.22q-.24,2.58-.46,5.17c0,.16-.1.16-.21.16H57Z"/><path class="cls-5" d="M57,57.77H49.95c-.19,0-.25,0-.27-.24-.13-1.49-.26-3-.4-4.47,0-.27,0-.54-.07-.8,0-.09,0-.13.1-.12H57Z"/></svg>