<svg id="Calque_1" data-name="Calque 1" xmlns="http://www.w3.org/2000/svg" viewBox="0 0 112 112"><defs><style>.cls-1{fill:#1d365d;}.cls-2{fill:#faf8f9;}.cls-3{fill:#fbf8fa;}</style></defs><title>skills-less</title><circle class="cls-1" cx="56" cy="56" r="56"/><path class="cls-2" d="M24.53,56.05c1.86,1.21,2.26,3,2.31,4.93s0,3.66,0,5.48c0,2.37.6,3,2.93,3.24.64.06.86.3.77.9a3.51,3.51,0,0,0,0,.49c0,2.24,0,2.24-2.22,2-3.74-.35-5.43-2.11-5.55-5.88-.06-2,0-4,0-6s-.77-3-2.71-3.46c-.38-.09-.48-.24-.46-.59a7.71,7.71,0,0,0,0-1.27c-.13-1,0-1.63,1.29-1.91,1.46-.32,1.83-1.74,1.88-3.11.05-1.6,0-3.2,0-4.8,0-.46,0-.91,0-1.37.15-3.78,1.9-5.62,5.68-5.85,2.18-.13,4.37-.05,6.56-.12.75,0,.65.42.65.88q0,10,0,20c0,.42,0,.85,0,1.27.08,1.38.58,2.07,1.94,2.3.83.14.92.47.72,1.16a5.18,5.18,0,0,0-.24,1.44c0,1.08-.52,1.28-1.48,1.14a12.14,12.14,0,0,1-2.39-.51,4,4,0,0,1-2.73-3.07,12,12,0,0,1-.25-2.53c0-5.84,0-11.69,0-17.53,0-.75-.15-1.1-1-1a7.78,7.78,0,0,1-1,0,2.22,2.22,0,0,0-2.45,2.34c-.09,2,0,4-.06,6a8,8,0,0,1-.68,3.53A6,6,0,0,1,24.53,56.05Z"/><path class="cls-3" d="M49,58.7c-1.76,0-3.53,0-5.29,0-.83,0-.92.27-.75,1a4.52,4.52,0,0,0,3.77,3.52,11.67,11.67,0,0,0,5.8-.46c.79-.26,1,0,1,.68s.19,1.36.33,2a.6.6,0,0,1-.46.81c-3.15,1-6.34,1.35-9.52.23-3.6-1.27-5.17-4.09-5.51-7.72a10.72,10.72,0,0,1,2.24-8.27c3.1-3.68,9.3-3.92,12.38-.48a9.47,9.47,0,0,1,2.12,6.26c.1,2.45.09,2.45-2.31,2.45Zm-2.16-3.2h3.33c.32,0,.63.06.63-.48a3.77,3.77,0,0,0-3.6-3.8,4.11,4.11,0,0,0-4.2,3.5c-.13.58-.07.83.61.8C44.68,55.47,45.76,55.51,46.83,55.51Z"/><path class="cls-3" d="M89.25,48.05c0,.93,0,2,0,3.08a3,3,0,0,0,2.61,3.16c.4.08.57.2.54.61a5.38,5.38,0,0,0,0,1.08c.14,1.09,0,1.77-1.36,2.08s-1.76,1.65-1.79,3c0,1.83,0,3.66,0,5.49,0,4.63-1.8,6.45-6.42,6.67-1.32.06-1.32.06-1.32-1.22,0,0,0-.07,0-.1,0-.62-.18-1.34.07-1.83s1.11-.26,1.69-.41a2.22,2.22,0,0,0,1.88-2.4c.05-2,0-3.92,0-5.88a6.8,6.8,0,0,1,1-3.94c.36-.52,1.14-.93,1.18-1.43s-.85-.79-1.2-1.32a7.14,7.14,0,0,1-.94-3.94c0-1.79,0-3.59,0-5.39,0-2.09-.69-2.86-2.77-3-.81-.05-1-.35-.9-1.06a5.11,5.11,0,0,0,0-.69c0-1.84,0-1.85,1.82-1.69a10.87,10.87,0,0,1,2.31.42,4.68,4.68,0,0,1,3.4,3.9A29.7,29.7,0,0,1,89.25,48.05Z"/><path class="cls-3" d="M61.38,67.1a15.26,15.26,0,0,1-4.8-.75c-.62-.19-.87-.42-.69-1.09a16.63,16.63,0,0,0,.45-2.1c.09-.62.31-.73.9-.51a12,12,0,0,0,6,.76c.88-.12,1.71-.34,1.88-1.39a1.91,1.91,0,0,0-1.28-2.09c-.85-.41-1.73-.76-2.59-1.14s-1.57-.65-2.31-1.05a5,5,0,0,1-2.7-5.21,4.89,4.89,0,0,1,3.61-4.42,14,14,0,0,1,8.28.17c.41.11.5.34.4.72-.22.89-.15,2-.68,2.61s-1.54-.25-2.37-.33a11.47,11.47,0,0,0-3.22,0c-.79.15-1.53.47-1.7,1.39a1.78,1.78,0,0,0,1.1,2c.81.42,1.67.73,2.51,1.08A11.62,11.62,0,0,1,68,57.89a5.23,5.23,0,0,1-1.48,8.39A11.76,11.76,0,0,1,61.38,67.1Z"/><path class="cls-3" d="M75.3,67.1a14.55,14.55,0,0,1-4.86-.77c-.54-.17-.84-.35-.65-1,.26-.87.12-2.09.67-2.59s1.63.33,2.49.48a12.35,12.35,0,0,0,4.47.15c.74-.14,1.39-.42,1.54-1.28a1.79,1.79,0,0,0-.89-1.91,14.39,14.39,0,0,0-2.83-1.32,17.38,17.38,0,0,1-2.66-1.22,4.94,4.94,0,0,1-2.51-5,4.85,4.85,0,0,1,3.39-4.38c2.85-1.07,5.72-.65,8.57.1.44.12.42.41.34.76-.18.76-.38,1.52-.51,2.29-.09.52-.25.64-.77.44A10,10,0,0,0,77,51.17a4.08,4.08,0,0,0-1.52.32,1.62,1.62,0,0,0-.38,2.85,6.76,6.76,0,0,0,1.9,1,19.29,19.29,0,0,1,4.42,2.07c1.79,1.28,2.16,3.1,1.94,5.12a4.5,4.5,0,0,1-3,3.81A11.9,11.9,0,0,1,75.3,67.1Z"/></svg>