<svg id="Calque_1" data-name="Calque 1" xmlns="http://www.w3.org/2000/svg" viewBox="0 0 1000 1000"><defs><style>.cls-1{fill:#e0e0e0;}</style></defs><title>coca-cola-life-thumbnail-plain</title><path class="cls-1" d="M637.27,561.94q4,2.25,4,7.69a17.67,17.67,0,0,1-2.43,8.86l-4.46-.08,2.67,1.52-4,7-14.49-8.23-.87,2.74-7.44-3a62.19,62.19,0,0,1,5.69-14.07,20.31,20.31,0,0,1,4.77-5.82q3.73-3,6.73-1.32,2.56,1.45,2.78,5.89Q633.82,560,637.27,561.94Zm-13,5.14h-.19a4.84,4.84,0,0,0-1.63,2q-.48.85-1,2l2.67,1.51Q625.9,568,624.31,567.07Zm8.24,3-.32,0a2.83,2.83,0,0,0-1,1.19,21.07,21.07,0,0,0-1.72,4.41l2.74,1.56a22.49,22.49,0,0,0,1-3.77Q633.58,570.67,632.55,570.08Z"/><path class="cls-1" d="M649.82,538.52q2.79,2.38,10.41,10.59l-6.09,5.45-2.23-2.18L649,556l2.35,1.72-4.49,6.92q-9.37-6.35-12.23-8.78a10.91,10.91,0,0,1-4.17-7.69,11.68,11.68,0,0,1,19.34-9.62Zm-4.88,7.32a4.57,4.57,0,0,0-2.36-1.11,2.49,2.49,0,0,0-2.35.85,2.26,2.26,0,0,0-.49,2.19,4.21,4.21,0,0,0,1.38,2.1q2.34,2,4.3,3.43l3.3-4Q647.14,547.72,644.93,545.84Z"/><path class="cls-1" d="M672.31,520.2q3,3.62,3,9.61,0,6.18-3.23,9.41l-4.8-2.4,2.47,2.66-6,5.21q-4.85-5-11.3-12.28l-1.4,1.92-6.09-5a35.63,35.63,0,0,1,7.95-9.32q5.19-4.29,9.88-4.56Q668.18,515.2,672.31,520.2ZM665.19,525a3.24,3.24,0,0,0-3.19-1.18,6.52,6.52,0,0,0-3.26,1.53q-.39.33-1,.85,2.65,3,8,9A6.64,6.64,0,0,0,667.1,530,8.88,8.88,0,0,0,665.19,525Z"/><path class="cls-1" d="M705.3,494.29l-1.9,7a10.17,10.17,0,0,0-7.45.1q-2.07.91-1.69,1.77.29.66,3.88.58a39,39,0,0,1,6.93.31q4,.76,5.15,3.37a8,8,0,0,1-.23,7.22,10.77,10.77,0,0,1-5.46,5q-5.35,2.34-13.17-1.07l1.87-7.19a15.8,15.8,0,0,0,4.36,1.25,8.45,8.45,0,0,0,4.47-.42q1.72-.75,1.31-1.69-.34-.78-4.3-.58a37.32,37.32,0,0,1-7.52-.06q-4.35-.7-5.7-3.78a7.11,7.11,0,0,1,.83-7,12.46,12.46,0,0,1,5.6-4.73,16.67,16.67,0,0,1,6.52-1.37A13.54,13.54,0,0,1,705.3,494.29Z"/><path class="cls-1" d="M734.21,498.68a11.43,11.43,0,0,1-1,8.72,11.58,11.58,0,0,1-15.72,3.72,11.76,11.76,0,0,1-5.1-7.38q-.62-2.48-2.67-14.66l7.92-1.35q2,11.89,2.53,14.08.9,3.64,4.09,2.85,3-.74,2.16-4-.56-2.27-4.4-13.84l7.58-2.54Q733.56,496.07,734.21,498.68Z"/><path class="cls-1" d="M764.28,493.58a13.4,13.4,0,0,1-3.58,10.17,13.83,13.83,0,0,1-9.79,4.64,12.49,12.49,0,0,1-9.15-2.87,11.6,11.6,0,0,1-4.06-8.58,13.76,13.76,0,0,1,4-10.73,15.2,15.2,0,0,1,10.48-4.83,19.89,19.89,0,0,1,7.08.62l-1,8.42a18.71,18.71,0,0,0-4.25-.48,9.67,9.67,0,0,0-5.57,1.9,5.84,5.84,0,0,0-2.3,5.25,3.83,3.83,0,0,0,1.54,3.07,5.29,5.29,0,0,0,3.51.91,7.22,7.22,0,0,0,4.85-2.54q-1.87.15-5.94.68l-.72-5.93,14.36-2A7.37,7.37,0,0,1,764.28,493.58Z"/><path class="cls-1" d="M791,495.85q-.47,3.64-3.22,14.49l-7.89-2.14.61-3.06-4.58-.47-.16,2.9h-8.25q.22-11.32.71-15a10.91,10.91,0,0,1,4.18-7.69,11.68,11.68,0,0,1,18.6,11Zm-8.8-.11a4.57,4.57,0,0,0-.35-2.58,2.49,2.49,0,0,0-2-1.51,2.25,2.25,0,0,0-2.1.78,4.21,4.21,0,0,0-1,2.3q-.4,3-.54,5.47l5.17.59Q781.8,498.62,782.18,495.74Z"/><path class="cls-1" d="M820.76,500.51q-2,6-9,6.9l2.4,7.94L806,516.87l-3.25-10.46-2.24,6.93-7.5-2.42,5.11-15.82-2.45-.17,1.45-8a66.94,66.94,0,0,1,14.9,2.67,16.77,16.77,0,0,1,6.72,3.87Q822,496.74,820.76,500.51Zm-9.1-.66q.3-.93-1.15-1.85a9,9,0,0,0-2.33-1.11,22.07,22.07,0,0,0-2.19-.57l-1.61,5Q810.83,502.4,811.66,499.85Z"/><path class="cls-1" d="M76.7,93a25.26,25.26,0,0,0,3.46-6.78q2.91-6.92.86-17.36-2.73-5.39-7.09-6.83a21.89,21.89,0,0,0-11-1.36Q71,50.12,67.37,38a11.17,11.17,0,0,0-3.71-6.13q-14.18-9.26-35.47,2.79-12,7.63-15.6,12.75,3.89,13,8.08,25.32,2,7.8,15.21,45.92,0,.21,7.15-1.86a59.39,59.39,0,0,0,11.38-4.38q10.73-6,13.22-9.4Q71.83,100,76.7,93ZM40,67.15q-2.35-5-4.37-10.66a18,18,0,0,1,9.83-6.26,4.23,4.23,0,0,1,4.77,2.64Q51.59,57.68,40,67.15ZM51.75,92.29A37.91,37.91,0,0,1,46.34,81.6a21.75,21.75,0,0,1,11.1-7.15q4.3-1.11,6.41,2.3Q65.74,83.06,51.75,92.29Z"/><path class="cls-1" d="M93.28,90.22q5.76,6,13.41,5.11,7.09-2.07,10-4.29A57.2,57.2,0,0,0,128,81.22q7.76-8.93,9.5-15.69a23.89,23.89,0,0,0,1-9.27,34.77,34.77,0,0,0-2.26-9.47A29.15,29.15,0,0,0,127,35a17.91,17.91,0,0,0-9.88-2.49,28.66,28.66,0,0,0-12.05,4,45.11,45.11,0,0,0-10.43,11,32.33,32.33,0,0,0-3.23,5.91A58.59,58.59,0,0,0,88.09,64,40.64,40.64,0,0,0,88,79.18,24,24,0,0,0,93.28,90.22Zm11.61-25.81q4.56-9.95,12.52-12.52,3.47-.08,5.42,4.7,1.18,5.72-3.07,13.34-2.53,4.5-9.06,7.69Q104,79,103.23,73A20.91,20.91,0,0,1,104.89,64.41Z"/><path class="cls-1" d="M151.81,78.15q5.76,6,13.41,5.11,7.1-2.07,10-4.29a57.17,57.17,0,0,0,11.31-9.83q7.76-8.93,9.5-15.69a23.89,23.89,0,0,0,1-9.27,34.75,34.75,0,0,0-2.26-9.47,29.14,29.14,0,0,0-9.31-11.83,17.91,17.91,0,0,0-9.88-2.49,28.65,28.65,0,0,0-12.05,4,45.11,45.11,0,0,0-10.43,11,32.33,32.33,0,0,0-3.23,5.91,58.56,58.56,0,0,0-3.28,10.59,40.63,40.63,0,0,0-.11,15.18A24.05,24.05,0,0,0,151.81,78.15Zm11.61-25.81q4.56-9.95,12.52-12.52,3.47-.08,5.42,4.7,1.18,5.72-3.07,13.34-2.53,4.5-9.07,7.69-6.67,1.35-7.46-4.64A20.93,20.93,0,0,1,163.43,52.33Z"/><path class="cls-1" d="M209.61,61.53a188.42,188.42,0,0,1,3.5,19.21l4.11.5q6.68.46,17.73,1.86-.22-3.44-3.35-14.83a275.46,275.46,0,0,1-5.76-27q-2.05-7.81-2.28-9.58c-.13.08-.22.05-.26-.08l.19-.12q7.76,7.93,12.64,14,1.82,1.35,5.18,6.23l.92-.49a109.68,109.68,0,0,1,11.54-4.74q.17-1.32.18-11.76.74-15,.57-18.26l.19-.12a37.45,37.45,0,0,0,2.82,5.27l-.17.09c0,.12.12.15.24.09q12.93,26.32,18.29,39.52,7.19-7.85,16-16.75Q288.94,39.14,279.27,22q-8.82-15.47-21.6-44.38-9.24,5.09-20.52,10Q237,2,236,16q-4.57-6.41-7.89-10.67L218.83-9.4A127.62,127.62,0,0,1,195.72,4.9q3.52,13.06,7.51,26.67Q207.43,49.12,209.61,61.53Z"/><path class="cls-1" d="M306.41,47.84q-7.59,6.59-5.82,12.92Q303,65.7,309.35,65q5.54-1,13.82-8.31a32.8,32.8,0,0,0,6.66-8.57,8.06,8.06,0,0,0,.59-5.26q-.6-2.9-4.84-3.61A20.87,20.87,0,0,0,319,40.4,38.62,38.62,0,0,0,306.41,47.84Z"/><path class="cls-1" d="M304.63,38.4a107.72,107.72,0,0,0,19.54-11.06q-2.45-17-3.7-59.72-3.17,1.56-23.79,13.61,6.43,37.93,7.73,57A.17.17,0,0,1,304.63,38.4Z"/><path class="cls-1" d="M926.33,707,887,683.89q1.45-4.84,2.53-9.83l22.95-3.79L892,657.54q.31-3.52.43-7.1l55.05-48.33L885.79,604a131.58,131.58,0,0,0-7.19-17.36l11.74-12.41-19.05-.38q-3.27-5-7-9.76l40.75-49.39L838.76,527l2.1-14.32-24.64,13.22A132.51,132.51,0,0,0,636.34,598.7l-2,.81-8.89,1.8,6.93,9.57c-.45,1.66-.88,3.32-1.27,5l-32,14.41,28.57,17.15q.06,4.7.43,9.32L611.5,667.42l19.11,6.13q.43,2,.91,4l-7.29,6.29,9.41,1.36q1,3.12,2.09,6.17L604.43,718l37.34-12.77q2.87,5.7,6.26,11.08l-4.15,25.92,20.34-5.12q4.21,4.42,8.83,8.45l-4.62,16.78,20.48-4.88q2.46,1.57,5,3l-15,44.28,39.49-33.27q2.32.77,4.69,1.46l8.21,22.54,6.13-19.23q4.15.72,8.38,1.17L756.18,834l11.18-55.91c1.41-.08,2.81-.18,4.2-.3l6.1,13.29,6.27-14.93.92-.18,9.67,14.58,1-17.06q5.67-1.57,11.13-3.62l21.6,19.64-.92-29.54a132.6,132.6,0,0,0,11.42-7.56L855,754.53l-4.58-11.86q1.43-1.34,2.83-2.72l29.47,21.86L866.28,725a132.61,132.61,0,0,0,9.4-14.47Z"/><path class="cls-1" d="M503.53,469.5C503.53,349.94,406.6,253,287,253a216.91,216.91,0,0,0-52.8,6.5,33.77,33.77,0,0,1-.39-3.47c-.87-17.38,0-47.8,0-47.8s6.23-6.67-18.4-6.95h-1.59c-24.52.28-15.79,6.95-15.79,6.95s.87,30.42,0,47.8c-.21,4.11-1.68,10.32-3.81,17.82A216.51,216.51,0,0,0,70.54,469.5C70.54,589.06,167.47,686,287,686S503.53,589.06,503.53,469.5Z"/><path class="cls-1" d="M238.31,698.64a12.48,12.48,0,0,0-5.8-3.21,14.42,14.42,0,0,0-11.33,1.66,12.49,12.49,0,0,0-6.12,7.78,15.47,15.47,0,0,0-.1,7.1,14.89,14.89,0,0,0,1.75,4.68,24.14,24.14,0,0,0,2.84,3.46,26.22,26.22,0,0,1,2.74,3.1,1.48,1.48,0,0,1,.19,1.11q-.41,1.4-2.42,1.38H220l0-.07a4.77,4.77,0,0,1-.92-.12,9,9,0,0,1-2.89-2,11,11,0,0,0-2.46-1.94,2.49,2.49,0,0,0-2.16.56,3.92,3.92,0,0,0-1.47,2.24q.05-.21,0,.36t-.2,2q-.74,6.15,8.89,10.35l.09.08a8.92,8.92,0,0,0,1.12.4,14.58,14.58,0,0,0,6.22.09q9.18-1.65,10.81-8.41.32-1.7.53-2.7.78-4.14-2.18-8.85-.83-1.33-5.87-7.29a3.68,3.68,0,0,1-.91-3.41,4.44,4.44,0,0,1,1.11-1.94,2.46,2.46,0,0,1,1.4,0q1.41.36,1.26,1.38-.38,2.57,1.18,3.42a8.17,8.17,0,0,0,1.66.7q1.83.47,4.1-1.45l0-.07a5.76,5.76,0,0,0,2.07-2.86,4.87,4.87,0,0,0-.28-2.58A14.12,14.12,0,0,0,238.31,698.64Z"/><path class="cls-1" d="M276.47,710.24a6.17,6.17,0,0,0-3-4.64L268.3,703a41.59,41.59,0,0,0-7-1.46,24.25,24.25,0,0,0-11.25,1q-3.74,1.36-4.11,4.57a8.29,8.29,0,0,0,.81,4.27,5.8,5.8,0,0,0,3.1,2.75,11.84,11.84,0,0,0,3.57,1,3.26,3.26,0,0,0,1,0,42.34,42.34,0,0,0-1.34,5.49L252,727.48q-.92,6-.87,5.6-.51,4.88.72,7.3,1.63,3.23,6.65,4,3.09.47,5.16-3.31a21.66,21.66,0,0,0,2.22-7.88,34.79,34.79,0,0,0,.23-4.32q-.11-10.76.07-11.34a17.73,17.73,0,0,1,4-.48q3.91-.28,4.46-.76a6.2,6.2,0,0,0,1.76-3.92,11.08,11.08,0,0,0,.08-2.11Z"/><path class="cls-1" d="M297.58,727.61a5.73,5.73,0,0,0,4.5-1.64,6,6,0,0,0,2.24-4.84,5.23,5.23,0,0,0-.19-1.67,5.48,5.48,0,0,0-4.62-2.46,6.14,6.14,0,0,0-3.92,1.3,1.29,1.29,0,0,1-1.15-.94q0-.32.12-2.57a6.91,6.91,0,0,1,.39-2.57l1.19,0a7.22,7.22,0,0,0,4.77-1.53,4.71,4.71,0,0,0,1.66-3.8,5.5,5.5,0,0,0-.35-1.94q-.79-2.09-5-2a21.6,21.6,0,0,0-4.41.56l-9,1.06q-2.19,1.55-2.8,6.62a110.21,110.21,0,0,0-.88,15.54q.24,11.8,2.51,15.43a11.79,11.79,0,0,0,3.12,3,12.72,12.72,0,0,0,5.46,1,11.81,11.81,0,0,0,6-1.55,13,13,0,0,0,4.41-4.09,6.92,6.92,0,0,0,1.27-4.74,3.41,3.41,0,0,0-2.47-2.87,5.59,5.59,0,0,0-3.61.06,2.1,2.1,0,0,1-1.16-1.92,15.36,15.36,0,0,0,.32-3.46A4.26,4.26,0,0,1,297.58,727.61Z"/><path class="cls-1" d="M338.22,700.65a8.81,8.81,0,0,0-6.54-1.43,9.61,9.61,0,0,0-4,1.52q-2.73,1.82-2.57,9.51t.3,11.59l-1.68-6.56q-1.91-7.35-3.51-9.67a5.66,5.66,0,0,0-5.52-2.29,7.14,7.14,0,0,0-3.64,1.52,6.29,6.29,0,0,0-2.55,4.09,22.79,22.79,0,0,0,.3,6.44A55.5,55.5,0,0,0,312.42,728a45,45,0,0,0,7.49,12.62,7.82,7.82,0,0,0,3.94,2.3,12.46,12.46,0,0,0,5.23.31,8.09,8.09,0,0,0,1.16-.28,9.1,9.1,0,0,0,6.36-6.72q5.82-21.36,4.49-30.32Q340.46,701.79,338.22,700.65Z"/><path class="cls-1" d="M361.82,709.16q-.24-.88-1.18-3.93t-1.52-5.17l-1.33-3a3.64,3.64,0,0,0-2.59-1.92,9.27,9.27,0,0,0-2.09.34,9.13,9.13,0,0,0-6.64,6L346,705.3a72.75,72.75,0,0,0,2.31,12.84,104.69,104.69,0,0,0,5.23,14.73q2,4.66,7.25,3.23.42-.11,1.53-.53,3.57-2.09,3.08-7.6A105.73,105.73,0,0,0,361.82,709.16Z"/><path class="cls-1" d="M403.52,716.21a50.41,50.41,0,0,0-2.75-9.18,80.67,80.67,0,0,0-10.2-17.46,14.15,14.15,0,0,0-4.62-4.13q-4.56-2.53-10.56-.12-5.6,2.25-7,7.29a32.23,32.23,0,0,0-.77,13.44,78,78,0,0,0,3.49,12.89q.72,2.09.94,2.64,3.35,8.36,8.45,8.75l.14.06a15.43,15.43,0,0,0,3.55-.84,5.26,5.26,0,0,0,3.43-3.76,9.88,9.88,0,0,0-.55-4.72q-.46-.86-.74-1.27a29.72,29.72,0,0,1,4.47-2,8.08,8.08,0,0,0,2,3.09,14.6,14.6,0,0,0,2.06,1.38,7,7,0,0,0,4.46-.46,12,12,0,0,0,2.48-1.34,3.87,3.87,0,0,0,1.75-4.19Zm-18.82-7.47a7.75,7.75,0,0,1-1,.59.93.93,0,0,1-1.07-.21,33.85,33.85,0,0,1-1.78-5.44q-.76-2.77-1.82-7.29.46-.88,1-.67a82.21,82.21,0,0,1,5.58,12.46A8.76,8.76,0,0,0,384.69,708.75Z"/><path class="cls-1" d="M439.46,686.94a34.72,34.72,0,0,0-2.6-3.45q-7-8.18-7.23-8.73a17.77,17.77,0,0,1,2.79-3q2.82-2.73,2.93-3.44a6.2,6.2,0,0,0-1.17-4.13,11.08,11.08,0,0,0-1.29-1.67l0,0a6.17,6.17,0,0,0-5.31-1.6l-5.6,1.3a41.52,41.52,0,0,0-6.3,3.37,24.26,24.26,0,0,0-8,8q-2,3.44-.22,6.15a8.29,8.29,0,0,0,3.36,2.76,5.8,5.8,0,0,0,4.14.11,11.82,11.82,0,0,0,3.39-1.52,3.24,3.24,0,0,0,.75-.62,42.37,42.37,0,0,0,2.5,5.07l3.57,5.91q3.17,5.21,2.93,4.85,2.74,4.07,5.25,5.13,3.33,1.43,7.65-1.23,2.67-1.63,1.83-5.85A21.64,21.64,0,0,0,439.46,686.94Z"/><path class="cls-1" d="M469.26,665.41a3.41,3.41,0,0,0-3.74-.63,5.59,5.59,0,0,0-2.74,2.35,2.1,2.1,0,0,1-2.12-.73,15.31,15.31,0,0,0-2-2.86,4.26,4.26,0,0,1,1.26-1,5.73,5.73,0,0,0,2.42-4.14,6,6,0,0,0-1.37-5.15,5.22,5.22,0,0,0-1.21-1.16,5.48,5.48,0,0,0-5.13,1.06,6.14,6.14,0,0,0-2.18,3.51,1.29,1.29,0,0,1-1.49,0q-.17-.28-1.55-2.05a6.91,6.91,0,0,1-1.34-2.23l.9-.77a7.22,7.22,0,0,0,2.69-4.23,4.71,4.71,0,0,0-1.15-4,5.5,5.5,0,0,0-1.51-1.26q-1.94-1.1-5.13,1.64a21.57,21.57,0,0,0-3,3.25l-6.23,6.56q-.69,2.59,2.08,6.89A110.23,110.23,0,0,0,446,673q7.73,8.92,11.8,10.26a11.78,11.78,0,0,0,4.3.29,12.72,12.72,0,0,0,4.87-2.69,11.81,11.81,0,0,0,3.59-5,13,13,0,0,0,.78-6A6.92,6.92,0,0,0,469.26,665.41Z"/><path class="cls-1" d="M500.84,639.16a50.42,50.42,0,0,0-6.56-7,80.7,80.7,0,0,0-16.93-11.06,14.16,14.16,0,0,0-6-1.63q-5.21-.22-9.5,4.61-4,4.52-3,9.65a32.23,32.23,0,0,0,5.32,12.36,78,78,0,0,0,8.88,10q1.58,1.55,2,1.94,6.73,6,11.47,4.05h.15a15.41,15.41,0,0,0,2.8-2.34,5.26,5.26,0,0,0,1.39-4.89,9.88,9.88,0,0,0-2.6-4q-.8-.56-1.23-.81a29.79,29.79,0,0,1,3.1-3.81,8.07,8.07,0,0,0,3.17,1.87,14.58,14.58,0,0,0,2.46.31,7,7,0,0,0,3.79-2.4,12,12,0,0,0,1.62-2.31,3.87,3.87,0,0,0-.31-4.53Zm-20.18,1.74a7.73,7.73,0,0,1-.59,1,.93.93,0,0,1-1.05.29,33.83,33.83,0,0,1-4-4.08q-1.92-2.14-4.88-5.71,0-1,.55-1A82.21,82.21,0,0,1,481.22,640,8.77,8.77,0,0,0,480.66,640.89Z"/><path class="cls-1" d="M526.81,595.07l0,0q-5-3.06-12.6-7.51l-6.85-4.1a31.36,31.36,0,0,0-5.78-2.74,10,10,0,0,0-5.63-.11,5.63,5.63,0,0,0-3.94,2.89,15.56,15.56,0,0,0-1.62,4.07q-.3,2.85,3.4,7.54a28.63,28.63,0,0,0,4.35,4.65q-12.65-3.43-16.23,2.79a10.68,10.68,0,0,0,.22,6.88,12.12,12.12,0,0,0,4.46,5.57q9.29,6.61,13.1,9a24.52,24.52,0,0,0,6.62,3.13,31.45,31.45,0,0,0,5.63.43,6,6,0,0,0,4.08-2.61,7.29,7.29,0,0,0,1-3.64,7.7,7.7,0,0,0-2.36-4.18,18.4,18.4,0,0,0-4.18-2.57q-3.9-1.9-4.59-2.32a13.94,13.94,0,0,1-2.2-1.67q8.24,3.18,12.34,2.28a3.28,3.28,0,0,0,1.44-1.2,3,3,0,0,0,.47-2q-.2-1.83-3.64-6.11l-3.3-4a15.3,15.3,0,0,1,4.47,2.82q3.36,2.77,4.37,3.39A8.12,8.12,0,0,0,525,607a4.84,4.84,0,0,0,3.83-2.26,8.53,8.53,0,0,0,.53-1.38q.49-1.41.7-2.16a4.18,4.18,0,0,0-.13-2.87A7.34,7.34,0,0,0,526.81,595.07Z"/><path class="cls-1" d="M600.39,428.48l4-.63,2.46,26.59q4.56,2.61,16.56,2c1.65-.12,3.38-.33,5.16-.61l1.18,12.77q4.56,2.61,16.56,2a81.7,81.7,0,0,0,16.39-3.16,150.77,150.77,0,0,0,16.92-5.74q4.93-1.72,17.43-9.34a94.78,94.78,0,0,0,21.08-20q11.31-15.82,12.74-21.29a104.88,104.88,0,0,0,7.2-17.37q5.54-19.67,3.51-30.46a27.84,27.84,0,0,0-5.27-10.1,19.67,19.67,0,0,0-9.53-6.9,33.2,33.2,0,0,0-9.91-1.78,22.73,22.73,0,0,0-3.47-5.45,19.67,19.67,0,0,0-9.53-6.9,33.93,33.93,0,0,0-10.91-1.8,56.39,56.39,0,0,1,16.86-3.64q13.41-.82,20.22.91,4.41-20.68,9-30.06A52,52,0,0,0,725.91,295q-7.54-.12-14.28.4a82.22,82.22,0,0,1,4.49-12.1A52,52,0,0,0,703,280.88q-29.1-.46-46.26,8.57-10.32,6.22-15.79,12.69l-16.36-3.81q1.57-4.43,2.89-8.11l-40.56-9.45q-3,13.67-7.38,29.26-2.8-20.84-4.75-41.27A94.69,94.69,0,0,0,554,271.85l-.26,0q-1-8.66-1.79-17.25a94.69,94.69,0,0,0-20.85,3.09q-11.79,1.65-16.82,4.21,10.15,69.6,13.26,80.42,8.08,35.86,9.41,38.38,5.66,20.4,12.61,38.81,6.77-1.39,16.8-3.21,2.92,8.87,6.11,17.33Q582.67,431.58,600.39,428.48Zm56-100.72c-1.15,2.14-2.35,4.58-3.64,7.36l-.07.22a16.63,16.63,0,0,1,1.17-3.68C654.64,330.34,655.49,329,656.41,327.77Zm-25,30.91h0a13.41,13.41,0,0,0,3.53,4.14q6.26,4.71,10.94,5.67a26.15,26.15,0,0,0,6,.39,19.57,19.57,0,0,0,2.42,3.93,13.42,13.42,0,0,0,3.53,4.14q6.26,4.71,10.94,5.66t12.78-.27c.38-.09.81-.23,1.28-.38a37.68,37.68,0,0,1-9.37,12.31,93.19,93.19,0,0,1-24.92,16.56,65.43,65.43,0,0,1-22.2,7.38,127.45,127.45,0,0,1-14.56,2l2.11-6.67q4.9-17.43,11.68-36.1Q628.41,368,631.44,358.68Z"/></svg>