<svg id="Calque_1" data-name="Calque 1" xmlns="http://www.w3.org/2000/svg" viewBox="0 0 1000 1000"><defs><style>.cls-1{opacity:0.2;}.cls-11,.cls-2{fill:#35322e;}.cls-3{opacity:0.3;}.cls-4{fill:#5763aa;}.cls-5{font-size:42.62px;fill:#34302d;font-family:FontdinerdotcomHuggable, Fontdinerdotcom Huggable;}.cls-6{fill:#f0f0f0;}.cls-7{fill:#ecebec;}.cls-8{fill:#fff;}.cls-9{fill:#a6a3a2;}.cls-10{fill:#d6c590;}.cls-11{font-size:54.99px;font-family:BubbleGum, BubbleGum;}.cls-12{fill:#5a6c34;}</style></defs><title>coca-cola-life-vignette</title><g class="cls-1"><path class="cls-2" d="M780.86-81.45a34.45,34.45,0,0,1,7.66,4.37q-4.89,4.86-12.15,16.81-3.88-2.57-12.42-5-10-2.61-16.33-.5a34.82,34.82,0,0,0-8.5,5.29A8.69,8.69,0,0,0,737-57a1.9,1.9,0,0,0,1.82,2.22q2.86.94,9.17-.14,6.64-.35,9,.33a20.51,20.51,0,0,1,5.41,1.29,23.57,23.57,0,0,1,7.87,4,13,13,0,0,1,4.44,6.38,18.39,18.39,0,0,1,1.09,7.45q-1.08,7.18-8.83,18.25A69.43,69.43,0,0,1,758.7-8q-2.08,3.1-12.59,10.52a62.76,62.76,0,0,1-17.53,7.92q-9.46,2-12.92,2a99.5,99.5,0,0,1-11.81-.1,54,54,0,0,1-10.92-1.6Q685.3,8.58,683,6l5.53-22.27q3.73,2.23,14.57,3.9a43.29,43.29,0,0,0,15.47.23,61.61,61.61,0,0,0,19.16-4.91q10.37-4.3,13.58-14.16,1.25-6.49-6.9-5.9a65.6,65.6,0,0,1-10.26.57,25.29,25.29,0,0,1-8-2.62,19.21,19.21,0,0,1-5.6-5.92,8.87,8.87,0,0,1-1.3-3.35,16.74,16.74,0,0,1-.59-7.55q1-7.63,7.81-16.32a57.85,57.85,0,0,1,8-7.15q5.11-4.47,15.7-6.69Q762.8-88.08,780.86-81.45Z"/><path class="cls-2" d="M829.07-90.16q-12.39,28.29-22.68,57.83,5.93-1,6.21-1,3.2-.41,7.24-1.18,5.49-13.89,14.39-39.8Q840-73.22,861.14-76,828.56-2.73,817.57,29.74l-2.05.26a99.52,99.52,0,0,0-11,2.33q-5.69,1.25-11.22,3,3.74-13.41,16.36-45L796.13-8.51Q794.67-4.76,786.64,17q-7.72,1-13.37,1.61l-11.85.86q23.09-57.14,40.73-109.55A196.26,196.26,0,0,0,829.07-90.16Z"/><path class="cls-2" d="M891.59,30.67a25.08,25.08,0,0,1,7.64,2.42q4.12,3.11,3.16,6.53a9.68,9.68,0,0,1-3.53,5.28q-3.93,3-11.84,5.46-12.9,3.28-19.34,1.23-7.14-2.78-7-9.38,1.6-7.73,13.34-10.57Q884.13,29.41,891.59,30.67Zm41.75-76.82Q911,.15,904.3,19.59a129.42,129.42,0,0,1-27,1,.2.2,0,0,0-.15-.28q9.15-21.08,23.25-65.09Q929.1-46.23,933.34-46.15Z"/></g><g class="cls-3"><path class="cls-2" d="M63.66,31.85A11.17,11.17,0,0,1,67.37,38Q71,50.12,62.95,60.71a21.89,21.89,0,0,1,11,1.36Q78.29,63.5,81,68.9q2,10.45-.86,17.36A25.27,25.27,0,0,1,76.7,93q-4.87,7-9.07,9.94-2.49,3.39-13.22,9.4A59.38,59.38,0,0,1,43,116.76q-7.11,2.07-7.15,1.86Q22.64,80.5,20.67,72.7q-4.19-12.31-8.08-25.32,3.61-5.11,15.6-12.75Q49.48,22.58,63.66,31.85ZM40,67.15q11.61-9.48,10.23-14.27a4.23,4.23,0,0,0-4.77-2.64,18,18,0,0,0-9.83,6.26Q37.63,62.15,40,67.15ZM51.75,92.29q14-9.23,12.09-15.53-2.1-3.41-6.41-2.3a21.75,21.75,0,0,0-11.1,7.15A37.9,37.9,0,0,0,51.75,92.29Z"/><path class="cls-2" d="M117.08,32.47A17.91,17.91,0,0,1,127,35a29.14,29.14,0,0,1,9.31,11.83,34.77,34.77,0,0,1,2.26,9.47,23.89,23.89,0,0,1-1,9.27q-1.74,6.75-9.5,15.69A57.2,57.2,0,0,1,116.7,91q-2.92,2.22-10,4.29Q99,96.2,93.28,90.22a24,24,0,0,1-5.3-11A40.64,40.64,0,0,1,88.09,64a58.6,58.6,0,0,1,3.28-10.59,32.36,32.36,0,0,1,3.23-5.91,45.1,45.1,0,0,1,10.43-11A28.65,28.65,0,0,1,117.08,32.47ZM103.23,73q.8,6,7.46,4.64,6.53-3.19,9.07-7.69,4.25-7.63,3.07-13.34-1.95-4.79-5.42-4.7-8,2.58-12.52,12.52A20.92,20.92,0,0,0,103.23,73Z"/><path class="cls-2" d="M175.61,20.39a17.91,17.91,0,0,1,9.88,2.49,29.14,29.14,0,0,1,9.31,11.83A34.77,34.77,0,0,1,197,44.19a23.89,23.89,0,0,1-1,9.27q-1.74,6.75-9.5,15.69A57.2,57.2,0,0,1,175.24,79q-2.92,2.22-10,4.29-7.65.87-13.41-5.11a24,24,0,0,1-5.3-11,40.64,40.64,0,0,1,.11-15.18,58.6,58.6,0,0,1,3.28-10.59,32.36,32.36,0,0,1,3.23-5.91,45.1,45.1,0,0,1,10.43-11A28.65,28.65,0,0,1,175.61,20.39ZM161.76,60.91q.8,6,7.46,4.64,6.53-3.19,9.07-7.69,4.25-7.63,3.07-13.34-1.95-4.79-5.42-4.7-8,2.58-12.52,12.52A20.92,20.92,0,0,0,161.76,60.91Z"/><path class="cls-2" d="M218.83-9.4l9.33,14.77Q231.48,9.63,236,16,237,2,237.15-12.38q11.28-4.94,20.53-10Q270.45,6.5,279.27,22q9.66,17.17,12.59,22.55-8.79,8.9-16,16.75-5.36-13.2-18.29-39.52c-.12.06-.2,0-.24-.09l.17-.09a37.42,37.42,0,0,1-2.82-5.27l-.19.12q.17,3.23-.57,18.26,0,10.43-.18,11.76a109.69,109.69,0,0,0-11.54,4.74l-.92.49q-3.37-4.88-5.18-6.23-4.88-6.1-12.64-14l-.19.12c0,.14.13.17.26.08q.23,1.77,2.28,9.58a275.56,275.56,0,0,0,5.76,27q3.13,11.39,3.35,14.83-11.05-1.4-17.73-1.86l-4.11-.5a188.43,188.43,0,0,0-3.5-19.21q-2.18-12.4-6.37-30-4-13.62-7.51-26.67A127.61,127.61,0,0,0,218.83-9.4Z"/><path class="cls-2" d="M319,40.4a20.88,20.88,0,0,1,6.57-1.14q4.24.72,4.84,3.61a8.06,8.06,0,0,1-.59,5.26,32.8,32.8,0,0,1-6.66,8.57q-8.28,7.36-13.82,8.31-6.34.68-8.76-4.26-1.77-6.33,5.82-12.92A38.62,38.62,0,0,1,319,40.4Zm1.45-72.78q1.25,42.76,3.7,59.72A107.74,107.74,0,0,1,304.63,38.4a.17.17,0,0,0-.22-.15q-1.3-19.09-7.73-57Q317.3-30.81,320.47-32.37Z"/></g><polyline class="cls-4" points="812.65 527.78 840.86 512.65 838.76 526.97 905.07 514.72 856.5 573.58 890.34 574.25 861.46 604.79 947.5 602.11 887.54 654.75 912.46 670.27 874.47 676.54 926.33 707 860.29 711.6 882.73 761.81 847.81 735.92 855.01 754.53 827.06 750.82 828.27 789.47 796.32 760.43 794.52 790.52 784.34 775.16 777.66 791.04 768.68 771.47 756.18 833.96 742.6 760.06 731.29 795.54 721.58 768.86 678.91 804.81 695.46 755.93 668.42 762.37 676.2 734.13 643.87 742.26 650.26 702.36 604.43 718.04 641.62 686.34 624.24 683.82 634.64 674.85 611.5 667.42 635.47 652.1 599.15 630.3 634.79 614.22 625.45 601.31 634.34 599.51"/><circle class="cls-4" cx="760.12" cy="645.84" r="132.42"/><text class="cls-5" transform="translate(630.38 589.78) rotate(-60.42)">B</text><text class="cls-5" transform="translate(644.54 565.25) rotate(-49.61)">A</text><text class="cls-5" transform="matrix(0.77, -0.64, 0.64, 0.77, 659.68, 547.14)">D</text><text class="cls-5" transform="translate(681.18 530.06) rotate(-31.17)"> </text><text class="cls-5" transform="translate(692.77 522.71) rotate(-23.65)">S</text><text class="cls-5" transform="translate(714.02 513.39) rotate(-13.94)">U</text><text class="cls-5" transform="translate(737.53 507.41) rotate(-3.28)">G</text><text class="cls-5" transform="translate(765.68 505.98) rotate(7.4)">A</text><text class="cls-5" transform="translate(789.98 509.01) rotate(17.91)">R</text><rect class="cls-6" x="692.09" y="566.35" width="124.47" height="173.18"/><polygon class="cls-7" points="692.09 566.35 719.82 552.15 831.44 552.15 816.56 566.35 692.09 566.35"/><polygon class="cls-7" points="831.44 552.15 831.44 724.65 816.56 739.53 816.56 566.35 831.44 552.15"/><path class="cls-8" d="M718.09,633.35c-7.91,5-31.63,4.7-30.89-27.85s31.67-22.78,39.22-14.8C730.87,595.4,739.9,619.58,718.09,633.35Z"/><path class="cls-8" d="M781,635.71c-7.91,5-31.63,4.7-30.89-27.85s31.67-22.78,39.22-14.8C793.77,597.77,802.81,622,781,635.71Z"/><ellipse class="cls-2" cx="699.2" cy="615.06" rx="7.95" ry="11.5"/><ellipse class="cls-2" cx="762.27" cy="615.06" rx="7.95" ry="11.5"/><path class="cls-2" d="M728.88,588.94l-3.08-6c-.56-1.08-4.08-.44-3.42.84l3.08,6c.56,1.08,4.08.44,3.42-.84Z"/><path class="cls-2" d="M722.69,587.63l-3.83-7.42c-.17-.33-.93-1.55-1.44-1.26s.2,1.61.34,1.88l3.83,7.42c.17.33.93,1.55,1.44,1.26s-.2-1.61-.34-1.88Z"/><path class="cls-2" d="M720.06,587.48l-3.57-6.93a4.88,4.88,0,0,0-2.07-1.56c-.15-.08-1.69-.71-1.5-.34l3.57,6.93a4.88,4.88,0,0,0,2.07,1.56c.15.08,1.69.71,1.5.34Z"/><path class="cls-2" d="M714.59,584l-4.43-8.59c-.76-1.46-4.46.47-3.7,2l4.43,8.59c.76,1.46,4.46-.47,3.7-2Z"/><path class="cls-2" d="M710.13,582.76l-3.83-7.43c-1.12-2.17-5.22-1.16-3.91,1.38l3.83,7.43c1.12,2.17,5.22,1.16,3.91-1.38Z"/><path class="cls-2" d="M704,581.49l-4.76-9.22c-.76-1.47-5.14-1.62-4.08.42l4.76,9.22c.76,1.47,5.14,1.62,4.08-.42Z"/><path class="cls-2" d="M699.63,579.82l-4.44-8.6c-.53-1-5.41-.52-5,.23l4.44,8.6c.53,1,5.41.52,5-.23Z"/><path class="cls-2" d="M692.84,577.71,687.33,567c-.58-1.13-5.3.34-5.16.6l5.51,10.67c.58,1.13,5.3-.34,5.16-.6Z"/><path class="cls-2" d="M752.35,591.09l3-6c.51-1-2.66-2.73-3.16-1.76l-3,6c-.51,1,2.66,2.73,3.16,1.76Z"/><path class="cls-2" d="M757.09,590l3.78-7.45c.54-1.06-2.23-3.23-2.6-2.51l-3.78,7.45c-.54,1.06,2.23,3.23,2.6,2.51Z"/><path class="cls-2" d="M761.51,587.14l3.52-6.95c.76-1.49-3.18-.66-3.7.38l-3.52,6.95c-.76,1.49,3.18.66,3.7-.38Z"/><path class="cls-2" d="M766.68,587.19l4.38-8.62c.63-1.23-2.59-3.74-3-2.9l-4.38,8.62c-.63,1.23,2.59,3.74,3,2.9Z"/><path class="cls-2" d="M771.63,585.38l3.78-7.46c.68-1.35-3.16-3.65-3.79-2.41L767.84,583c-.68,1.35,3.16,3.65,3.79,2.41Z"/><path class="cls-2" d="M777.58,583.94l4.7-9.24c.67-1.32-2.78-4-3.23-3.11l-4.7,9.24c-.67,1.32,2.78,4,3.23,3.11Z"/><path class="cls-2" d="M783.06,580.23l4.38-8.63c.53-1.05-.81-1.21-1.53-1.12a4.3,4.3,0,0,0-3.06,1.86L778.47,581c-.53,1.05.81,1.21,1.53,1.12a4.3,4.3,0,0,0,3.06-1.86Z"/><path class="cls-2" d="M789.49,580.43l5.44-10.7c.78-1.53-3.21-4.65-3.74-3.61l-5.44,10.7c-.78,1.53,3.21,4.65,3.74,3.61Z"/><path class="cls-2" d="M703.35,637.82s-1.36,7.81,9.68,7.44,14-10.25,27.88-9.51,20,16.59,35.43,2.07c0,0-12.05,23-30.68,10.25-5.37-3.66-10.86-2.81-17.57.73C721.76,652.13,698.72,656,703.35,637.82Z"/><path class="cls-9" d="M732.1,651.89s1.75-4.57,6.24-5,4.69,5,4.69,5a6.37,6.37,0,0,0-5.47-2.49A6.44,6.44,0,0,0,732.1,651.89Z"/><path class="cls-10" d="M503.53,469.5C503.53,589.06,406.6,686,287,686S70.54,589.06,70.54,469.5,167.47,253,287,253,503.53,349.94,503.53,469.5Z"/><text class="cls-11" transform="matrix(0.97, 0.25, -0.25, 0.97, 206.15, 733.52)">S</text><text class="cls-11" transform="matrix(0.99, 0.12, -0.12, 0.99, 241.16, 742.17)">T</text><text class="cls-11" transform="translate(278.79 746.09) rotate(-0.93)">E</text><text class="cls-11" transform="translate(311.91 745.55) rotate(-8.45)">V</text><text class="cls-11" transform="matrix(0.97, -0.26, 0.26, 0.97, 351.79, 738.87)">I</text><text class="cls-11" transform="translate(374.81 732.84) rotate(-21.86)">A</text><text class="cls-11" transform="translate(410.45 717.79) rotate(-27.84)"> </text><text class="cls-11" transform="matrix(0.84, -0.55, 0.55, 0.84, 426.31, 709.73)">T</text><text class="cls-11" transform="translate(457.32 688.74) rotate(-40.66)">E</text><text class="cls-11" transform="matrix(0.66, -0.75, 0.75, 0.66, 482.59, 666.86)">A</text><text class="cls-11" transform="matrix(0.52, -0.85, 0.85, 0.52, 511.6, 633.51)">M</text><path class="cls-2" d="M210.35,591.9a12.81,12.81,0,0,0-7.79.17c1.92-16,5-29.28-6.34-46-3.69-5.44-9.07-2.76-5.76,6,6.1,16.09,6,33.88,1.9,48.43-.36,1.3-1.18,5.14-1,6.11a12.54,12.54,0,0,0,1.32.35C224.12,615.22,222.85,595.7,210.35,591.9Z"/><path class="cls-2" d="M244.92,591.9a12.81,12.81,0,0,0-7.79.17c1.92-16,5-29.28-6.34-46-3.7-5.44-9.07-2.76-5.76,6,6.1,16.09,6,33.88,1.9,48.43-.36,1.3-1.18,5.14-1,6.11a12.55,12.55,0,0,0,1.32.35C258.69,615.22,257.42,595.7,244.92,591.9Z"/><path class="cls-12" d="M253,477.68s7-83.44,6.08-116.47S234.72,273.42,233.85,256s0-47.8,0-47.8,6.23-6.67-18.4-6.95h-1.59c-24.52.28-15.79,6.95-15.79,6.95s.87,30.42,0,47.8-24.34,72.14-25.21,105.17,6.08,116.47,6.08,116.47-10.58,57.37-6.16,69.54c4.05,11.16,36.53,7.7,41.89,7.05,5.73.65,40.4,4.11,44.45-7.05C263.55,535,253,477.68,253,477.68Z"/><path class="cls-8" d="M239.89,359.43c5.2,3.95,20.79,3.73,20.3-22s-20.81-18-25.77-11.7C231.5,329.42,225.56,348.55,239.89,359.43Z"/><path class="cls-8" d="M203.58,361.31c5.2,3.94,20.79,3.72,20.3-22s-20.81-18-25.77-11.71C195.18,331.29,189.25,350.42,203.58,361.31Z"/><ellipse class="cls-2" cx="252.31" cy="348.05" rx="5.23" ry="7.56"/><ellipse class="cls-2" cx="215.89" cy="348.05" rx="5.23" ry="7.56"/><path class="cls-8" d="M223.9,367.85s1.4,7.23,7.95,9,8.25-6.12,8.25-6.12-3,3.3-8.75,2.26S223.9,367.85,223.9,367.85Z"/><path class="cls-2" d="M353.11,591.44a17,17,0,0,0-7.79.12c1.92-12,5-21.89-6.34-34.42-3.69-4.07-9.07-2.07-5.76,4.46a45.21,45.21,0,0,1,1.9,36.21c-.36,1-1.18,3.84-1,4.57,0,0,.53.13,1.32.26C366.88,608.87,365.61,594.28,353.11,591.44Z"/><path class="cls-2" d="M387.67,591.44a17,17,0,0,0-7.79.12c1.92-12,5-21.89-6.34-34.42-3.7-4.07-9.07-2.07-5.76,4.46a45.2,45.2,0,0,1,1.9,36.21c-.36,1-1.18,3.84-1,4.57,0,0,.53.13,1.32.26C401.44,608.87,400.17,594.28,387.67,591.44Z"/><path class="cls-12" d="M403,402.35c-3.91-3.26-9.13-13.69-7.82-18.9a6,6,0,0,0-3.26-7.17s-19.49-.35-39-.51H351.5c-19.51.16-39,.51-39,.51a6,6,0,0,0-3.26,7.17c1.3,5.22-3.91,15.65-7.82,18.9s0,142.11,0,142.11a106.88,106.88,0,0,0,9.13,10.65c3.91,3.69,8.47,1.74,7.82,6.3,0,0,17.22.45,33.13.7v0h1.42v0c15.91-.25,33.13-.7,33.13-.7-.65-4.56,3.91-2.61,7.82-6.3A106.88,106.88,0,0,0,403,544.46S406.91,405.61,403,402.35Z"/><path class="cls-8" d="M383.72,449c6,3.76,23.82,3.54,23.26-21s-23.85-17.15-29.53-11.14C374.1,420.47,367.3,438.67,383.72,449Z"/><path class="cls-8" d="M342.12,450.82c6,3.76,23.82,3.54,23.26-21s-23.85-17.15-29.53-11.14C332.5,422.25,325.69,440.46,342.12,450.82Z"/><ellipse class="cls-2" cx="397.95" cy="435.27" rx="5.99" ry="8.66"/><ellipse class="cls-2" cx="356.22" cy="435.27" rx="5.99" ry="8.66"/><path class="cls-8" d="M366,459.27s1.29,6.68,7.34,8.29,7.62-5.65,7.62-5.65-2.74,3-8.08,2.09S366,459.27,366,459.27Z"/><path class="cls-4" d="M574.81,268.76q2.92,30.8,7.81,62.55,1.24,9,3.5,20.39l3.46,14.13q13.48-40.27,20.26-70.93l40.56,9.45q-4.64,12.91-12.33,35-6.73,18.67-12.44,38.05-6.78,18.67-11.68,36.1-3.19,10.13-4.31,13.53l-9.26,1.45q-17.72,3.1-28,5.19-7-18.41-12.61-38.81-1.33-2.51-9.41-38.38-3.11-10.82-13.26-80.42,5-2.56,16.82-4.21A94.69,94.69,0,0,1,574.81,268.76Z"/><path class="cls-4" d="M725.91,295A52,52,0,0,1,739,297.43q-4.56,9.38-9,30.06-6.81-1.73-20.22-.91-15.53,1.25-23.57,7.42a52.74,52.74,0,0,0-9.5,11.79,13.15,13.15,0,0,0-1.35,6,2.87,2.87,0,0,0,3.71,2.27q4.55-.08,13-4.76,9.31-3.8,13.06-4a31.13,31.13,0,0,1,8.36-.86,35.62,35.62,0,0,1,13.22,1.78,19.67,19.67,0,0,1,9.53,6.9,27.84,27.84,0,0,1,5.27,10.1q2,10.79-3.51,30.46a104.89,104.89,0,0,1-7.2,17.37q-1.43,5.47-12.74,21.29a94.79,94.79,0,0,1-21.08,20q-12.5,7.62-17.43,9.34a150.78,150.78,0,0,1-16.92,5.74,81.72,81.72,0,0,1-16.39,3.16q-12,.64-16.56-2L626.55,434q6.44,1.32,22.75-1.69a65.42,65.42,0,0,0,22.2-7.38,93.2,93.2,0,0,0,24.92-16.56q12.67-11.3,12.34-27-1.44-9.89-12.79-5-10.51,5-14.37,5.92-8.1,1.23-12.78.27t-10.94-5.66a13.42,13.42,0,0,1-3.53-4.14,25.3,25.3,0,0,1-4.61-10.48q-2.36-11.4,3-27.2a87.41,87.41,0,0,1,7.79-14.18q5.08-8.92,19.09-17.37Q696.82,294.54,725.91,295Z"/><path class="cls-12" d="M551.91,254.64q2.92,30.8,7.81,62.55,1.24,9,3.5,20.39l3.46,14.13q13.48-40.27,20.26-70.93l40.56,9.45q-4.64,12.91-12.33,35-6.73,18.67-12.44,38.05Q595.95,382,591,399.39q-3.19,10.13-4.31,13.53l-9.26,1.45q-17.72,3.1-28,5.19-7-18.41-12.61-38.81-1.33-2.51-9.41-38.38-3.11-10.82-13.26-80.42,5-2.56,16.82-4.21A94.69,94.69,0,0,1,551.91,254.64Z"/><path class="cls-12" d="M703,280.88a52,52,0,0,1,13.12,2.42q-4.56,9.38-9,30.06-6.81-1.73-20.22-.91-15.53,1.25-23.57,7.42a52.73,52.73,0,0,0-9.5,11.79,13.15,13.15,0,0,0-1.35,6,2.87,2.87,0,0,0,3.71,2.27q4.55-.08,13-4.76,9.31-3.8,13.06-4a31.15,31.15,0,0,1,8.36-.86A35.62,35.62,0,0,1,703.9,332a19.67,19.67,0,0,1,9.53,6.9A27.84,27.84,0,0,1,718.7,349q2,10.79-3.51,30.46a104.89,104.89,0,0,1-7.2,17.37q-1.43,5.47-12.74,21.29a94.78,94.78,0,0,1-21.08,20q-12.5,7.62-17.43,9.34a150.82,150.82,0,0,1-16.92,5.74,81.75,81.75,0,0,1-16.39,3.16q-12,.64-16.56-2l-3.2-34.55q6.44,1.32,22.75-1.69a65.43,65.43,0,0,0,22.2-7.38,93.19,93.19,0,0,0,24.92-16.56q12.67-11.3,12.34-27-1.44-9.89-12.79-5-10.51,5-14.37,5.92-8.1,1.23-12.78.27T635,362.82a13.42,13.42,0,0,1-3.53-4.14,25.29,25.29,0,0,1-4.61-10.48q-2.36-11.4,3-27.2a87.42,87.42,0,0,1,7.79-14.18q5.08-8.92,19.09-17.37Q673.91,280.42,703,280.88Z"/></svg>