<svg id="Calque_1" data-name="Calque 1" xmlns="http://www.w3.org/2000/svg" viewBox="0 0 1000 1000"><defs><style>.cls-1{fill:#6dc5d3;}.cls-2{fill:#e6e6e6;}.cls-3{fill:none;stroke:#e6e6e6;stroke-miterlimit:10;stroke-width:7px;}</style></defs><title>cyclo-club-vizille-vignette</title><circle class="cls-1" cx="519.68" cy="490.51" r="381.32"/><circle class="cls-2" cx="519.68" cy="490.51" r="32.01"/><line class="cls-3" x1="347.5" y1="150.5" x2="549.23" y2="478.17"/><line class="cls-3" x1="385.5" y1="133.5" x2="492.29" y2="507.09"/><line class="cls-3" x1="652.5" y1="132.5" x2="547.07" y2="507.09"/><line class="cls-3" x1="690.5" y1="149.5" x2="490.86" y2="476.57"/><line class="cls-3" x1="868.5" y1="337.5" x2="535.67" y2="518.24"/><line class="cls-3" x1="885.5" y1="383.5" x2="508.81" y2="460.39"/><line class="cls-3" x1="872.5" y1="622.5" x2="503.7" y2="518.24"/><line class="cls-3" x1="846.5" y1="673.5" x2="530.55" y2="460.39"/><line class="cls-3" x1="688.5" y1="829.5" x2="489.92" y2="502.3"/><line class="cls-3" x1="629.5" y1="855.5" x2="549.23" y2="478.17"/><line class="cls-3" x1="413.5" y1="852.5" x2="490.86" y2="476.57"/><line class="cls-3" x1="349.5" y1="831.5" x2="547.07" y2="507.09"/><line class="cls-3" x1="187.5" y1="677.5" x2="508.81" y2="460.39"/><line class="cls-3" x1="162.5" y1="624.5" x2="530.47" y2="520.65"/><line class="cls-3" x1="154.5" y1="381.5" x2="530.55" y2="460.39"/><line class="cls-3" x1="170.5" y1="336.5" x2="503.7" y2="518.24"/><path class="cls-2" d="M519.68,890.33A399.92,399.92,0,0,1,364,122.12,399.92,399.92,0,0,1,675.31,858.9,397.33,397.33,0,0,1,519.68,890.33Zm0-762.64c-200.06,0-362.82,162.76-362.82,362.82S319.62,853.33,519.68,853.33,882.5,690.57,882.5,490.51,719.74,127.69,519.68,127.69Z"/></svg>