<svg id="Calque_1" data-name="Calque 1" xmlns="http://www.w3.org/2000/svg" viewBox="0 0 1000 1000"><defs><style>.cls-1{fill:#e0e0e0;}</style></defs><title>freeman-vignette-plain</title><path class="cls-1" d="M744.4,439.71c102.18-25.08,192.31-63.11,192.31-63.11L936.25,302C863,350.18,776.74,376.87,695.93,391.24L506.59,201.91,315.34,393.16c-84-13.87-174.87-40.75-251.5-91.2l-.45,74.65s96.42,40.68,202.86,65.64l-25.86,25.86A788.46,788.46,0,0,1,98.1,424.61l15.61,66.33s50.68,18.26,118.54,32.72L269,560.43c-41-3.22-88-10.12-119.52-24.7l22.24,62.09s89.11,24.11,162.13,27.47l33.59,33.59C319.8,656.16,240.28,650,205,637.62l27.58,54.9s144.2,27.91,179.89,15l-.61-4.18L506.59,798l88.6-88.59c45,7.75,172.29-16.89,172.29-16.89l27.58-54.9c-32,11.21-100.48,17.35-148.5,20.42l33.62-33.62c69.93-5.43,148.18-26.6,148.18-26.6l22.24-62.09c-27.89,12.91-67.93,19.79-105.17,23.44l39.24-39.23c59.25-13.68,101.73-29,101.73-29L902,424.61a789.9,789.9,0,0,1-131.5,41.21Z"/></svg>