<svg id="Calque_1" data-name="Calque 1" xmlns="http://www.w3.org/2000/svg" viewBox="0 0 1000 1000"><defs><style>.cls-1{fill:gold;}.cls-2{fill:#ff806f;}.cls-3{fill:#009e31;}.cls-4{fill:#0092d4;}</style></defs><title>hop-box-vignette</title><rect class="cls-1" x="421.87" y="262.22" width="142.67" height="176.64"/><rect class="cls-2" x="421.87" y="537.37" width="142.67" height="203.81"/><path class="cls-3" d="M207.87,537.37h84.92s20.38,3.4,20.38,20.38v27.18s0,13.59-17,13.59H207.87Z"/><path class="cls-3" d="M207.87,632.48h84.92s37.37,13.59,37.37,40.76V714s3.4,27.18-30.57,27.18H207.87Z"/><path class="cls-4" d="M663.05,265.61v88.32h105.3s20.38,0,20.38-27.18V286s0-20.38-20.38-20.38Z"/><polygon points="170.5 224.85 207.87 224.85 207.87 347.14 326.76 347.14 326.76 224.85 364.12 224.85 364.12 476.22 326.76 476.22 326.76 387.9 207.87 387.9 207.87 476.22 170.5 476.22 170.5 224.85"/><polygon points="622.29 503.4 649.46 503.4 724.2 608.7 802.33 503.4 829.5 503.4 829.5 530.57 747.97 639.27 829.5 754.77 829.5 775.15 798.93 775.15 724.2 673.24 649.46 775.15 622.29 775.15 622.29 751.37 700.42 642.67 622.29 527.17 622.29 503.4"/><path d="M384.51,224.85V476.22h214V224.85Zm180,214H421.87V262.22H564.54Z"/><path d="M384.51,503.4V775.15h214V503.4Zm180,237.78H421.87V537.37H564.54Z"/><path d="M775.15,224.85H622.29V476.22h40.76V391.3h112.1c47.56,0,54.35-51,54.35-51V286C829.5,231.64,775.15,224.85,775.15,224.85Zm13.59,101.91c0,27.18-20.38,27.18-20.38,27.18H663.05V265.61h105.3c20.38,0,20.38,20.38,20.38,20.38Z"/><path d="M330.15,622.29c17,0,20.38-27.18,20.38-27.18V554.35c0-44.16-44.16-51-44.16-51H173.9V775.15H299.58c57.75,0,64.54-47.56,64.54-47.56V663.05C364.12,635.88,330.15,622.29,330.15,622.29ZM207.87,537.37h84.92s20.38,3.4,20.38,20.38v27.18s0,13.59-17,13.59H207.87Zm91.72,203.81H207.87V632.48h84.92s37.37,13.59,37.37,40.76V714S333.55,741.18,299.58,741.18Z"/></svg>