<svg id="Calque_1" data-name="Calque 1" xmlns="http://www.w3.org/2000/svg" viewBox="0 0 1000 1000"><defs><style>.cls-1{fill:#e0e0e0;}</style></defs><title>hop-box-thumbnail-plain</title><polygon class="cls-1" points="326.76 347.14 207.87 347.14 207.87 224.85 170.5 224.85 170.5 476.22 207.87 476.22 207.87 387.9 326.76 387.9 326.76 476.22 364.12 476.22 364.12 224.85 326.76 224.85 326.76 347.14"/><polygon class="cls-1" points="724.2 608.7 649.46 503.4 622.29 503.4 622.29 527.17 700.42 642.67 622.29 751.37 622.29 775.15 649.46 775.15 724.2 673.24 798.93 775.15 829.5 775.15 829.5 754.77 747.97 639.27 829.5 530.57 829.5 503.4 802.33 503.4 724.2 608.7"/><rect class="cls-1" x="384.51" y="224.85" width="214.01" height="251.37"/><rect class="cls-1" x="384.51" y="503.4" width="214.01" height="271.75"/><path class="cls-1" d="M775.15,224.85H622.29V476.22h40.76V391.3h112.1c47.56,0,54.35-51,54.35-51V286C829.5,231.64,775.15,224.85,775.15,224.85Z"/><path class="cls-1" d="M330.15,622.29c17,0,20.38-27.18,20.38-27.18V554.35c0-44.16-44.16-51-44.16-51H173.9V775.15H299.58c57.75,0,64.54-47.56,64.54-47.56V663.05C364.12,635.88,330.15,622.29,330.15,622.29Z"/></svg>