<svg id="Calque_1" data-name="Calque 1" xmlns="http://www.w3.org/2000/svg" viewBox="0 0 1000 1300"><defs><style>.cls-1{fill:#e0e0e0;}</style></defs><title>hop-box-thumbnail-plain</title><polygon class="cls-1" points="326.76 497.14 207.87 497.14 207.87 374.85 170.5 374.85 170.5 626.22 207.87 626.22 207.87 537.9 326.76 537.9 326.76 626.22 364.12 626.22 364.12 374.85 326.76 374.85 326.76 497.14"/><polygon class="cls-1" points="724.2 758.7 649.46 653.4 622.29 653.4 622.29 677.17 700.42 792.67 622.29 901.37 622.29 925.15 649.46 925.15 724.2 823.24 798.93 925.15 829.5 925.15 829.5 904.77 747.97 789.27 829.5 680.57 829.5 653.4 802.33 653.4 724.2 758.7"/><rect class="cls-1" x="384.51" y="374.85" width="214.01" height="251.37"/><rect class="cls-1" x="384.51" y="653.4" width="214.01" height="271.75"/><path class="cls-1" d="M775.15,374.85H622.29V626.22h40.76V541.3h112.1c47.56,0,54.35-51,54.35-51V436C829.5,381.64,775.15,374.85,775.15,374.85Z"/><path class="cls-1" d="M330.15,772.29c17,0,20.38-27.18,20.38-27.18V704.35c0-44.16-44.16-51-44.16-51H173.9V925.15H299.58c57.75,0,64.54-47.56,64.54-47.56V813.05C364.12,785.88,330.15,772.29,330.15,772.29Z"/></svg>