<svg id="Calque_1" data-name="Calque 1" xmlns="http://www.w3.org/2000/svg" viewBox="0 0 1000 1000"><defs><style>.cls-1{fill:#3b4b65;}.cls-2{fill:none;stroke:#fff;stroke-miterlimit:10;stroke-width:7px;}.cls-3,.cls-6{fill:#fff;}.cls-3{opacity:0.9;}.cls-4{fill:#f3c61b;}.cls-5{opacity:0.9;}</style></defs><title>receipe-vignette</title><rect id="_Rectangle_" data-name="&lt;Rectangle&gt;" class="cls-1" x="200" y="200" width="600" height="600"/><g id="_Groupe_" data-name="&lt;Groupe&gt;"><line id="_Tracé_" data-name="&lt;Tracé&gt;" class="cls-2" x1="310.93" y1="655.75" x2="720.5" y2="655.75"/><circle id="_Tracé_2" data-name="&lt;Tracé&gt;" class="cls-3" cx="307.6" cy="655.75" r="18.68"/><circle id="_Tracé_3" data-name="&lt;Tracé&gt;" class="cls-4" cx="445.08" cy="655.75" r="18.68"/><circle id="_Tracé_4" data-name="&lt;Tracé&gt;" class="cls-3" cx="582.47" cy="655.75" r="18.68"/><circle id="_Tracé_5" data-name="&lt;Tracé&gt;" class="cls-3" cx="720.93" cy="655.75" r="18.68"/></g><g id="_Groupe_2" data-name="&lt;Groupe&gt;"><path class="cls-3" d="M460.78,449.63l.1,36.11-17.19.05-.27-92.42,28.19-.08a59,59,0,0,1,16.21,1.9,30.88,30.88,0,0,1,11.07,5.43,21.09,21.09,0,0,1,6.35,8.39,29.46,29.46,0,0,1,.7,19.59,25.51,25.51,0,0,1-3.94,7.55,26.61,26.61,0,0,1-6.38,6,33.42,33.42,0,0,1-8.65,4.12,17,17,0,0,1,5.64,5.29l23.24,34.07-15.47,0a7.54,7.54,0,0,1-3.81-.88,7.78,7.78,0,0,1-2.66-2.55L474.4,452.66a6.89,6.89,0,0,0-2.4-2.36,8.41,8.41,0,0,0-3.87-.69Zm0-12.34,10.74,0a26.66,26.66,0,0,0,8.47-1.24,16.37,16.37,0,0,0,5.94-3.37,13.47,13.47,0,0,0,3.47-5.09,17.49,17.49,0,0,0,1.13-6.46q0-7-4.66-10.79t-14.17-3.73l-11,0Z"/><path class="cls-3" d="M586,393l0,13.68-41,.12.07,25.63,32.28-.09,0,13.23-32.28.09.08,26.14,41-.12,0,13.74-58.29.17-.27-92.42Z"/></g><g id="_Groupe_3" data-name="&lt;Groupe&gt;" class="cls-5"><path class="cls-6" d="M514,558a117.29,117.29,0,0,1-.33-234.57H514A117.29,117.29,0,0,1,514.32,558Zm0-213.79h-.28a96.51,96.51,0,0,0,.28,193h.28a96.51,96.51,0,0,0-.28-193Z"/></g></svg>