<svg id="Calque_1" data-name="Calque 1" xmlns="http://www.w3.org/2000/svg" xmlns:xlink="http://www.w3.org/1999/xlink" viewBox="0 0 1000 1000"><defs><style>.cls-1{fill:none;}.cls-2{clip-path:url(#clip-path);}.cls-3{fill:#fff;}.cls-4{fill:#e5511e;}.cls-5{fill:#5b5a5a;}.cls-6{fill:#6f6e6e;}.cls-7{fill:#87ae2c;stroke:#b0ce62;stroke-linejoin:round;stroke-width:2px;}.cls-8{fill:#b0ce62;}.cls-9{fill:#dededd;}</style><clipPath id="clip-path"><rect class="cls-1" x="69.54" y="-162.95" width="771.17" height="1173.65" transform="translate(29.47 877.34) rotate(-89.78)"/></clipPath></defs><title>tootici-vignette</title><g class="cls-2"><circle class="cls-3" cx="364.61" cy="355.12" r="156.35" transform="translate(8.07 718.34) rotate(-89.78)"/><circle class="cls-3" cx="676.54" cy="353.32" r="153.18" transform="translate(320.57 1028.48) rotate(-89.78)"/><g id="Calque_140" data-name="Calque 140"><path class="cls-4" d="M422.87,971.31s-67.3-11.79-86.32,21.95c-4,8.74,3.95,10.12,8.51,5.66,2.78-2.71,9-6.64,18.58-9.92,21.42-6.31,59.18-3.86,59.18-3.86Z"/><path class="cls-4" d="M435.1,972.79s-68.17-1.84-82.77,34.37c-2.82,9.24,5.18,9.45,9.15,4.36,2.41-3.09,8.08-7.9,17.16-12.54,20.43-9.38,58.15-12.48,58.15-12.48Z"/><path class="cls-4" d="M452.75,978.82s-68.18,1.34-81.32,38.19c-2.45,9.36,5.56,9.2,9.31,3.93,2.28-3.2,7.75-8.27,16.64-13.33,20-10.33,57.6-15.17,57.6-15.17Z"/><path class="cls-4" d="M611.73,972s67.39-11.26,86.14,22.62c3.89,8.77-4,10.09-8.55,5.59-2.75-2.73-8.94-6.71-18.5-10.06-21.37-6.48-59.15-4.32-59.15-4.32Z"/><path class="cls-4" d="M599.49,973.43s68.18-1.3,82.49,35c2.75,9.26-5.26,9.41-9.18,4.29-2.38-3.11-8-8-17.06-12.68-20.35-9.54-58.05-12.93-58.05-12.93Z"/><path class="cls-4" d="M581.8,979.32s68.17,1.87,81,38.82c2.37,9.38-5.63,9.16-9.34,3.86-2.26-3.22-7.69-8.33-16.54-13.46-20-10.48-57.48-15.62-57.48-15.62Z"/></g><path class="cls-5" d="M517.55,1002.48c60.86.24,96.37-5.91,125.95-24.54C739.4,926.37,845,637.61,845.4,544.68c.28-71.33-17.21-125.47-17.21-125.47s-9.71,54.2-86.66,89.66c-85.73,39.5-207.15-36.22-221.65-101.69-15,65.35-137.3,140.11-222.71,99.94-76.67-36.06-86-90.33-86-90.33s-17.92,54-18.2,125.33c-1.39,354.17,103,382.5,198.5,434.83C421,995.81,456.69,1002.24,517.55,1002.48Z"/><g id="Calque_139" data-name="Calque 139"><polygon class="cls-6" points="606.09 794.69 559.02 798.38 585.24 830.86 606.09 794.69"/><polygon class="cls-6" points="662.56 786.97 615.86 793.9 644.26 824.49 662.56 786.97"/><polygon class="cls-6" points="722.78 773.74 676.82 784.56 707.69 812.66 722.78 773.74"/><polygon class="cls-6" points="430.09 794 477.13 798.06 450.65 830.33 430.09 794"/><polygon class="cls-6" points="494.65 798.52 541.86 798.71 518.12 833.04 494.65 798.52"/><polygon class="cls-6" points="373.66 791.6 420.3 798.9 391.66 829.26 373.66 791.6"/><polygon class="cls-6" points="313.54 777.9 359.41 789.08 328.33 816.93 313.54 777.9"/><polygon class="cls-6" points="510.42 858.43 463.24 856.61 485.5 891.92 510.42 858.43"/><polygon class="cls-6" points="447.92 854.7 401.14 848.33 419.88 885.62 447.92 854.7"/><polygon class="cls-6" points="386.72 847.15 340.48 837.63 356.66 876.11 386.72 847.15"/><polygon class="cls-6" points="523.34 858.48 570.53 857.03 547.99 892.16 523.34 858.48"/><polygon class="cls-6" points="585.87 855.24 632.69 849.24 613.65 886.38 585.87 855.24"/><polygon class="cls-6" points="647.12 848.17 693.44 839.02 676.95 877.36 647.12 848.17"/><polygon class="cls-6" points="605.62 912.72 558.56 916.41 584.78 948.88 605.62 912.72"/><polygon class="cls-6" points="662.09 905 615.39 911.93 643.8 942.51 662.09 905"/><polygon class="cls-6" points="429.63 912.03 476.66 916.09 450.18 948.36 429.63 912.03"/><polygon class="cls-6" points="494.19 916.55 541.4 916.74 517.65 951.07 494.19 916.55"/><polygon class="cls-6" points="373.22 903.87 419.86 911.16 391.22 941.52 373.22 903.87"/></g></g><polygon class="cls-7" points="106.69 861.68 233.27 805.72 786.7 802.12 907.69 864.82 106.69 861.68"/><polygon class="cls-8" points="428.59 811.17 422.21 824.57 393.77 824.46 399.34 816.16 428.59 811.17"/><path class="cls-5" d="M819.68,408s68.52,102.65,68,232.88c-.67,171-112.77,223.73-155.3,49.24"/><path class="cls-5" d="M211.94,411.63s-58.75,101.86-59.26,232.1c-.67,171,105.23,230.34,149.13,56.19"/><g id="yeux"><path class="cls-4" d="M321.56,359.26a43.72,43.72,0,1,1,43.56,43.9A43.72,43.72,0,0,1,321.56,359.26Z"/><path class="cls-4" d="M566.58,119.7a5.45,5.45,0,0,0-5.42-5.47,5.34,5.34,0,0,0-1.36.17L324,196.48a165.83,165.83,0,0,0-27.18,9.46l-1.37.48v.14A166.45,166.45,0,1,0,527,394.58l39.48-274.19A5.44,5.44,0,0,0,566.58,119.7ZM362.44,499.19A141.2,141.2,0,1,1,504.16,358.54,141.22,141.22,0,0,1,362.44,499.19Z"/><path class="cls-4" d="M730.88,363.89A43.73,43.73,0,1,1,687.31,320,43.72,43.72,0,0,1,730.88,363.89Z"/><path class="cls-4" d="M474.06,597.51a5.44,5.44,0,0,0,6.79,5.3l235.82-82.07a165.83,165.83,0,0,0,27.17-9.46l1.37-.48v-.14a166.45,166.45,0,1,0-231.6-188L474.13,596.82A5.58,5.58,0,0,0,474.06,597.51ZM678.21,218A141.2,141.2,0,1,1,536.48,358.67,141.22,141.22,0,0,1,678.21,218Z"/></g><path class="cls-9" d="M242.95,679.39s42.95-67.44,65.84,33S290.76,855.76,264,743"/><path class="cls-9" d="M293,679.59s42.95-67.44,65.84,33-18,143.33-44.74,30.55"/><path class="cls-9" d="M342,679.78s47.76-68.41,65.84,33c25.44,142.73-18,143.33-44.74,30.55"/><path class="cls-5" d="M239,682.7s45.39-63.21,68.07,31S290.76,841.78,257,742.32"/><path class="cls-5" d="M291.38,682.91s42.51-63.22,65.19,31-17.81,134.39-44.29,28.64"/><path class="cls-5" d="M339.94,683.1s45-63.79,65.19,31c29.11,136.66-17.81,134.39-44.29,28.64"/><path class="cls-9" d="M788.87,583.57s-42.42-67.77-66.09,32.52,16.9,143.47,44.5,30.9"/><path class="cls-9" d="M738.85,583.37s-42.42-67.77-66.09,32.52,16.9,143.47,44.5,30.9"/><path class="cls-9" d="M689.82,583.18s-42.42-67.77-66.09,32.52,16.9,143.47,44.5,30.9"/><path class="cls-5" d="M795.69,589.8s-47.76-66.46-71.18,27.57,13.69,133.22,52.72,26.14"/><path class="cls-5" d="M740.41,586.7s-42-63.55-65.43,30.48,16.76,134.53,44.07,29"/><path class="cls-5" d="M691.85,586.51S649.84,523,626.42,617s16.76,134.53,44.07,29"/><polygon class="cls-8" points="432.75 824.62 439.65 811.28 647.77 812.03 658.44 825.5 432.75 824.62"/><polygon class="cls-8" points="667.84 825.54 656.72 812.06 684.57 812.17 696.24 825.65 667.84 825.54"/><polygon class="cls-8" points="749.52 822.97 799.09 822.77 780.12 809.34 738.05 809.5 749.52 822.97"/><polygon class="cls-8" points="104.05 861.67 106.62 880.87 907.62 884.01 910.81 864.83 104.05 861.67"/><polygon class="cls-8" points="755.65 833.11 786.28 833.23 799.48 848.05 758.2 847.89 755.65 833.11"/><polygon class="cls-8" points="652.39 835.65 684.27 835.77 690.8 853.29 652.33 853.14 652.39 835.65"/></svg>