<svg id="Calque_1" data-name="Calque 1" xmlns="http://www.w3.org/2000/svg" viewBox="0 0 1000 1000"><defs><style>.cls-1{fill:#f2f2f2;}</style></defs><title>tootici-vignette-plain</title><path class="cls-1" d="M907.69,864.82l-121-62.7-12.43.08q3.61-7.91,7.1-15.91C829.65,825,887.21,763.2,887.69,640.84,888,556.65,859.5,484,839.3,443.15c-3.33-14.88-6.11-23.51-6.11-23.51s-.4-.84-1.19-2.27A166.46,166.46,0,0,0,547.33,253.68l19.19-133.29a5.35,5.35,0,0,0,.06-.69,5.44,5.44,0,0,0-5.42-5.47,5.33,5.33,0,0,0-1.36.17L324,196.48a165.85,165.85,0,0,0-27.18,9.46l-1.37.48v.14A166.56,166.56,0,0,0,209,417c-11.85,22.57-55.9,114-56.34,226.73-.4,101.44,36.73,163.6,76.16,161l.86,2.58-123,54.39,645.89,2.53-648.53-2.54,2.57,19.2,801,3.14,3.2-19.18Z"/></svg>