<svg id="Calque_1" data-name="Calque 1" xmlns="http://www.w3.org/2000/svg" viewBox="0 0 112 112"><defs><style>.cls-1{fill:#e0f3f8;}.cls-2{fill:#04a1d2;}</style></defs><title>skills-wordpress</title><path class="cls-1" d="M89,56A33,33,0,1,1,56.08,23,33,33,0,0,1,89,56Zm-64,.26C25.36,73.59,39.41,87.34,56.43,87a31,31,0,1,0-.9-62C38.46,25.36,24.65,39.51,25,56.26Z"/><path class="cls-2" d="M25,56.26C24.65,39.51,38.46,25.36,55.53,25a31,31,0,1,1,.9,62C39.41,87.34,25.36,73.59,25,56.26Zm45.33,23a10.84,10.84,0,0,0,1.19-.61,27.47,27.47,0,0,0,9.87-33.3c-.21-.49-.23-1.15-1-1.42a27.26,27.26,0,0,1-1.63,10.31q-4,11.62-8.06,23.24c-.2.59-.64,1.15-.3,1.83l-.24,0s.07.09.08.09A.89.89,0,0,0,70.33,79.31Zm-27,1c.17.09.36.18.47-.05,0-.06-.11-.19-.17-.29C41.76,74.75,39.92,69.52,38,64.3c-2.31-6.37-4.65-12.72-7-19.19C25.48,56.21,29.21,73.07,43.33,80.33ZM74.38,35.48c-7.66-6.26-16-8.4-25.27-6.07A26.72,26.72,0,0,0,33.17,40.84a61.62,61.62,0,0,0,8.38-.23c.82-.09,1.65,0,1.69,1.08s-.69,1.09-1.45,1.19a6.12,6.12,0,0,0-2.51.51l9.91,29.47c1.09-3.25,2-5.93,2.88-8.62,1-3.12,2.87-6.27,2.83-9.38s-2.1-6.16-3-9.31c-.54-1.8-1.36-2.79-3.31-2.7-.75,0-1.52-.19-1.46-1.14s.86-1.16,1.7-1.11c1.81.1,3.61.27,5.42.27,2.52,0,5-.13,7.56-.23.91,0,2-.29,2.13,1s-1.09,1.17-2,1.3a2.25,2.25,0,0,1-.38,0c-1.39,0-1.68.45-1.21,1.82,3,8.73,5.91,17.49,8.87,26.24.12.37.14.84.72,1.1,1.17-3.75,2.26-7.46,3.51-11.12,1.89-5.52,1.4-10.67-2-15.49a11.84,11.84,0,0,1-1-1.86C68.61,39.81,70,36.78,74.38,35.48ZM56.51,58.42c-2.73,7.94-5.31,15.44-7.91,22.93-.36,1,.28,1.22,1,1.39a27.8,27.8,0,0,0,14.18-.35c1.07-.3,1.26-.73.84-1.78-1.09-2.76-2.05-5.57-3.07-8.36Z"/><path class="cls-1" d="M74.38,35.48c-4.4,1.3-5.77,4.33-4,8.18a11.84,11.84,0,0,0,1,1.86c3.41,4.81,3.89,10,2,15.49-1.25,3.66-2.33,7.38-3.51,11.12-.58-.26-.6-.73-.72-1.1-3-8.75-5.87-17.51-8.87-26.24-.47-1.37-.17-1.86,1.21-1.82a2.25,2.25,0,0,0,.38,0c.87-.13,2.07,0,2-1.3s-1.23-1-2.13-1c-2.52.1-5,.22-7.56.23-1.81,0-3.61-.17-5.42-.27-.84,0-1.64.08-1.7,1.11s.72,1.18,1.46,1.14c2-.1,2.78.9,3.31,2.7.94,3.15,3,6.2,3,9.31s-1.8,6.26-2.83,9.38c-.89,2.69-1.8,5.38-2.88,8.62L39.28,43.39a6.12,6.12,0,0,1,2.51-.51c.76-.1,1.49-.24,1.45-1.19s-.87-1.17-1.69-1.08a61.62,61.62,0,0,1-8.38.23A26.72,26.72,0,0,1,49.11,29.41C58.4,27.08,66.72,29.22,74.38,35.48Z"/><path class="cls-1" d="M56.51,58.42l5.05,13.83c1,2.79,2,5.6,3.07,8.36.42,1.05.23,1.48-.84,1.78a27.8,27.8,0,0,1-14.18.35c-.73-.17-1.37-.35-1-1.39C51.2,73.86,53.78,66.35,56.51,58.42Z"/><path class="cls-1" d="M43.33,80.33C29.21,73.07,25.48,56.21,31,45.11c2.37,6.48,4.72,12.83,7,19.19,1.89,5.22,3.73,10.45,5.59,15.67Z"/><path class="cls-1" d="M70.35,79.36c-.34-.68.1-1.24.3-1.83q4-11.63,8.06-23.24A27.26,27.26,0,0,0,80.34,44c.82.27.83.93,1,1.42a27.47,27.47,0,0,1-9.87,33.3,10.84,10.84,0,0,1-1.19.61Z"/><path class="cls-1" d="M70.33,79.31a.89.89,0,0,1-.14.1s-.05-.06-.08-.09l.24,0Z"/><path class="cls-1" d="M43.62,80c.06.1.2.24.17.29-.11.24-.3.14-.47.05Z"/></svg>