<svg id="Calque_1" data-name="Calque 1" xmlns="http://www.w3.org/2000/svg" viewBox="0 0 112 112"><defs><style>.cls-1{fill:#dd0031;}.cls-2{fill:#c3002f;}.cls-3{fill:#fff;}</style></defs><title>skills-angular</title><polygon class="cls-1" points="56 24 56 24 56 24 26.21 34.62 30.75 74.02 56 88 56 88 56 88 81.25 74.02 85.79 34.62 56 24"/><polygon class="cls-2" points="56 24 56 31.1 56 31.07 56 63.49 56 63.49 56 88 56 88 81.25 74.02 85.79 34.62 56 24"/><path class="cls-3" d="M56,31.07,37.38,72.83h6.94l3.74-9.34H63.87l3.74,9.34h6.94L56,31.07Zm5.44,26.66H50.56L56,44.64Z"/></svg>