<svg id="Calque_1" data-name="Calque 1" xmlns="http://www.w3.org/2000/svg" viewBox="0 0 112 112"><defs><style>.cls-1{fill:#e0f3f8;}.cls-2{fill:#04a1d2;}</style></defs><title>skills-wordpress</title><path class="cls-1" d="M87,56A31,31,0,1,1,56.07,25,31,31,0,0,1,87,56Zm-60.12.24A29.13,29.13,0,1,0,55.56,26.86C39.53,27.21,26.55,40.51,26.88,56.24Z"/><path class="cls-2" d="M26.88,56.24c-.33-15.73,12.65-29,28.68-29.38A29.14,29.14,0,1,1,26.88,56.24ZM69.46,77.89a10.19,10.19,0,0,0,1.12-.57A25.8,25.8,0,0,0,79.84,46c-.2-.46-.21-1.08-1-1.33a25.61,25.61,0,0,1-1.53,9.69q-3.8,10.91-7.57,21.84c-.19.55-.6,1.08-.28,1.72l-.22,0s.07.09.07.08A.84.84,0,0,0,69.46,77.89Zm-25.36,1c.16.09.34.17.44-.05,0-.06-.1-.18-.16-.28-1.75-4.91-3.48-9.83-5.25-14.72-2.17-6-4.37-11.95-6.6-18C27.33,56.2,30.83,72,44.1,78.85ZM73.26,36.73c-7.2-5.88-15-7.89-23.74-5.7a25.1,25.1,0,0,0-15,10.74,57.88,57.88,0,0,0,7.88-.22c.77-.08,1.55,0,1.58,1s-.65,1-1.36,1.12a5.75,5.75,0,0,0-2.36.48L49.6,71.84c1-3,1.88-5.57,2.71-8.1,1-2.94,2.7-5.89,2.66-8.81s-2-5.79-2.86-8.74c-.51-1.69-1.28-2.62-3.11-2.53-.7,0-1.42-.18-1.37-1.07s.8-1.09,1.6-1c1.7.09,3.4.26,5.09.25,2.37,0,4.73-.12,7.1-.21.85,0,1.9-.27,2,.93s-1,1.1-1.84,1.22a2.12,2.12,0,0,1-.36,0c-1.3,0-1.58.42-1.14,1.71,2.82,8.2,5.55,16.43,8.33,24.65.12.35.14.79.68,1,1.1-3.52,2.12-7,3.29-10.45,1.77-5.19,1.32-10-1.89-14.55a11.13,11.13,0,0,1-1-1.75C67.84,40.79,69.13,37.94,73.26,36.73ZM56.48,58.27c-2.57,7.46-5,14.51-7.43,21.54-.34,1,.26,1.14.95,1.31a26.12,26.12,0,0,0,13.32-.33c1-.28,1.18-.69.79-1.68-1-2.59-1.93-5.23-2.88-7.86Z"/><path class="cls-1" d="M73.26,36.73c-4.14,1.22-5.42,4.07-3.74,7.68a11.13,11.13,0,0,0,1,1.75c3.2,4.52,3.66,9.36,1.89,14.55-1.17,3.44-2.19,6.93-3.29,10.45-.54-.25-.56-.69-.68-1-2.77-8.22-5.51-16.45-8.33-24.65-.44-1.29-.16-1.75,1.14-1.71a2.12,2.12,0,0,0,.36,0c.81-.12,1.94,0,1.84-1.22s-1.15-1-2-.93c-2.37.09-4.73.21-7.1.21-1.7,0-3.4-.16-5.09-.25-.79,0-1.54.08-1.6,1s.67,1.11,1.37,1.07c1.83-.09,2.61.84,3.11,2.53.88,3,2.82,5.82,2.86,8.74s-1.69,5.88-2.66,8.81c-.83,2.53-1.69,5.05-2.71,8.1L40.29,44.16a5.75,5.75,0,0,1,2.36-.48c.71-.1,1.4-.23,1.36-1.12s-.81-1.09-1.58-1a57.88,57.88,0,0,1-7.88.22A25.1,25.1,0,0,1,49.52,31C58.26,28.83,66.07,30.84,73.26,36.73Z"/><path class="cls-1" d="M56.48,58.27l4.75,13c1,2.62,1.86,5.26,2.88,7.86.39,1,.22,1.39-.79,1.68A26.12,26.12,0,0,1,50,81.12c-.68-.16-1.29-.33-.95-1.31C51.49,72.78,53.91,65.73,56.48,58.27Z"/><path class="cls-1" d="M44.1,78.85C30.83,72,27.33,56.2,32.52,45.77c2.23,6.08,4.43,12.05,6.6,18,1.77,4.9,3.5,9.82,5.25,14.72Z"/><path class="cls-1" d="M69.48,77.94c-.32-.64.09-1.17.28-1.72q3.77-10.92,7.57-21.84a25.61,25.61,0,0,0,1.53-9.69c.77.25.78.87,1,1.33a25.8,25.8,0,0,1-9.27,31.28,10.19,10.19,0,0,1-1.12.57Z"/><path class="cls-1" d="M69.46,77.89a.84.84,0,0,1-.13.1s0-.05-.07-.08l.22,0Z"/><path class="cls-1" d="M44.37,78.53c.06.09.19.22.16.28-.1.22-.28.14-.44.05Z"/></svg>