<svg id="Calque_1" data-name="Calque 1" xmlns="http://www.w3.org/2000/svg" viewBox="0 0 112 112"><defs><style>.cls-1{fill:#563b7d;}.cls-2{fill:#fdfdfd;}.cls-3{fill:#f8f7fa;}.cls-4{fill:#fff;}</style></defs><title>skills-bootstrap</title><circle class="cls-1" cx="56" cy="56" r="56"/><path class="cls-2" d="M71.49,46.58q0,5.54,0,11.07c0,3.2-1.94,5.14-5.15,5.14H44.12c-3.21,0-5.17-1.94-5.17-5.13q0-11.19,0-22.38a4.71,4.71,0,0,1,4.88-5q11.39-.06,22.78,0a4.69,4.69,0,0,1,4.88,5Q71.5,40.93,71.49,46.58ZM59.8,45.86l.47-.29a3.92,3.92,0,0,0,1.74-4,3.61,3.61,0,0,0-2.27-3.14,6.93,6.93,0,0,0-2.89-.54c-2.57,0-5.13,0-7.7,0-.6,0-.82.12-.81.78q0,8,0,16c0,.59.13.78.75.77,2.51,0,5,0,7.54,0a9.19,9.19,0,0,0,2.84-.43,4.38,4.38,0,0,0,3.12-2.85c.62-2,.2-5.26-2.67-6.05C59.88,46,59.85,45.92,59.8,45.86Z"/><path class="cls-1" d="M59.8,45.86c.05.07.08.13.12.14,2.87.79,3.29,4,2.67,6.05a4.38,4.38,0,0,1-3.12,2.85,9.19,9.19,0,0,1-2.84.43c-2.51,0-5,0-7.54,0-.61,0-.75-.18-.75-.77q0-8,0-16c0-.66.21-.79.81-.78,2.57,0,5.13,0,7.7,0a6.93,6.93,0,0,1,2.89.54A3.61,3.61,0,0,1,62,41.54a3.92,3.92,0,0,1-1.74,4Zm-5.35,6.95v0c.93,0,1.88.07,2.8,0a2.67,2.67,0,0,0-.18-5.34c-1.68,0-3.37,0-5.05,0-.46,0-.6.15-.59.6,0,1.42,0,2.83,0,4.25,0,.48.18.59.61.58C52.84,52.79,53.65,52.81,54.45,52.81Zm-.18-7.65h1.52A5,5,0,0,0,57.3,45a2.3,2.3,0,0,0,1.63-2.68,1.91,1.91,0,0,0-2.08-1.89c-1.65-.06-3.31,0-5,0-.34,0-.46.13-.46.48q0,1.88,0,3.77c0,.38.13.52.51.51C52.72,45.14,53.49,45.15,54.27,45.15Z"/><path class="cls-3" d="M54.45,52.81c-.8,0-1.6,0-2.41,0-.43,0-.62-.1-.61-.58,0-1.42,0-2.83,0-4.25,0-.45.13-.61.59-.6,1.68,0,3.37,0,5.05,0a2.67,2.67,0,0,1,.18,5.34c-.93.09-1.87,0-2.8,0Z"/><path class="cls-2" d="M54.27,45.15c-.77,0-1.55,0-2.32,0-.38,0-.52-.13-.51-.51q0-1.88,0-3.77c0-.35.11-.48.46-.48,1.66,0,3.31,0,5,0a1.91,1.91,0,0,1,2.08,1.89A2.3,2.3,0,0,1,57.3,45a5,5,0,0,1-1.51.13Z"/><path class="cls-4" d="M25.09,68.67a15.61,15.61,0,0,1,2.72-.21,4.85,4.85,0,0,1,2.93.65A2.16,2.16,0,0,1,31.8,71a2.38,2.38,0,0,1-1.7,2.22v0a2.58,2.58,0,0,1,2.06,2.53,2.65,2.65,0,0,1-1,2.11c-.73.64-1.93,1-3.79,1a18.16,18.16,0,0,1-2.29-.14Zm1.85,4h1c1.29,0,2-.61,2-1.47s-.73-1.4-1.91-1.4a5.07,5.07,0,0,0-1.06.08Zm0,4.7a8.15,8.15,0,0,0,1,0c1.2,0,2.26-.46,2.26-1.71s-1-1.67-2.32-1.67h-.93Z"/><path class="cls-4" d="M40.69,75a3.66,3.66,0,0,1-3.79,3.93,3.57,3.57,0,0,1-3.7-3.81A3.65,3.65,0,0,1,37,71.21,3.55,3.55,0,0,1,40.69,75Zm-5.57.08c0,1.43.7,2.5,1.84,2.5s1.81-1,1.81-2.53c0-1.15-.52-2.47-1.79-2.47S35.12,73.85,35.12,75.08Z"/><path class="cls-4" d="M49.08,75a3.66,3.66,0,0,1-3.79,3.93,3.57,3.57,0,0,1-3.7-3.81,3.65,3.65,0,0,1,3.82-3.92A3.55,3.55,0,0,1,49.08,75Zm-5.57.08c0,1.43.7,2.5,1.84,2.5s1.81-1,1.81-2.53c0-1.15-.52-2.47-1.79-2.47S43.51,73.85,43.51,75.08Z"/><path class="cls-4" d="M52.59,69.26v2.11h1.78v1.4H52.59V76c0,.9.24,1.37,1,1.37a2.75,2.75,0,0,0,.73-.09l0,1.43a4.11,4.11,0,0,1-1.35.18,2.16,2.16,0,0,1-1.61-.61,2.94,2.94,0,0,1-.58-2.06V72.77H49.7v-1.4h1.06V69.7Z"/><path class="cls-4" d="M55.51,77a4.16,4.16,0,0,0,1.9.53c.82,0,1.18-.33,1.18-.82s-.3-.76-1.21-1.08c-1.44-.5-2-1.29-2-2.16,0-1.3,1.08-2.32,2.79-2.32a4.33,4.33,0,0,1,2,.44L59.73,73a3.32,3.32,0,0,0-1.56-.42c-.67,0-1,.32-1,.77s.35.7,1.29,1c1.33.49,2,1.17,2,2.26,0,1.34-1,2.31-3,2.31a4.77,4.77,0,0,1-2.25-.52Z"/><path class="cls-4" d="M63.91,69.26v2.11h1.78v1.4H63.91V76c0,.9.24,1.37,1,1.37a2.75,2.75,0,0,0,.73-.09l0,1.43a4.11,4.11,0,0,1-1.35.18,2.16,2.16,0,0,1-1.61-.61,2.94,2.94,0,0,1-.58-2.06V72.77H61v-1.4h1.06V69.7Z"/><path class="cls-4" d="M66.92,73.76c0-1,0-1.72-.06-2.38h1.62l.06,1.41h.06a2.2,2.2,0,0,1,2-1.58,1.94,1.94,0,0,1,.44,0V73a2.61,2.61,0,0,0-.55-.06,1.64,1.64,0,0,0-1.67,1.41,3.16,3.16,0,0,0-.06.58v3.82H66.92Z"/><path class="cls-4" d="M76.18,78.76l-.12-.82h0a2.75,2.75,0,0,1-2.19,1,2.19,2.19,0,0,1-2.32-2.2c0-1.87,1.65-2.81,4.39-2.79v-.12c0-.49-.2-1.29-1.5-1.29a3.91,3.91,0,0,0-2,.55L72,71.86a5.32,5.32,0,0,1,2.67-.65c2.37,0,3,1.5,3,3.11V77a11.86,11.86,0,0,0,.11,1.78Zm-.24-3.61c-1.32,0-2.58.26-2.58,1.38a1,1,0,0,0,1.06,1.06,1.51,1.51,0,0,0,1.46-1,1.34,1.34,0,0,0,.06-.41Z"/><path class="cls-4" d="M79.57,73.83c0-1,0-1.76-.06-2.46h1.64l.09,1.14h0a2.88,2.88,0,0,1,2.53-1.31c1.7,0,3.11,1.46,3.11,3.76,0,2.67-1.68,4-3.37,4a2.43,2.43,0,0,1-2.08-1h0v3.82H79.57Zm1.87,1.84a1.92,1.92,0,0,0,.06.52,1.69,1.69,0,0,0,1.64,1.3c1.18,0,1.88-1,1.88-2.44,0-1.31-.64-2.37-1.84-2.37a1.74,1.74,0,0,0-1.67,1.38,1.69,1.69,0,0,0-.08.47Z"/></svg>