<svg id="Calque_1" data-name="Calque 1" xmlns="http://www.w3.org/2000/svg" viewBox="0 0 112 112"><defs><style>.cls-1{fill:#563b7d;}.cls-2{fill:#fdfdfd;}.cls-3{fill:#f8f7fa;}</style></defs><title>skills-bootstrap</title><circle class="cls-1" cx="56" cy="56" r="56"/><path class="cls-2" d="M81,56.1q0,8.5,0,17C81,78,78,81,73.08,81H39C34,81,31,78,31,73.11q0-17.18,0-34.36c0-4.53,3-7.68,7.5-7.7Q56,31,73.5,31C78,31.07,81,34.2,81,38.74Q81,47.42,81,56.1ZM63,55l.73-.44c2.28-1.46,2.9-3.63,2.67-6.19A5.54,5.54,0,0,0,63,43.54a10.64,10.64,0,0,0-4.44-.83c-3.94,0-7.88,0-11.82,0-.92,0-1.25.18-1.25,1.2q.07,12.25,0,24.51c0,.9.2,1.2,1.15,1.19,3.86-.05,7.72,0,11.58,0a14.1,14.1,0,0,0,4.36-.67c2.24-.74,4.07-2,4.8-4.38.95-3.11.3-8.07-4.1-9.29C63.16,55.19,63.12,55.09,63,55Z"/><path class="cls-1" d="M63,55c.08.1.12.2.18.22,4.4,1.22,5.05,6.19,4.1,9.29-.73,2.38-2.55,3.64-4.8,4.38a14.1,14.1,0,0,1-4.36.67c-3.86,0-7.72,0-11.58,0-.94,0-1.15-.28-1.15-1.19q.05-12.25,0-24.51c0-1,.32-1.21,1.25-1.2,3.94,0,7.88,0,11.82,0a10.64,10.64,0,0,1,4.44.83,5.54,5.54,0,0,1,3.49,4.83c.24,2.55-.38,4.73-2.67,6.19ZM54.82,65.66V65.6c1.44,0,2.88.11,4.3,0a3.83,3.83,0,0,0,3.81-4.36c-.07-2.3-1.58-3.77-4.09-3.84s-5.17,0-7.75,0c-.7,0-.92.23-.91.92,0,2.17,0,4.35,0,6.52,0,.73.28.91.94.89C52.36,65.63,53.59,65.66,54.82,65.66Zm-.27-11.75h2.34a7.67,7.67,0,0,0,2.32-.2,3.53,3.53,0,0,0,2.51-4.12,2.93,2.93,0,0,0-3.19-2.9c-2.54-.1-5.09,0-7.63-.07-.53,0-.71.2-.7.73q0,2.89,0,5.78c0,.59.2.8.78.78C52.17,53.89,53.36,53.91,54.55,53.91Z"/><path class="cls-3" d="M54.82,65.66c-1.23,0-2.46,0-3.69,0-.67,0-1-.16-.94-.89,0-2.17,0-4.35,0-6.52,0-.69.21-.93.91-.92,2.58,0,5.17,0,7.75,0s4,1.55,4.09,3.84a3.83,3.83,0,0,1-3.81,4.36c-1.42.14-2.87,0-4.3,0Z"/><path class="cls-2" d="M54.55,53.91c-1.19,0-2.38,0-3.57,0-.59,0-.79-.2-.78-.78q0-2.89,0-5.78c0-.53.17-.74.7-.73,2.54,0,5.09,0,7.63.07a2.93,2.93,0,0,1,3.19,2.9,3.53,3.53,0,0,1-2.51,4.12,7.67,7.67,0,0,1-2.32.2Z"/></svg>