<svg id="Calque_1" data-name="Calque 1" xmlns="http://www.w3.org/2000/svg" viewBox="0 0 112 112"><defs><style>.cls-1{fill:#0072b9;}.cls-2{fill:#004974;}.cls-3{fill:#fefefe;}.cls-4{fill:#00598d;}.cls-5{fill:#92c4e3;}.cls-6{fill:#0073b9;}.cls-7{fill:#006cae;}.cls-8{fill:#004a83;}.cls-9{fill:#005188;}.cls-10{fill:#0065a3;}</style></defs><title>skills-drupal</title><path class="cls-1" d="M52.89,27.14c.18-.55.57-1,.79-1.52a18.09,18.09,0,0,0,1-3.88c0-.12,0-.25.08-.44.33.39.62.73.91,1.08a47.89,47.89,0,0,0,3.61,4.09,20.85,20.85,0,0,0,4.62,3.41,36.64,36.64,0,0,0,3.82,1.65A28.89,28.89,0,0,1,73,34.36,32,32,0,0,1,77.43,38a19.75,19.75,0,0,1,2.81,3.24,6.43,6.43,0,0,1,.55,2.55,20.56,20.56,0,0,1-.27,3.86,17.16,17.16,0,0,1-1.32,4.13,25.6,25.6,0,0,1-4,5.88,43.48,43.48,0,0,1-4.64,4.48c-1.65,1.43-3.39,2.75-5.17,4a6.48,6.48,0,0,1-.66.48,1.93,1.93,0,0,1-.74-.42c-1.9-1.33-3.82-2.61-5.81-3.78a14.34,14.34,0,0,0-4.78-1.9,15,15,0,0,0-3.43,0c-2.66.14-4.76,1.47-6.74,3.07a8.46,8.46,0,0,0-1.74,2.24A9.64,9.64,0,0,0,40.23,69a7.64,7.64,0,0,0,.23,4.28c.15.4.34.79.5,1.19a5.19,5.19,0,0,0,2,2.18c.14.1.4.14.33.43a4.67,4.67,0,0,1-1.54.31,18,18,0,0,1-4.33.18A10,10,0,0,1,32,75.83a3.89,3.89,0,0,1-.79-.84,16.9,16.9,0,0,1-1.65-3.05,28,28,0,0,1-1.72-5,30.4,30.4,0,0,1-.78-5.16,26.21,26.21,0,0,1,0-3.22,29.59,29.59,0,0,1,.81-5.46,31,31,0,0,1,3.79-9c.08-.13.13-.29.3-.36.12.27-.06.47-.15.68a3.18,3.18,0,0,0-.26,1.47,1.05,1.05,0,0,0,.75,1,2.8,2.8,0,0,0,1.4.06,16,16,0,0,0,4.21-1.48,48.36,48.36,0,0,0,9.66-6A31.55,31.55,0,0,0,53,34a9.45,9.45,0,0,0,1.14-1.87,1.32,1.32,0,0,0-.19-1.63.46.46,0,0,1,0-.72c.17-.17.34-.36.52-.52a3.75,3.75,0,0,0,1.22-3.38,14.09,14.09,0,0,0-.64-3,4.75,4.75,0,0,1-.18-.71,16.07,16.07,0,0,1-.61,2.75,8.11,8.11,0,0,1-1,2.07C53.14,27,53.07,27.17,52.89,27.14Z"/><path class="cls-2" d="M54.4,20c1.22,1.44,2.4,2.81,3.56,4.21a20.66,20.66,0,0,0,8.87,6.36,30,30,0,0,1,9.78,6,33,33,0,0,1,7.53,9.79,30.46,30.46,0,0,1,3.16,10.38A30,30,0,0,1,85,72.31a28.85,28.85,0,0,1-5.16,7.82,29.92,29.92,0,0,1-15.35,9,29,29,0,0,1-5,.79,31.78,31.78,0,0,1-13-1.77,30.17,30.17,0,0,1-17.08-15.3,29.2,29.2,0,0,1-2.73-9.61,32.36,32.36,0,0,1-.13-4.85,29.78,29.78,0,0,1,2.62-10.77A28.66,28.66,0,0,1,34,40a33.72,33.72,0,0,1,8.83-7,68.43,68.43,0,0,0,6.22-3.5,15.07,15.07,0,0,0,3-2.44,8.53,8.53,0,0,0,1.64-3.47A31.83,31.83,0,0,0,54.4,20Z"/><path class="cls-3" d="M43.33,77.05a7.53,7.53,0,0,1-1.92-1.63,8,8,0,0,1-1.45-4,9.76,9.76,0,0,1,1-4.93,11,11,0,0,1,5-4.91,12.16,12.16,0,0,1,4.4-1.18c3.21-.41,5.92.8,8.53,2.41,2,1.21,3.88,2.5,5.78,3.8.25,0,.42.16.61.26a6,6,0,0,0,2.22.84h.91a7.87,7.87,0,0,0,3.18-1.35c2-1.24,3.88-2.56,5.83-3.84a7.56,7.56,0,0,1,2.82-1.25,3.84,3.84,0,0,1,3.28.91,5.27,5.27,0,0,1,1.57,2.91,9.35,9.35,0,0,1,.1,3.46,12.16,12.16,0,0,1-1,3.94,20.13,20.13,0,0,1-1.35,2.68l-.78,1.13a8.27,8.27,0,0,1-1.11,1.18,2.78,2.78,0,0,1-1.42.64,3.84,3.84,0,0,1-3.45-1.38c-.92-.89-1.74-1.87-2.66-2.76a34.25,34.25,0,0,0-3.08-2.69,4.34,4.34,0,0,0-4.79-.34c-1.19.56-2.27,1.3-3.4,2-2.16,1.25-4.28,2.58-6.52,3.69a16.87,16.87,0,0,1-5.12,1.73,13.21,13.21,0,0,1-1.81.05,13.34,13.34,0,0,1-2.87-.17,8.83,8.83,0,0,1-2.34-1A.28.28,0,0,1,43.33,77.05Z"/><path class="cls-4" d="M43.33,77.05a7.9,7.9,0,0,0,3.37,1.18,15.11,15.11,0,0,0,7.64-1.17c2.47-1.13,4.77-2.56,7.12-3.9,1.26-.72,2.45-1.55,3.76-2.18a6.12,6.12,0,0,1,2.62-.75,4.23,4.23,0,0,1,2,.63,13.29,13.29,0,0,1,2.49,2c1.31,1.16,2.46,2.49,3.71,3.71.29.28.6.53.9.8a3.13,3.13,0,0,0,2.58.66c-.06.48-.48.72-.76,1a26.36,26.36,0,0,1-2.07,2.07A31.18,31.18,0,0,1,74,83.39a34.38,34.38,0,0,1-3.39,2.21,31.53,31.53,0,0,1-7,3,25.55,25.55,0,0,1-3.28.66h0a.05.05,0,0,0,0,.07,8.37,8.37,0,0,1-1.73.15,20.62,20.62,0,0,1-2.76,0c-1.05-.06-2.1-.19-3.14-.34a31.62,31.62,0,0,1-5.81-1.44,30.86,30.86,0,0,1-7.75-4,31.46,31.46,0,0,1-4.7-4.27,26.75,26.75,0,0,1-3-4.08,1.85,1.85,0,0,1-.13-.32,8.79,8.79,0,0,0,2.13,1.5,11.41,11.41,0,0,0,3.31.91,20.86,20.86,0,0,0,3.47.07,15.49,15.49,0,0,0,1.95-.24Z"/><path class="cls-4" d="M85.13,68.5a9.67,9.67,0,0,0-.43-4.39A3.94,3.94,0,0,0,79,61.79a41.31,41.31,0,0,0-4.77,3,38.78,38.78,0,0,1-4.13,2.53,5.36,5.36,0,0,1-1.63.52,2.43,2.43,0,0,0-1,0,7.16,7.16,0,0,1-2.76-1.23,9.16,9.16,0,0,1,1.61-1.25c1.56-1.21,3.16-2.37,4.62-3.7.88-.8,1.82-1.54,2.63-2.4a31.24,31.24,0,0,0,4.63-5.83,18.83,18.83,0,0,0,2-4.73,18.08,18.08,0,0,0,.47-5.44,5.48,5.48,0,0,0-.41-1.7.31.31,0,0,1,0-.29,14.77,14.77,0,0,1,1.55,2.09,26.52,26.52,0,0,1,1.79,3.07,32.79,32.79,0,0,1,2.18,5.45A32,32,0,0,1,86.67,56c.14.9.21,1.81.3,2.72s.08,1.6.07,2.4c0,.15.05.32-.08.45a10,10,0,0,1-.06-1.23,17.72,17.72,0,0,1-.06,2,16.39,16.39,0,0,1-.43,2.7,19,19,0,0,1-1,3.42c0,.1-.07.25-.22.23S85.11,68.57,85.13,68.5Z"/><path class="cls-3" d="M52.89,27.14a7.63,7.63,0,0,0,1.59-3.45c.14-.62.22-1.25.34-1.93a3.1,3.1,0,0,1,.33,1,17,17,0,0,1,.37,2.72,4.11,4.11,0,0,1-1.69,3.41A8.79,8.79,0,0,1,52.12,30a6,6,0,0,0-.65.34c-.28.19-.29.29,0,.39.76.26.92.87.54,1.64a9.82,9.82,0,0,1-1.81,2.45,37.18,37.18,0,0,1-5.81,4.84,45.29,45.29,0,0,1-6.63,3.84,11.87,11.87,0,0,1-3.39,1.09c-.94.13-1.69-.45-1.58-1.27a2.68,2.68,0,0,1,.42-1.21l.53-.79c.63-.76,1.29-1.5,2-2.2a33.45,33.45,0,0,1,8.32-6,43.42,43.42,0,0,0,7.53-4.63A6.36,6.36,0,0,0,52.89,27.14Z"/><path class="cls-5" d="M33.75,41.35A13.89,13.89,0,0,0,33,43c-.27,1.06.36,1.61,1.4,1.48a14.65,14.65,0,0,0,4.8-1.79,46.45,46.45,0,0,0,8.74-5.84,19.62,19.62,0,0,0,3.45-3.59A4.61,4.61,0,0,0,52,32a.79.79,0,0,0-.54-1.15l-.24-.09c-.25-.1-.33-.21-.06-.4a17.12,17.12,0,0,1,1.58-.87A6,6,0,0,0,55,27.39a4.61,4.61,0,0,0,.37-2.68,15.72,15.72,0,0,1-.21-1.91,14.06,14.06,0,0,1,.63,2.74,4.2,4.2,0,0,1-.65,3.16,5.87,5.87,0,0,1-1,1c-.4.38-.4.41,0,.82a1.16,1.16,0,0,1,.28,1.15A7.46,7.46,0,0,1,53,34.18a37.78,37.78,0,0,1-10.54,9A36.31,36.31,0,0,1,35,46.78a5.57,5.57,0,0,1-2.32.33,1.26,1.26,0,0,1-1.23-1.33,5.53,5.53,0,0,1,.55-2A19.89,19.89,0,0,1,33.75,41.35Z"/><path class="cls-6" d="M60.32,89.31h-.25v0c1.1-.23,2.2-.43,3.29-.69a18.58,18.58,0,0,0,2.74-.94c.75-.31,1.54-.55,2.25-.93a42.47,42.47,0,0,0,4.29-2.49,35.81,35.81,0,0,0,3.66-2.88A30,30,0,0,0,79,78.6a5.71,5.71,0,0,0,.54-.6,3.38,3.38,0,0,0,1.92-1.15l.59-.56a11.72,11.72,0,0,1-1.39,2A26.36,26.36,0,0,1,78.25,81a29.55,29.55,0,0,1-8.77,5.87,33.16,33.16,0,0,1-5.74,1.89A24,24,0,0,1,60.32,89.31Z"/><path class="cls-6" d="M85.13,68.5c.08.23.09.06.13,0A19.44,19.44,0,0,0,86.08,66c.32-1,.42-2.07.66-3.1,0-.16-.14-.34.05-.48a.05.05,0,0,1,.09,0A23.36,23.36,0,0,1,86,67.61a29.22,29.22,0,0,1-1.63,4.6c0,.1-.08.22-.19.27A22.57,22.57,0,0,0,85,69.21C85,69,85.09,68.74,85.13,68.5Z"/><path class="cls-7" d="M86.88,62.4h-.09c0-.72.15-1.43.18-2.15q0,.64,0,1.29C86.92,61.82,87.05,62.13,86.88,62.4Z"/><path class="cls-8" d="M67.47,67.83a1.34,1.34,0,0,1,1,0A2.92,2.92,0,0,1,67.47,67.83Z"/><path class="cls-3" d="M64.88,84.3a13.42,13.42,0,0,0,6.9-2.08c.21-.15.45-.36.74-.17a1.5,1.5,0,0,1,.21,1.09,2.16,2.16,0,0,1-.9.89,14.5,14.5,0,0,1-6.34,2.26,23.05,23.05,0,0,1-7.69-.21,9.41,9.41,0,0,1-3.43-1.63,1.49,1.49,0,0,1-.51-1.36,1.57,1.57,0,0,1,1.29-.8.71.71,0,0,1,.48.15,8.37,8.37,0,0,0,4.49,1.77,6.51,6.51,0,0,0,1.24.07c.7-.07,1.39,0,2.09,0A6.32,6.32,0,0,1,64.88,84.3Z"/><path class="cls-3" d="M65.92,76.8a5.56,5.56,0,0,0-3.78,1.8,5.09,5.09,0,0,1-.72.6.75.75,0,0,1-1,0A.89.89,0,0,1,60.31,78a4.66,4.66,0,0,1,.82-.87A8.17,8.17,0,0,1,65,75a8.93,8.93,0,0,1,3.61.08,2.52,2.52,0,0,1,1.5,1,5.49,5.49,0,0,1,1.09,2,1,1,0,0,1-.72,1.2A.43.43,0,0,1,70,79a5.31,5.31,0,0,1-.48-.86A1.81,1.81,0,0,0,68.13,77a4,4,0,0,0-1-.19A3.71,3.71,0,0,1,65.92,76.8Z"/><path class="cls-9" d="M64.88,84.3a14.8,14.8,0,0,1-3.53,0,.32.32,0,0,1,.28-.08h3A.31.31,0,0,1,64.88,84.3Z"/><path class="cls-8" d="M60.5,86.57H63v0H60.5Z"/><path class="cls-8" d="M65.92,76.8a5.11,5.11,0,0,1,1.21,0A1.84,1.84,0,0,1,65.92,76.8Z"/><path class="cls-10" d="M86.9,60v-.69h0V60Z"/></svg>