<svg id="Calque_1" data-name="Calque 1" xmlns="http://www.w3.org/2000/svg" viewBox="0 0 112 112"><defs><style>.cls-1{fill:#cb6899;}</style></defs><title>skills-sass</title><path class="cls-1" d="M98.39,66.65c-1-3.36-3.46-5.27-6.68-6.27a15.88,15.88,0,0,0-10.4.53c-.42.15-.87.61-1.23.41s-.44-.77-.67-1.16a9.17,9.17,0,0,1-1.18-4.47,10.46,10.46,0,0,1,.83-3.93c.37-1-.05-1.37-1-1.47a9.32,9.32,0,0,0-1.94,0c-1.67.17-1.84.32-2.28,1.93A16.5,16.5,0,0,1,73,55.06c-1.08,2.25-2.3,4.41-3.55,6.56-.23.39-.46.77-.72,1.19a8.79,8.79,0,0,1-1.3-5.59,14.22,14.22,0,0,1,.87-3.34.7.7,0,0,0-.41-1,1.6,1.6,0,0,0-.55-.17,9.27,9.27,0,0,0-3.18.22,1.14,1.14,0,0,0-.9,1,13.94,13.94,0,0,1-.94,2.95L57.69,67.14c-.7,1.57-1.44,3.12-2.27,4.62-.08.14-.15.38-.35.34s-.15-.28-.16-.45a8.13,8.13,0,0,1,.19-2.09c.5-2.47,1.19-4.89,1.84-7.33a1.41,1.41,0,0,0-1.52-1.94,3.52,3.52,0,0,0-1,.37,11.39,11.39,0,0,0,.1-2.2c-.09-1.56-.81-2.56-2.07-2.8a4.26,4.26,0,0,0-2.65.48,13.34,13.34,0,0,0-4.82,4,1.87,1.87,0,0,1-.57.53q-3.67,2-7.33,4a.45.45,0,0,1-.64-.09A34.37,34.37,0,0,0,32.27,61a48.23,48.23,0,0,1-5.75-4.9,8.25,8.25,0,0,1-1.48-10A19.27,19.27,0,0,1,30.3,40,45.06,45.06,0,0,1,37,35.57a41.45,41.45,0,0,1,15.28-5.45,18.38,18.38,0,0,1,8.26.57c1.94.66,3.51,1.72,3.79,4a7.35,7.35,0,0,1-.58,3.8,16.59,16.59,0,0,1-5.86,7,24.77,24.77,0,0,1-10.79,4.39,15.18,15.18,0,0,1-4.81.15,7.74,7.74,0,0,1-5-2.47.47.47,0,0,0-.6-.18c-.29.14-.25.4-.22.64a2.28,2.28,0,0,0,.15.5,5.37,5.37,0,0,0,1.74,2.2,10.76,10.76,0,0,0,6.88,2.16A28.57,28.57,0,0,0,52.48,52a21.89,21.89,0,0,0,13.2-8.44,14.41,14.41,0,0,0,3.1-9.07,7.93,7.93,0,0,0-2.4-5.65,13.36,13.36,0,0,0-6.69-3.3,24.88,24.88,0,0,0-8.35-.36,34.51,34.51,0,0,0-7.21,1.6,64.29,64.29,0,0,0-10.36,4.59,44.5,44.5,0,0,0-9.4,6.75,22.57,22.57,0,0,0-5.73,8.07A7.89,7.89,0,0,0,18,50.83,12.28,12.28,0,0,0,20.68,56a34.75,34.75,0,0,0,6.69,5.88c2,1.42,4,2.71,5.94,4.24.44.36.44.36-.07.64-.76.4-1.53.78-2.28,1.2a31.89,31.89,0,0,0-8,5.86,8.69,8.69,0,0,0-2.47,6.39,5.4,5.4,0,0,0,2.22,4.5,5.47,5.47,0,0,0,3.18.74c4.94.06,8.65-2.2,11.32-6.26a12.66,12.66,0,0,0,1.92-6,12,12,0,0,0-.82-5.91c-.12-.27-.09-.39.16-.53,1.28-.72,2.55-1.46,3.83-2.19.09-.05.18-.19.33-.07,0,.07,0,.13-.05.2s-.07.2-.1.3a16.53,16.53,0,0,0-.63,7.62,9.73,9.73,0,0,0,1.93,4.54,2.81,2.81,0,0,0,4.32-.06,17.65,17.65,0,0,0,2.15-3.9c.35-.74.66-1.5,1-2.25a24.87,24.87,0,0,0,0,2.65,5.16,5.16,0,0,0,.61,2.47,1.8,1.8,0,0,0,2.49.7,5.5,5.5,0,0,0,2.2-2.28,106.41,106.41,0,0,0,6.06-12.17c.38-.91.76-1.83,1.18-2.84.07.32.11.52.14.72a20.46,20.46,0,0,0,2.17,5.94.49.49,0,0,1-.06.6c-.93,1.32-2,2.54-3,3.77a30.29,30.29,0,0,0-2.42,3,1.35,1.35,0,0,0,.77,2.22,4.44,4.44,0,0,0,1,.09,10.47,10.47,0,0,0,5.09-1.46,5.88,5.88,0,0,0,3.32-5.49A8.48,8.48,0,0,0,70,65.67a.67.67,0,0,1,.08-.76c.82-1.14,1.54-2.34,2.26-3.54s1.53-2.75,2.32-4.25c.06.24.1.36.13.47A18,18,0,0,0,76.66,63c.24.41.13.64-.21.92a14.39,14.39,0,0,0-3.18,3.75,7,7,0,0,0-1.08,3.58,1.91,1.91,0,0,0,2.5,2,11.17,11.17,0,0,0,4-1.84c2.67-1.95,3.45-4,2.6-6.9-.32-1.08-.31-1.06.76-1.39a16.41,16.41,0,0,1,7.54-.38,9.48,9.48,0,0,1,6,3A5.37,5.37,0,0,1,97,68.93a4,4,0,0,1-1.8,3.5c-.23.18-.49.34-.74.5s-.34.27-.26.52.31.22.52.19a2.58,2.58,0,0,0,.89-.29A5.44,5.44,0,0,0,98.39,66.65ZM35.78,71.43A10.4,10.4,0,0,1,29,81.1a5.41,5.41,0,0,1-2,.31,1.72,1.72,0,0,1-1.8-1.77A6.25,6.25,0,0,1,26,76.46a13.08,13.08,0,0,1,4-4.34,52.07,52.07,0,0,1,4.89-3.25c.42-.26.55-.16.62.28A10.13,10.13,0,0,1,35.78,71.43ZM52,59.88c-.05.35-.12.69-.19,1a27.28,27.28,0,0,1-.9,3C50,66.57,49,69.2,47.85,71.74a6.8,6.8,0,0,1-.57,1c-.08.11-.16.21-.24.31a1,1,0,0,1-.45.34.37.37,0,0,1-.27,0A.93.93,0,0,1,46,73a7.17,7.17,0,0,1-.48-2.64q0-.35,0-.7,0-.69.12-1.35a14.88,14.88,0,0,1,.78-3.14,17.12,17.12,0,0,1,2.48-4.45,5.5,5.5,0,0,1,.45-.53,4.53,4.53,0,0,1,.52-.46,3.76,3.76,0,0,1,1.25-.62,1.1,1.1,0,0,1,.65,0,.41.41,0,0,1,.23.2.8.8,0,0,1,.07.38A1.9,1.9,0,0,1,52,59.88ZM67,70.09a3,3,0,0,1-.13.43,3.39,3.39,0,0,1-.2.41,6.57,6.57,0,0,1-1.31,1.66,7.67,7.67,0,0,1-1.75,1.19c-.1,0-.22.13-.32.09a.21.21,0,0,1-.1-.09c-.08-.13.07-.22.15-.3,1.27-1.39,2.54-2.8,3.72-4.3a2.86,2.86,0,0,1,0,.46A2.82,2.82,0,0,1,67,70.09Zm8.14.93c-.15.06-.32.16-.44,0a.57.57,0,0,1-.06-.6,11.09,11.09,0,0,1,1.13-2.64,10,10,0,0,1,1.61-2c.27-.27.43-.34.52.13A5.75,5.75,0,0,1,78,67,4.25,4.25,0,0,1,75.13,71Z"/></svg>