<svg id="Calque_1" data-name="Calque 1" xmlns="http://www.w3.org/2000/svg" viewBox="0 0 112 112"><defs><style>.cls-1{fill:#264ce3;}.cls-2{fill:#2965f0;}.cls-3{fill:#eaeaea;}.cls-4{fill:#fefefe;}</style></defs><title>skills-css</title><path class="cls-1" d="M56.51,37.36h22c.29,0,.29,0,.27.28-.19,2.15-3.88,43.44-4,45a.27.27,0,0,1-.23.29L56.68,87.84a.65.65,0,0,1-.37,0C50.91,86.35,39,83,38.5,82.9a.28.28,0,0,1-.25-.29c-.09-1.08-3.95-44.43-4-45,0-.2,0-.24.22-.24Z"/><path d="M56.19,25h3.19c.15,0,.2,0,.2.19q0,1,0,2.07c0,.16,0,.2-.2.2-1.17,0-2.35,0-3.52,0-.23,0-.22.1-.22.26s0,.24.22.24h3.52c.15,0,.2,0,.2.19q0,2.64,0,5.28c0,.14,0,.19-.19.19H53c-.15,0-.18-.05-.18-.19,0-.74,0-1.47,0-2.21,0-.16,0-.19.19-.19,1.17,0,2.35,0,3.52,0,.24,0,.21-.11.22-.26s0-.24-.21-.24H53c-.15,0-.2,0-.2-.19q0-2.58,0-5.15c0-.19.07-.2.21-.2Z"/><path d="M64.3,25h3.19c.16,0,.2,0,.19.19q0,1,0,2.07c0,.16,0,.2-.19.2-1.17,0-2.35,0-3.52,0-.23,0-.22.1-.22.26s0,.25.22.24h3.5c.16,0,.23,0,.22.21q0,2.62,0,5.24c0,.16,0,.21-.2.21H61.13c-.18,0-.2-.05-.2-.21q0-1.09,0-2.18c0-.16,0-.19.2-.19,1.17,0,2.35,0,3.52,0,.24,0,.21-.11.22-.26s0-.25-.21-.24H61.17c-.21,0-.25-.07-.25-.26q0-2.52,0-5c0-.18,0-.25.23-.25C62.21,25,63.25,25,64.3,25Z"/><path d="M44.7,29.22c0-1.34,0-2.67,0-4,0-.16,0-.21.2-.21h6.37c.15,0,.2,0,.2.2,0,.81,0,1.62,0,2.43,0,.18-.05.21-.21.2h-3.5c-.19,0-.23.06-.23.24,0,.8,0,1.6,0,2.41,0,.16,0,.2.2.2h3.52c.17,0,.22,0,.22.22,0,.8,0,1.6,0,2.41,0,.15,0,.2-.19.2h-6.4c-.17,0-.19-.06-.19-.2C44.71,31.93,44.7,30.58,44.7,29.22Z"/><path class="cls-2" d="M56.52,46.64c0-1.77,0-3.54,0-5.31,0-.21,0-.28.27-.28H74.46c.26,0,.27,0,.24.28s-1,11.46-1.1,12.08c0,.4-2.3,25.92-2.33,26.31A.28.28,0,0,1,71,80c-.91.25-13,3.6-14.28,4-.21.06-.24,0-.24-.18,0-1.84,0-3.69,0-5.53a.06.06,0,0,1,0-.07c.49-.18,1-.3,1.5-.44l9.54-2.64a.36.36,0,0,0,.31-.36c.09-1,2.38-26.64,2.47-27.57a.58.58,0,0,0,0-.43.49.49,0,0,0-.32,0H56.9C56.77,46.7,56.63,46.74,56.52,46.64Z"/><path class="cls-3" d="M56.52,78.22v0L45.24,75.13a.25.25,0,0,1-.21-.26c-.08-.9-.69-7.78-.75-8.43,0-.1,0-.14.12-.13h5.24c.17,0,.24,0,.26.22.11,1.32.23,2.65.35,4a.31.31,0,0,0,.27.33l5.8,1.56a.35.35,0,0,0,.22,0,0,0,0,0,1,.06,0,2.57,2.57,0,0,1,0,.44q0,2.47,0,4.94A.57.57,0,0,1,56.52,78.22Z"/><path class="cls-3" d="M56.52,46.64H70.17c.09,0,.18,0,.26,0-.12.1-.27.07-.41.07H56.76a.16.16,0,0,0-.16.17c0,.07,0,.13,0,.2q0,2.32,0,4.64c0,.37,0,.37.37.37h7a1.27,1.27,0,0,1,.33,0c.16,0,.18.14.06.29a.6.6,0,0,0-.46-.12H56.92a.59.59,0,0,1-.41-.07H43.39c-.35,0-.36,0-.4-.35q-.24-2.61-.48-5.21a.61.61,0,0,1,.26,0H56.22a.64.64,0,0,0,.26,0Z"/><path class="cls-3" d="M56.52,63.54H44.29c-.24,0-.29-.08-.31-.3-.12-1.45-.43-4.85-.45-5.1s0-.2.18-.2H56.25a1,1,0,0,1,.27,0,.54.54,0,0,1,.07.38q0,2.33,0,4.66c0,.07,0,.15,0,.22s.06.21.2.2H63c.13,0,.29-.06.36.12a.4.4,0,0,1-.3.07H56.81A.42.42,0,0,1,56.52,63.54Z"/><path class="cls-2" d="M56.52,63.54h6.82a.31.31,0,0,1,.06.27c-.16,1.56-.28,3.12-.43,4.68-.07.69-.12,1.37-.18,2.06a.34.34,0,0,1-.29.34L56.88,72.4c-.1,0-.21.08-.32,0h0Q56.52,68,56.52,63.54Z"/><path class="cls-2" d="M56.52,58H43.78c-.13,0-.28,0-.25.18-.07-.14,0-.23.13-.22H56.23c.29,0,.29,0,.29-.29q0-2.69,0-5.37H64.1c.14,0,.25,0,.23.19a1.3,1.3,0,0,1,0,.72c-.13,1.48-.26,3-.39,4.43,0,.4-.08.45-.47.45H56.86A.47.47,0,0,1,56.52,58Z"/><path class="cls-2" d="M56.48,46.64a.54.54,0,0,1-.28,0H42.51c.05-.06.12,0,.19,0H56.48Z"/><path class="cls-4" d="M56.52,58H63.6c.18,0,.24-.05.26-.23.09-1.08.19-2.16.28-3.24l.19-2.06c.12-.23,0-.22-.19-.22H56.83c-.31,0-.31,0-.31-.31,0-1.65,0-3.3,0-4.95,0-.22.06-.27.27-.27H70.42a4.17,4.17,0,0,1-.05,1c-.12,1.46-.26,2.93-.39,4.39s-.29,3.15-.43,4.72c-.13,1.41-.25,2.83-.37,4.24-.14,1.58-.29,3.16-.43,4.75-.13,1.41-.25,2.81-.37,4.22-.15,1.66-.3,3.33-.44,5,0,.16-.13.16-.23.19l-3.66,1-7.37,2-.15,0q0-2.78,0-5.56a.39.39,0,0,1,0-.24L61.87,71c.22-.06.44-.13.67-.18s.18-.1.19-.24c.14-1.58.29-3.17.43-4.75.07-.76.13-1.52.19-2.29-.07-.08-.17,0-.25,0H56.8c-.28,0-.28,0-.28-.29Q56.52,60.58,56.52,58Z"/></svg>