<svg id="Calque_1" data-name="Calque 1" xmlns="http://www.w3.org/2000/svg" viewBox="0 0 112 112"><defs><style>.cls-1{fill:#cb6899;}</style></defs><title>skills-sass</title><path class="cls-1" d="M95.74,65.9c-1-3.14-3.23-4.92-6.24-5.85a14.83,14.83,0,0,0-9.71.49c-.39.14-.81.57-1.15.38s-.41-.71-.62-1.08a8.56,8.56,0,0,1-1.1-4.17A9.76,9.76,0,0,1,77.7,52c.35-.92,0-1.28-.92-1.38a8.7,8.7,0,0,0-1.81,0c-1.56.15-1.72.3-2.13,1.8A15.41,15.41,0,0,1,72,55.07c-1,2.1-2.15,4.12-3.32,6.12-.21.36-.43.72-.67,1.11a8.21,8.21,0,0,1-1.22-5.22A13.28,13.28,0,0,1,67.6,54a.65.65,0,0,0-.39-.95,1.5,1.5,0,0,0-.51-.16,8.65,8.65,0,0,0-3,.2,1.06,1.06,0,0,0-.84.9A13,13,0,0,1,62,56.71l-4.29,9.64c-.65,1.46-1.34,2.91-2.12,4.32-.07.13-.14.36-.32.32s-.14-.26-.15-.42a7.59,7.59,0,0,1,.18-1.95c.47-2.31,1.11-4.57,1.72-6.84A1.31,1.31,0,0,0,55.61,60a3.28,3.28,0,0,0-1,.35,10.64,10.64,0,0,0,.1-2.06,2.48,2.48,0,0,0-1.94-2.62,4,4,0,0,0-2.47.45,12.46,12.46,0,0,0-4.5,3.72,1.74,1.74,0,0,1-.54.49Q41.87,62.17,38.45,64a.42.42,0,0,1-.6-.08A32.09,32.09,0,0,0,34,60.64a45,45,0,0,1-5.37-4.57,7.71,7.71,0,0,1-1.38-9.31A18,18,0,0,1,32.15,41a42.08,42.08,0,0,1,6.29-4.17A38.71,38.71,0,0,1,52.7,31.77a17.17,17.17,0,0,1,7.72.53c1.81.62,3.28,1.61,3.54,3.71a6.86,6.86,0,0,1-.54,3.54,15.49,15.49,0,0,1-5.47,6.53,23.13,23.13,0,0,1-10.08,4.1,14.18,14.18,0,0,1-4.49.14A7.23,7.23,0,0,1,38.74,48a.44.44,0,0,0-.56-.17c-.27.13-.24.37-.2.6a2.13,2.13,0,0,0,.14.47A5,5,0,0,0,39.73,51a10,10,0,0,0,6.42,2,26.68,26.68,0,0,0,6.7-.76,20.45,20.45,0,0,0,12.33-7.88,13.46,13.46,0,0,0,2.89-8.47,7.4,7.4,0,0,0-2.24-5.28,12.48,12.48,0,0,0-6.25-3.08,23.23,23.23,0,0,0-7.8-.34,32.22,32.22,0,0,0-6.73,1.5A60,60,0,0,0,35.39,33a41.56,41.56,0,0,0-8.78,6.31,21.08,21.08,0,0,0-5.35,7.54,7.37,7.37,0,0,0-.59,4.31A11.47,11.47,0,0,0,23.17,56a32.45,32.45,0,0,0,6.25,5.49c1.85,1.33,3.78,2.53,5.55,4,.41.33.41.34-.07.59-.71.38-1.43.73-2.13,1.12a29.78,29.78,0,0,0-7.44,5.48,8.11,8.11,0,0,0-2.3,6,5,5,0,0,0,2.07,4.2,5.11,5.11,0,0,0,3,.69A12.28,12.28,0,0,0,40.43,72a11.22,11.22,0,0,0-.77-5.52c-.11-.25-.08-.36.15-.5l3.58-2c.09,0,.17-.18.3-.06,0,.06,0,.12,0,.18s-.07.19-.09.28A15.43,15.43,0,0,0,43,71.47a9.08,9.08,0,0,0,1.81,4.24,2.62,2.62,0,0,0,4-.06,16.48,16.48,0,0,0,2-3.64c.32-.69.62-1.4.93-2.1a23.23,23.23,0,0,0,0,2.47,4.82,4.82,0,0,0,.57,2.31,1.68,1.68,0,0,0,2.33.65,5.14,5.14,0,0,0,2-2.13,99.37,99.37,0,0,0,5.66-11.37l1.11-2.66c.06.3.1.49.14.67a19.11,19.11,0,0,0,2,5.55.45.45,0,0,1-.06.56c-.87,1.23-1.85,2.37-2.82,3.52a28.29,28.29,0,0,0-2.26,2.84,1.26,1.26,0,0,0,.72,2.08,4.15,4.15,0,0,0,.93.08,9.77,9.77,0,0,0,4.75-1.36A5.49,5.49,0,0,0,70,68a7.92,7.92,0,0,0-.73-3,.62.62,0,0,1,.07-.71c.76-1.06,1.44-2.18,2.11-3.31s1.43-2.57,2.17-4c.06.23.1.33.12.44a16.8,16.8,0,0,0,1.74,5c.22.38.12.6-.19.86a13.43,13.43,0,0,0-3,3.51,6.56,6.56,0,0,0-1,3.34A1.79,1.79,0,0,0,73.61,72a10.44,10.44,0,0,0,3.77-1.71c2.49-1.82,3.22-3.75,2.42-6.44-.3-1-.29-1,.71-1.3a15.33,15.33,0,0,1,7-.36A8.85,8.85,0,0,1,93.16,65a5,5,0,0,1,1.25,3,3.78,3.78,0,0,1-1.68,3.26c-.22.17-.46.31-.69.47s-.32.25-.25.48.29.2.49.18a2.41,2.41,0,0,0,.84-.27A5.08,5.08,0,0,0,95.74,65.9ZM37.27,70.36a9.72,9.72,0,0,1-6.29,9,5.05,5.05,0,0,1-1.88.29A1.61,1.61,0,0,1,27.42,78a5.84,5.84,0,0,1,.71-3A12.22,12.22,0,0,1,31.9,71a48.62,48.62,0,0,1,4.57-3c.39-.24.51-.15.58.26A9.46,9.46,0,0,1,37.27,70.36ZM52.44,59.57c0,.32-.11.65-.18,1a25.47,25.47,0,0,1-.84,2.81c-.86,2.47-1.77,4.92-2.87,7.29a6.35,6.35,0,0,1-.54,1c-.07.1-.14.2-.23.29a.91.91,0,0,1-.42.32.34.34,0,0,1-.25,0,.87.87,0,0,1-.33-.4,6.69,6.69,0,0,1-.45-2.47q0-.33,0-.65,0-.65.12-1.26a13.9,13.9,0,0,1,.73-2.93,16,16,0,0,1,2.31-4.15,5.14,5.14,0,0,1,.42-.49,4.23,4.23,0,0,1,.48-.43,3.51,3.51,0,0,1,1.17-.58,1,1,0,0,1,.61,0,.38.38,0,0,1,.22.19.75.75,0,0,1,.07.36A1.78,1.78,0,0,1,52.44,59.57Zm14,9.53a2.8,2.8,0,0,1-.12.4,3.16,3.16,0,0,1-.18.38,6.13,6.13,0,0,1-1.23,1.55,7.16,7.16,0,0,1-1.64,1.11c-.09,0-.2.12-.3.08a.19.19,0,0,1-.09-.08c-.08-.12.07-.2.14-.28,1.19-1.3,2.37-2.61,3.47-4a2.67,2.67,0,0,1,0,.43A2.63,2.63,0,0,1,66.41,69.11ZM74,70c-.14.05-.3.15-.41,0a.54.54,0,0,1-.05-.56A10.36,10.36,0,0,1,74.6,67a9.33,9.33,0,0,1,1.5-1.86c.26-.25.4-.32.49.12a5.37,5.37,0,0,1,.07.92A4,4,0,0,1,74,70Z"/></svg>