<svg id="Calque_1" data-name="Calque 1" xmlns="http://www.w3.org/2000/svg" viewBox="0 0 112 112"><defs><style>.cls-1{fill:#0073b9;}.cls-2{fill:#004974;}.cls-3{fill:#0274ba;}.cls-4{fill:#0475ba;}.cls-5{fill:#0072b9;}.cls-6{fill:#fefefe;}.cls-7{fill:#00598d;}.cls-8{fill:#92c4e3;}.cls-9{fill:#006cae;}.cls-10{fill:#004a83;}.cls-11{fill:#005188;}.cls-12{fill:#0065a3;}</style></defs><title>skills-drupal</title><path class="cls-1" d="M48.45,75.34c0-.79,0-1.57,0-2.36,0-.18,0-.24.23-.23.66,0,1.33,0,2,0,.21,0,.24.07.24.26,0,1.41,0,2.83,0,4.24a3.55,3.55,0,0,0,.24,1.43,1.84,1.84,0,0,0,3.38,0,3.08,3.08,0,0,0,.23-1.18c0-1.47,0-2.94,0-4.41,0-.28.08-.34.34-.33.63,0,1.25,0,1.88,0,.19,0,.26,0,.25.24,0,1.5,0,3,0,4.49a4.82,4.82,0,0,1-1.62,3.69,4.28,4.28,0,0,1-6.85-2,5.54,5.54,0,0,1-.29-1.79C48.45,76.69,48.45,76,48.45,75.34Z"/><path class="cls-2" d="M54.6,20.84c.79.94,1.57,1.83,2.32,2.74a13.47,13.47,0,0,0,5.78,4.15,19.55,19.55,0,0,1,6.37,3.88A21.51,21.51,0,0,1,74,38,19.85,19.85,0,0,1,76,44.75a19.57,19.57,0,0,1-1.52,10.18A18.8,18.8,0,0,1,71.16,60a19.5,19.5,0,0,1-10,5.87,18.92,18.92,0,0,1-3.25.52,20.72,20.72,0,0,1-8.48-1.16,19.66,19.66,0,0,1-11.13-10A19,19,0,0,1,36.52,49a21.09,21.09,0,0,1-.09-3.16,19.41,19.41,0,0,1,1.71-7,18.68,18.68,0,0,1,3.17-4.93,22,22,0,0,1,5.76-4.55,44.6,44.6,0,0,0,4.05-2.28,9.83,9.83,0,0,0,2-1.59,5.56,5.56,0,0,0,1.07-2.26A20.75,20.75,0,0,0,54.6,20.84Z"/><path class="cls-1" d="M47.47,75.81a4.17,4.17,0,0,0-1.68-.72,2.71,2.71,0,0,0-3,1.6,1.26,1.26,0,0,0-.07.5c0,1.49,0,3,0,4.47,0,.21,0,.27-.26.27-.66,0-1.33,0-2,0-.15,0-.21,0-.21-.2q0-4.37,0-8.74c0-.17,0-.22.22-.22h1.77c.15,0,.21,0,.23.2.06.43.14.85.21,1.27,0,.08,0,.18.1.21s.13-.08.18-.15a3.73,3.73,0,0,1,2.37-1.67,3.15,3.15,0,0,1,2,.36.21.21,0,0,1,.13.22C47.47,74,47.47,74.89,47.47,75.81Z"/><path class="cls-1" d="M79.4,75.92c0-1.89,0-3.78,0-5.68,0-.23,0-.33.3-.32.63,0,1.26,0,1.88,0,.2,0,.27,0,.27.26q0,5.75,0,11.49c0,.2-.06.25-.25.24-.65,0-1.29,0-1.94,0-.22,0-.26-.07-.26-.27C79.4,79.74,79.4,77.83,79.4,75.92Z"/><path class="cls-3" d="M85.71,70.43c-.06.17-.12.34-.18.51s0,.17-.15.17-.14-.1-.17-.18L85,70.41a1.87,1.87,0,0,0,0,.5c0,.08.05.2-.11.21s-.12-.11-.12-.19c0-.26,0-.52,0-.79,0-.09,0-.2.13-.19s.23,0,.27.13.13.39.21.61a1.46,1.46,0,0,0,.23-.57c0-.18.16-.17.3-.17s.12.14.12.23c0,.26,0,.52,0,.79,0,.09,0,.17-.13.16s-.11-.08-.11-.15,0-.35,0-.52Z"/><path class="cls-4" d="M84.14,69.95h.31c.08,0,.15,0,.15.12s-.06.11-.13.1-.23.09-.22.25,0,.36,0,.53,0,.17-.11.17S84,71,84,70.93s0-.3,0-.45,0-.37-.26-.32c-.07,0-.1,0-.1-.1s0-.11.1-.11h.39Z"/><path class="cls-1" d="M38.81,73.1a3.85,3.85,0,0,0-2.48-2.7,7.35,7.35,0,0,0-2-.41c-1.51-.11-3,0-4.52-.06v12h2.67a14.62,14.62,0,0,0,2.85-.23,4.21,4.21,0,0,0,3.56-3.2A10.09,10.09,0,0,0,38.81,73.1Zm-2.29,4.76a2.23,2.23,0,0,1-2.33,2c-.57,0-1.14,0-1.71,0-.19,0-.23-.07-.22-.24,0-1.23,0-2.45,0-3.68s0-2.41,0-3.62c0-.24.07-.29.3-.28a10.52,10.52,0,0,1,2.43.17,1.92,1.92,0,0,1,1.33,1.14,5.16,5.16,0,0,1,.36,1.78A10,10,0,0,1,36.52,77.86Z"/><path class="cls-1" d="M67.7,76.59a4.84,4.84,0,0,0-9.59.32c-.1,1.34,0,2.68,0,3.76,0,1.48,0,2.71,0,3.93,0,.24.07.29.3.29.64,0,1.27,0,1.91,0,.23,0,.27-.08.27-.28,0-1.32,0-2.64,0-4,0-.07,0-.15,0-.22a.1.1,0,0,1,.08-.1.1.1,0,0,1,.12.06l.1.2a2.87,2.87,0,0,0,3,1.57A4.83,4.83,0,0,0,67.7,76.59Zm-4.76,3.29a2.45,2.45,0,1,1,2.43-2.46A2.46,2.46,0,0,1,62.94,79.88Z"/><path class="cls-1" d="M78.4,79.42h0c0-.71,0-1.42,0-2.14a4.85,4.85,0,1,0-7.26,4.33,3.46,3.46,0,0,0,2.58.5,2.91,2.91,0,0,0,2-1.63c0-.07.05-.18.16-.16s.08.13.08.21c0,.39,0,.79,0,1.18,0,.16.05.2.21.2h2.05c.17,0,.22,0,.22-.22C78.4,80.94,78.4,80.18,78.4,79.42Zm-4.84.45a2.45,2.45,0,1,1,0-4.91,2.45,2.45,0,0,1,0,4.91Z"/><path class="cls-5" d="M53.61,25.49c.12-.36.37-.64.51-1A11.79,11.79,0,0,0,54.79,22c0-.08,0-.16.05-.29l.59.71a31.22,31.22,0,0,0,2.35,2.66,13.59,13.59,0,0,0,3,2.22,23.88,23.88,0,0,0,2.49,1.08,18.83,18.83,0,0,1,3.39,1.84,20.86,20.86,0,0,1,2.92,2.39,12.88,12.88,0,0,1,1.83,2.11,4.19,4.19,0,0,1,.36,1.66,13.4,13.4,0,0,1-.18,2.51,11.18,11.18,0,0,1-.86,2.69,16.69,16.69,0,0,1-2.62,3.83,28.34,28.34,0,0,1-3,2.92c-1.08.93-2.21,1.79-3.37,2.61a4.22,4.22,0,0,1-.43.31,1.26,1.26,0,0,1-.48-.27c-1.24-.86-2.49-1.7-3.79-2.46a9.35,9.35,0,0,0-3.11-1.24,9.79,9.79,0,0,0-2.24,0,7.61,7.61,0,0,0-4.39,2,5.52,5.52,0,0,0-1.13,1.46,6.28,6.28,0,0,0-.8,2.06,5,5,0,0,0,.15,2.79c.1.26.22.52.33.78a3.38,3.38,0,0,0,1.32,1.42c.09.07.26.09.22.28a3,3,0,0,1-1,.2,11.71,11.71,0,0,1-2.82.12A6.51,6.51,0,0,1,40,57.23a2.53,2.53,0,0,1-.51-.55,11,11,0,0,1-1.08-2,18.23,18.23,0,0,1-1.12-3.25,19.81,19.81,0,0,1-.51-3.36,17.08,17.08,0,0,1,0-2.1,19.29,19.29,0,0,1,.53-3.56,20.18,20.18,0,0,1,2.47-5.86c.05-.08.09-.19.19-.23.08.17,0,.31-.1.45a2.07,2.07,0,0,0-.17,1,.68.68,0,0,0,.49.65,1.82,1.82,0,0,0,.92,0,10.43,10.43,0,0,0,2.74-1,31.52,31.52,0,0,0,6.3-3.93,20.56,20.56,0,0,0,3.54-3.58,6.16,6.16,0,0,0,.74-1.22.86.86,0,0,0-.12-1.06.3.3,0,0,1,0-.47c.11-.11.22-.23.34-.34a2.44,2.44,0,0,0,.8-2.21,9.18,9.18,0,0,0-.42-2,3.09,3.09,0,0,1-.12-.46,10.47,10.47,0,0,1-.4,1.79,5.29,5.29,0,0,1-.68,1.35C53.78,25.42,53.73,25.51,53.61,25.49Z"/><path class="cls-6" d="M47.38,58A4.91,4.91,0,0,1,46.13,57a5.2,5.2,0,0,1-.95-2.62,6.36,6.36,0,0,1,.67-3.22,7.16,7.16,0,0,1,3.26-3.2A7.93,7.93,0,0,1,52,47.16a8.36,8.36,0,0,1,5.56,1.57c1.28.79,2.53,1.63,3.77,2.48.16,0,.27.1.4.17a3.91,3.91,0,0,0,1.45.55h.59a5.13,5.13,0,0,0,2.08-.88c1.28-.81,2.53-1.67,3.8-2.5a4.93,4.93,0,0,1,1.84-.81,2.5,2.5,0,0,1,2.14.59,3.44,3.44,0,0,1,1,1.9,6.09,6.09,0,0,1,.07,2.26A7.93,7.93,0,0,1,74,55a13.12,13.12,0,0,1-.88,1.74l-.51.74a5.39,5.39,0,0,1-.72.77,1.81,1.81,0,0,1-.93.42,2.5,2.5,0,0,1-2.25-.9c-.6-.58-1.13-1.22-1.74-1.8a22.32,22.32,0,0,0-2-1.75A2.83,2.83,0,0,0,61.86,54c-.77.36-1.48.85-2.21,1.27-1.41.81-2.79,1.68-4.25,2.41a11,11,0,0,1-3.34,1.13,8.61,8.61,0,0,1-1.18,0A8.69,8.69,0,0,1,49,58.78a5.75,5.75,0,0,1-1.53-.62A.18.18,0,0,1,47.38,58Z"/><path class="cls-7" d="M47.38,58a5.15,5.15,0,0,0,2.2.77,9.85,9.85,0,0,0,5-.76c1.61-.74,3.11-1.67,4.64-2.54.82-.47,1.6-1,2.45-1.42a4,4,0,0,1,1.71-.49,2.76,2.76,0,0,1,1.32.41,8.66,8.66,0,0,1,1.62,1.28c.86.76,1.61,1.62,2.42,2.42.19.18.39.35.58.52a2,2,0,0,0,1.68.43c0,.32-.31.47-.5.68a17.18,17.18,0,0,1-1.35,1.35,20.32,20.32,0,0,1-1.79,1.48,22.41,22.41,0,0,1-2.21,1.44,20.55,20.55,0,0,1-4.55,2,16.65,16.65,0,0,1-2.14.43h0a0,0,0,0,0,0,0,5.45,5.45,0,0,1-1.13.1,13.44,13.44,0,0,1-1.8,0c-.69,0-1.37-.12-2-.22A20.61,20.61,0,0,1,49.69,65a20.12,20.12,0,0,1-5.05-2.62,20.51,20.51,0,0,1-3.06-2.78,17.44,17.44,0,0,1-2-2.66,1.21,1.21,0,0,1-.08-.21,5.73,5.73,0,0,0,1.39,1,7.44,7.44,0,0,0,2.15.59,13.6,13.6,0,0,0,2.26,0,10.1,10.1,0,0,0,1.27-.16Z"/><path class="cls-7" d="M74.63,52.45a6.3,6.3,0,0,0-.28-2.86,2.57,2.57,0,0,0-3.7-1.51A26.92,26.92,0,0,0,67.55,50a25.27,25.27,0,0,1-2.69,1.65,3.49,3.49,0,0,1-1.06.34,1.58,1.58,0,0,0-.68,0,4.66,4.66,0,0,1-1.8-.8,6,6,0,0,1,1.05-.82c1-.79,2.06-1.54,3-2.41.57-.52,1.18-1,1.71-1.57a20.36,20.36,0,0,0,3-3.8,12.27,12.27,0,0,0,1.29-3.08A11.79,11.79,0,0,0,71.71,36a3.57,3.57,0,0,0-.27-1.11.2.2,0,0,1,0-.19,9.63,9.63,0,0,1,1,1.36,17.29,17.29,0,0,1,1.17,2A21.37,21.37,0,0,1,75,41.62a20.83,20.83,0,0,1,.6,2.66c.09.59.14,1.18.2,1.77s0,1,0,1.56c0,.1,0,.21-.05.29a6.5,6.5,0,0,1,0-.8,11.55,11.55,0,0,1,0,1.32,10.69,10.69,0,0,1-.28,1.76,12.4,12.4,0,0,1-.67,2.23c0,.07,0,.16-.14.15S74.61,52.5,74.63,52.45Z"/><path class="cls-6" d="M53.61,25.49a5,5,0,0,0,1-2.25c.09-.4.14-.82.22-1.26a2,2,0,0,1,.22.68,11.07,11.07,0,0,1,.24,1.77,2.68,2.68,0,0,1-1.1,2.22,5.73,5.73,0,0,1-1.11.7,3.9,3.9,0,0,0-.42.22c-.18.12-.19.19,0,.25.5.17.6.57.35,1.07a6.4,6.4,0,0,1-1.18,1.6,24.24,24.24,0,0,1-3.79,3.16,29.52,29.52,0,0,1-4.32,2.5,7.74,7.74,0,0,1-2.21.71c-.61.08-1.1-.29-1-.83a1.75,1.75,0,0,1,.28-.79l.34-.51c.41-.5.84-1,1.29-1.43a21.8,21.8,0,0,1,5.42-3.93,28.3,28.3,0,0,0,4.91-3A4.15,4.15,0,0,0,53.61,25.49Z"/><path class="cls-8" d="M41.14,34.75a9.05,9.05,0,0,0-.51,1.08c-.18.69.23,1.05.91,1a9.55,9.55,0,0,0,3.13-1.17,30.28,30.28,0,0,0,5.7-3.81,12.79,12.79,0,0,0,2.25-2.34,3,3,0,0,0,.44-.81.52.52,0,0,0-.35-.75l-.16-.06c-.16-.06-.21-.13,0-.26a11.16,11.16,0,0,1,1-.57A3.89,3.89,0,0,0,55,25.66a3,3,0,0,0,.24-1.74,10.25,10.25,0,0,1-.14-1.25,9.16,9.16,0,0,1,.41,1.79,2.74,2.74,0,0,1-.42,2.06,3.83,3.83,0,0,1-.63.64c-.26.25-.26.27,0,.53a.76.76,0,0,1,.18.75,4.86,4.86,0,0,1-.94,1.65,24.62,24.62,0,0,1-6.87,5.86,23.66,23.66,0,0,1-4.86,2.35,3.63,3.63,0,0,1-1.51.22.82.82,0,0,1-.8-.87A3.6,3.6,0,0,1,40,36.33,13,13,0,0,1,41.14,34.75Z"/><path class="cls-1" d="M58.45,66h-.16v0c.72-.15,1.44-.28,2.15-.45a12.11,12.11,0,0,0,1.79-.61c.49-.2,1-.36,1.47-.61a27.68,27.68,0,0,0,2.8-1.62,23.34,23.34,0,0,0,2.39-1.88A19.54,19.54,0,0,0,70.64,59a3.72,3.72,0,0,0,.35-.39,2.21,2.21,0,0,0,1.25-.75l.39-.36a7.64,7.64,0,0,1-.91,1.3,17.18,17.18,0,0,1-1.57,1.75,19.26,19.26,0,0,1-5.72,3.83,21.61,21.61,0,0,1-3.74,1.23A15.65,15.65,0,0,1,58.45,66Z"/><path class="cls-1" d="M74.63,52.45c.05.15.06,0,.08,0a12.67,12.67,0,0,0,.53-1.64c.21-.66.28-1.35.43-2,0-.11-.09-.22,0-.31a0,0,0,0,1,.06,0,15.22,15.22,0,0,1-.56,3.4,19,19,0,0,1-1.06,3c0,.07-.05.14-.13.18a14.71,14.71,0,0,0,.54-2.13C74.57,52.76,74.6,52.61,74.63,52.45Z"/><path class="cls-9" d="M75.76,48.47h-.06c0-.47.1-.93.11-1.4v.84C75.79,48.1,75.88,48.3,75.76,48.47Z"/><path class="cls-10" d="M63.12,52a.87.87,0,0,1,.68,0A1.91,1.91,0,0,1,63.12,52Z"/><path class="cls-6" d="M61.43,62.75a8.75,8.75,0,0,0,4.5-1.35c.14-.1.29-.24.48-.11a1,1,0,0,1,.14.71,1.41,1.41,0,0,1-.59.58,9.45,9.45,0,0,1-4.13,1.47,15,15,0,0,1-5-.14,6.13,6.13,0,0,1-2.24-1.06,1,1,0,0,1-.33-.89,1,1,0,0,1,.84-.52.47.47,0,0,1,.31.1,5.46,5.46,0,0,0,2.93,1.16,4.24,4.24,0,0,0,.81,0c.45,0,.91,0,1.36,0A4.12,4.12,0,0,1,61.43,62.75Z"/><path class="cls-6" d="M62.1,57.86A3.62,3.62,0,0,0,59.64,59a3.32,3.32,0,0,1-.47.39.49.49,0,0,1-.68,0,.58.58,0,0,1,0-.77,3,3,0,0,1,.53-.57,5.33,5.33,0,0,1,2.55-1.43,5.82,5.82,0,0,1,2.36,0,1.65,1.65,0,0,1,1,.66,3.58,3.58,0,0,1,.71,1.32.67.67,0,0,1-.47.78.28.28,0,0,1-.35-.15,3.46,3.46,0,0,1-.31-.56,1.18,1.18,0,0,0-.89-.77,2.61,2.61,0,0,0-.66-.12A2.42,2.42,0,0,1,62.1,57.86Z"/><path class="cls-11" d="M61.43,62.75a9.65,9.65,0,0,1-2.3,0,.21.21,0,0,1,.18-.05h1.94A.2.2,0,0,1,61.43,62.75Z"/><path class="cls-10" d="M58.57,64.23h1.61v0H58.57Z"/><path class="cls-10" d="M62.1,57.86a3.33,3.33,0,0,1,.79,0A1.2,1.2,0,0,1,62.1,57.86Z"/><path class="cls-12" d="M75.78,46.9v-.45h0v.45Z"/></svg>